<svg xmlns="http://www.w3.org/2000/svg" width="466" height="408" viewBox="0 0 466 408" fill="none">
  <path opacity="0.23" d="M345.145 6.69011C353.252 8.14682 360.997 9.96728 368.386 12.1424C375.706 14.4188 382.613 17.079 389.083 20.1016C395.428 23.2545 401.277 26.7767 406.598 30.6202C411.737 34.6009 416.298 38.8916 420.233 43.4493C425.465 50.5862 432.159 65.9932 433.587 74.1483C434.107 79.6907 433.979 85.3578 433.264 91.1114C432.472 96.9621 431.216 102.944 429.592 109.034C428.132 115.297 426.501 121.745 424.842 128.401C423.655 135.324 422.668 142.535 422.024 150.053C422.121 157.949 422.735 166.231 423.936 174.888C426 183.944 428.689 193.391 431.938 203.177C435.879 213.276 440.184 223.615 444.673 234.08C449.358 244.645 453.808 255.149 457.758 265.448C461.193 275.527 463.639 285.172 464.836 294.254C464.893 302.823 463.354 310.673 460.108 317.711C455.49 324.12 449.316 329.598 441.796 334.196C433.322 338.353 423.938 341.827 413.945 344.73C403.723 347.509 393.398 349.933 383.263 352.104C373.578 354.444 364.444 356.681 356.011 358.872C348.43 361.413 341.694 363.951 335.789 366.469C328.687 370.795 318.859 379.398 315.441 383.409C309.934 390.547 299.399 397.845 294.222 398.991C288.072 399.961 272.663 400.766 263.477 400.83C256.89 401.089 249.887 401.248 242.515 401.35C234.887 401.754 226.944 402.126 218.757 402.453C210.378 403.089 201.803 403.67 193.095 404.158C184.27 404.856 175.368 405.41 166.448 405.737C157.49 406.145 148.778 406.203 140.337 405.879C131.924 405.469 123.835 404.557 116.06 403.119C108.361 401.462 101.001 399.201 93.9823 396.326C87.0538 393.129 80.4532 389.302 74.1756 384.83C67.987 380.015 62.0908 374.574 56.507 368.562C50.9949 362.22 45.7646 355.324 40.824 347.956C35.9628 340.339 31.3931 332.293 27.1275 323.913C22.9715 315.363 19.1456 306.567 15.679 297.581C12.3934 288.535 9.52058 279.4 7.08543 270.243C4.90287 261.134 3.22367 252.076 2.08203 243.139C1.24951 234.32 1.00104 225.665 1.34345 217.232C2.00499 208.942 3.26244 200.889 5.09433 193.093C7.16831 185.418 9.75793 177.986 12.8267 170.781C15.9744 163.644 19.4827 156.68 23.2896 149.906C26.9647 143.083 30.8099 136.37 34.7399 129.761C38.3507 123.008 41.9501 116.305 45.4884 109.64C48.5982 102.782 51.5547 96.1183 54.3721 89.6661C56.8329 83.0315 59.2368 76.6454 61.6241 70.515C63.8332 64.2935 66.1585 58.3984 68.6679 52.8494C72.5991 44.7273 82.4805 30.6973 88.6363 24.8928C93.1935 21.2748 98.2357 18.1384 103.717 15.4631C109.53 12.8818 115.785 10.7301 122.41 8.99749C129.333 7.311 136.588 5.98253 144.103 5.00154C151.85 3.99324 159.806 3.27635 167.911 2.813C176.164 2.26306 184.524 1.91467 192.932 1.75232C201.433 1.45639 209.967 1.30685 218.493 1.29636C227.071 1.12265 235.64 1.06567 244.182 1.13954C252.754 1.02875 261.295 1.05793 269.788 1.24122C278.32 1.2663 286.81 1.45869 295.244 1.84578C303.702 2.13348 312.111 2.65144 320.437 3.45024C328.774 4.19934 337.022 5.26988 345.136 6.686" stroke="url(#paint0_linear_68_15581)" stroke-width="2" stroke-linecap="round" stroke-dasharray="3 1"/>
  <defs>
    <linearGradient id="paint0_linear_68_15581" x1="346.107" y1="0.735442" x2="155.515" y2="424.031" gradientUnits="userSpaceOnUse">
      <stop stop-color="#0593FF"/>
      <stop offset="1" stop-color="#FE069B"/>
    </linearGradient>
  </defs>
</svg>