<svg width="24" height="30" viewBox="0 0 24 30" fill="none" xmlns="http://www.w3.org/2000/svg">
<g id="android-studio-icon">
<path d="M8.9781 3.67969H2.39216C1.07966 3.67969 0.00153707 4.75781 0.00153707 6.09375C-0.0453379 7.38281 0.985912 8.46094 2.27497 8.50781H9.04841L8.9781 3.67969Z" fill="#073042"/>
<path d="M2.39216 25.1484C1.05622 25.1484 0.00153708 24.0703 0.00153708 22.7344V6.07031C0.00153708 7.40625 1.07966 8.48437 2.39216 8.50781H20.4156C20.4156 8.50781 23.9312 8.20312 23.9312 10.8516V25.1484H2.39216Z" fill="#4285F4"/>
<path d="M13.8765 16.6172C14.8375 15.8906 15.025 14.5312 14.2984 13.5937C13.9 13.0781 13.2906 12.75 12.6343 12.7266H12.7047C12.8218 12.7031 12.9625 12.7031 13.0797 12.7266V11.3906C13.0797 11.2266 13.0093 11.0859 12.8687 11.0156C12.6578 10.8984 12.4 10.9687 12.2828 11.1797C12.2359 11.25 12.2125 11.3203 12.2359 11.4141V12.7734C11.064 12.9609 10.2437 14.0625 10.4312 15.2578V15.2812C10.525 15.8437 10.8297 16.3594 11.2984 16.6875L7.33747 25.1719H9.9156L11.7437 21.2812C11.9547 20.8125 12.5172 20.6016 13.0093 20.8359C13.1968 20.9297 13.3609 21.0937 13.4547 21.2812L15.3531 25.1719H17.9781L13.8765 16.6172ZM12.5406 16.2422C11.7906 16.2422 11.2047 15.6328 11.2047 14.8828C11.2047 14.1328 11.814 13.5469 12.564 13.5703C12.9156 13.5703 13.2203 13.7109 13.4781 13.9453C14.0172 14.4609 14.0172 15.3047 13.5015 15.8437C13.2672 16.0781 12.9156 16.2422 12.5406 16.2422Z" fill="#3870B2"/>
<path d="M7.54842 4.85156H16.7828V6.53906H7.54842V4.85156Z" fill="white"/>
<path d="M11.8375 13.5469C12.564 13.5469 13.1734 14.1562 13.15 14.9062C13.15 15.6328 12.5406 16.2422 11.7906 16.2187C11.064 16.2187 10.4781 15.6094 10.4781 14.8828C10.4781 14.5312 10.6187 14.2031 10.8765 13.9453C11.1344 13.6875 11.4859 13.5469 11.8375 13.5469ZM12.3531 12.7734V11.3672C12.3531 11.2031 12.2828 11.0625 12.1422 10.9922C11.9312 10.875 11.6734 10.9453 11.5562 11.1562C11.5094 11.2266 11.4859 11.2969 11.5094 11.3906V12.75C10.3375 12.9375 9.51717 14.0391 9.70467 15.2344V15.2578C9.79842 15.8203 10.1031 16.3359 10.5719 16.6641L5.57966 27.375C5.39216 27.75 5.4156 28.2188 5.67341 28.5703C6.04841 29.1094 6.77498 29.25 7.31404 28.875C7.50154 28.7578 7.64216 28.5703 7.73591 28.3828L11.064 21.2578C11.275 20.7891 11.8375 20.5781 12.3297 20.8125C12.5172 20.9063 12.6812 21.0703 12.775 21.2578L16.1734 28.3125C16.4547 28.8984 17.1578 29.1328 17.7437 28.8516C18.3297 28.5703 18.564 27.8672 18.2828 27.2813L13.15 16.6172C14.0875 15.8672 14.2515 14.4844 13.5015 13.5469C13.2203 13.1719 12.8219 12.9141 12.3531 12.7734Z" fill="#073042"/>
<path d="M15.4234 6.35156C15.0718 6.35156 14.7906 6.09375 14.7906 5.74219C14.7906 5.57813 14.8609 5.39063 14.9781 5.27344C15.2359 5.03906 15.6109 5.03906 15.8687 5.27344C15.9859 5.39063 16.0562 5.55469 16.0562 5.71875C16.0328 6.07031 15.775 6.32813 15.4234 6.35156ZM8.48591 6.32813C8.13435 6.32813 7.8531 6.04688 7.8531 5.71875C7.8531 5.55469 7.92341 5.39063 8.0406 5.27344C8.25154 5.01563 8.64998 4.96875 8.90779 5.17969H8.93122C9.18904 5.41406 9.21247 5.8125 8.9781 6.07031L8.90779 6.16406C8.7906 6.28125 8.62654 6.35156 8.46247 6.35156M15.6109 2.55469L16.8531 0.398438C16.9234 0.28125 16.8765 0.140625 16.7828 0.046875C16.6656 7.45058e-09 16.5484 0.0234375 16.4781 0.117188L15.189 2.34375C13.1265 1.42969 10.7828 1.42969 8.74372 2.34375L7.4781 0.140625C7.43123 0.0703125 7.33748 0 7.24373 0C7.14998 0 7.05623 0.046875 7.00935 0.140625C6.96248 0.210938 6.96248 0.328125 7.00935 0.398438L8.27497 2.55469C6.07185 3.75 4.64216 6 4.43123 8.48438H19.4781C19.2906 5.97656 17.8375 3.75 15.6343 2.55469" fill="#3DDC84"/>
<path d="M21.7047 13.1484H20.7203C20.6734 13.1719 20.6265 13.2188 20.6265 13.2891V28.875C20.6265 28.9453 20.6734 28.9922 20.7437 28.9922H21.775C22.9703 28.9922 23.9312 28.0078 23.9312 26.8359V10.9688C23.9312 12.1641 22.9703 13.125 21.775 13.125H21.7047V13.1484Z" fill="#073042"/>
</g>
</svg>
