<svg width="25" height="30" viewBox="0 0 25 30" fill="none" xmlns="http://www.w3.org/2000/svg">
<g id="aws-icon" class="icon-group">
<path d="M4.14958 23.73L1.24581 24.3925V5.5871L4.14958 6.25087V23.73Z" fill="#F68536"/>
<path d="M7.77253 24.84L4.14957 25.8695V4.1358L7.77253 5.16412V24.84ZM12.42 25.9804L7.77253 27.6812V2.32413L12.42 4.02419V25.9804ZM24.8467 23.7867L12.42 30V0L24.8467 6.21331V23.7867Z" fill="#F68536"/>
<path d="M9.94293 1.23874L12.42 0V30L9.94293 28.7616V1.23874ZM5.85498 3.28248L7.77253 2.32413L7.77254 27.6763L5.85498 26.7175V3.28248ZM2.6221 4.89916L4.14957 4.1358L4.14958 25.8646L2.6221 25.1004V4.89916ZM1.24581 5.5871L0 6.21001V23.7904L1.24583 24.4129L1.24581 5.5871Z" fill="#9D5025"/>
</g>
</svg>
