<svg width="30" height="19" viewBox="0 0 30 19" fill="none" xmlns="http://www.w3.org/2000/svg">
<path id="docker-icon" class="icon-group" d="M28.9079 6.58594C27.9 6 26.5641 5.92969 25.4391 6.25781C25.2985 5.03906 24.5016 3.98438 23.5641 3.23438L23.1891 2.92969L22.861 3.30469C22.2282 4.03125 22.0407 5.25 22.1344 6.1875C22.2047 6.86719 22.4157 7.57031 22.8375 8.13281C22.5094 8.32031 22.1579 8.57813 21.8297 8.69531C21.1735 8.92969 20.4469 9.16406 19.7438 9.16406H18.1735V5.85938H15.1266V0H11.611V2.8125H5.75161V5.85938H2.70474V9.14063H0.0797402L0.0328652 9.49219C-0.0843223 10.9922 0.103178 12.4453 0.73599 13.8281L1.01724 14.3906C2.8688 17.5313 6.10318 18.8438 9.64224 18.8438C16.486 18.8438 22.1344 15.7734 24.7125 9.32813C26.4469 9.42188 28.2282 8.90625 29.0719 7.24219L29.2829 6.82031L28.9079 6.58594ZM6.22036 3.51563H8.56411V6.09375H6.22036V3.51563ZM9.29068 13.875C9.29068 14.2734 8.96255 14.6016 8.56411 14.6016C8.16568 14.6016 7.83755 14.2734 7.83755 13.875C7.83755 13.4766 8.16568 13.1484 8.56411 13.1484C8.96255 13.1719 9.29068 13.4766 9.29068 13.875ZM6.22036 6.5625H8.56411V9.14063H6.22036V6.5625ZM3.17349 6.5625H5.75161V9.14063H3.17349V6.5625ZM9.66568 18.3281C5.96255 18.3047 3.97036 17.0625 2.32974 15.4219C2.82193 15.4453 3.29068 15.4688 3.71255 15.4688C4.08755 15.4688 4.46255 15.4688 4.81411 15.4453C5.72818 15.3984 6.52505 15.2813 7.1813 15.0938C7.72036 16.3359 8.70474 17.4844 10.4626 18.3281H9.66568ZM11.611 9.14063H9.03286V6.5625H11.611V9.14063ZM11.611 6.09375H9.03286V3.51563H11.611V6.09375ZM14.6579 9.14063H12.0797V6.5625H14.6579V9.14063ZM14.6579 6.09375H12.0797V3.51563H14.6579V6.09375ZM14.6579 3.04688H12.0797V0.46875H14.6579V3.04688ZM17.7047 9.14063H15.1266V6.5625H17.7047V9.14063ZM8.75161 13.4063C8.70474 13.3828 8.63443 13.3594 8.56411 13.3594C8.28286 13.3594 8.04849 13.5938 8.04849 13.875C8.04849 14.1563 8.28286 14.3906 8.56411 14.3906C8.84536 14.3906 9.07974 14.1563 9.07974 13.875C9.07974 13.8047 9.0563 13.7344 9.03286 13.6875C8.98599 13.7578 8.93911 13.8047 8.84536 13.8047C8.72818 13.8047 8.63443 13.7109 8.63443 13.5938C8.65786 13.5 8.70474 13.4297 8.75161 13.4063Z" fill="#2684FF"/>
</svg>
