<svg width="30" height="26" viewBox="0 0 30 26" fill="none" xmlns="http://www.w3.org/2000/svg">
<g id="eslint-icon">
<path d="M8.77734 9.30469L14.2852 6.11719C14.4258 6.04687 14.5898 6.04687 14.7305 6.11719L20.2617 9.30469C20.4023 9.375 20.4961 9.53906 20.4961 9.67969V16.0547C20.4961 16.2188 20.4023 16.3594 20.2617 16.4531L14.7539 19.6406C14.6133 19.7109 14.4492 19.7109 14.3086 19.6406L8.77734 16.4531C8.63672 16.3828 8.54297 16.2188 8.54297 16.0547V9.67969C8.54297 9.53906 8.63672 9.375 8.77734 9.30469Z" fill="#8080F2"/>
<path d="M28.8633 12.2109L22.2773 0.726562C22.043 0.304687 21.5976 0 21.1055 0H7.93359C7.46484 0 7.01953 0.304687 6.76171 0.726562L0.175781 12.1875C-0.0585937 12.6094 -0.0585937 13.125 0.175781 13.5469L6.76171 24.9375C6.99609 25.3594 7.4414 25.5703 7.93359 25.5703H21.1289C21.5976 25.5703 22.043 25.3594 22.3008 24.9609L28.8867 13.5703C29.1211 13.1016 29.1211 12.6094 28.8633 12.2109ZM23.4023 17.7187C23.4023 17.8828 23.3086 18.0469 23.1445 18.1172L14.7539 22.9687C14.6133 23.0625 14.4258 23.0625 14.2851 22.9687L5.87109 18.1406C5.73047 18.0469 5.61328 17.9062 5.61328 17.7422V8.01562C5.61328 7.85156 5.70703 7.6875 5.87109 7.61718L14.2851 2.76562C14.4258 2.67187 14.6133 2.67187 14.7539 2.76562L23.168 7.61718C23.3086 7.71093 23.4258 7.85156 23.4258 8.01562V17.7187H23.4023Z" fill="#4B32C3"/>
<path fill-rule="evenodd" clip-rule="evenodd" d="M23.4023 17.7187C23.4023 17.8828 23.3086 18.0469 23.1445 18.1172L14.7539 22.9687C14.6133 23.0625 14.4258 23.0625 14.2851 22.9687L5.87109 18.1406C5.73047 18.0469 5.61328 17.9062 5.61328 17.7422V8.01562C5.61328 7.85156 5.70703 7.6875 5.87109 7.61718L14.2851 2.76562C14.4258 2.67187 14.6133 2.67187 14.7539 2.76562L23.168 7.61718C23.3086 7.71093 23.4258 7.85156 23.4258 8.01562V17.7187H23.4023ZM14.2852 6.11719L8.77734 9.30469C8.63672 9.375 8.54297 9.53906 8.54297 9.67969V16.0547C8.54297 16.2188 8.63672 16.3828 8.77734 16.4531L14.3086 19.6406C14.4492 19.7109 14.6133 19.7109 14.7539 19.6406L20.2617 16.4531C20.4023 16.3594 20.4961 16.2188 20.4961 16.0547V9.67969C20.4961 9.53906 20.4023 9.375 20.2617 9.30469L14.7305 6.11719C14.5898 6.04687 14.4258 6.04687 14.2852 6.11719Z" fill="white"/>
</g>
</svg>
