<svg width="21" height="31" viewBox="0 0 21 31" fill="none" xmlns="http://www.w3.org/2000/svg">
<g id="figma-icon">
<path d="M5.03906 30.2344C7.82812 30.2344 10.0781 27.9844 10.0781 25.1953V20.1562H5.03906C2.25 20.1562 0 22.4062 0 25.1953C0 27.9844 2.25 30.2344 5.03906 30.2344Z" fill="#0ACF83"/>
<path d="M0 15.1172C0 12.3281 2.25 10.0781 5.03906 10.0781H10.0781V20.1562H5.03906C2.25 20.1562 0 17.9062 0 15.1172Z" fill="#A259FF"/>
<path d="M0 5.03906C0 2.25 2.25 0 5.03906 0H10.0781V10.0781H5.03906C2.25 10.0781 0 7.82812 0 5.03906Z" fill="#F24E1E"/>
<path d="M10.0781 0H15.1172C17.9062 0 20.1562 2.25 20.1562 5.03906C20.1562 7.82812 17.9062 10.0781 15.1172 10.0781H10.0781V0Z" fill="#FF7262"/>
<path d="M20.1562 15.1172C20.1562 17.9062 17.9062 20.1562 15.1172 20.1562C12.3281 20.1562 10.0781 17.9062 10.0781 15.1172C10.0781 12.3281 12.3281 10.0781 15.1172 10.0781C17.9062 10.0781 20.1562 12.3281 20.1562 15.1172Z" fill="#1ABCFE"/>
</g>
</svg>
