<svg width="22" height="30" viewBox="0 0 22 30" fill="none" xmlns="http://www.w3.org/2000/svg">
<g id="firebase-icon">
<path d="M14.2225 10.8359L11.2221 13.6296L8.43693 8.00941L9.87572 4.77791C10.2394 4.13331 10.8341 4.1248 11.1978 4.77791L14.2225 10.8359Z" fill="#FFA000"/>
<path d="M11.2233 13.6284L0 24.0673L8.43818 8.00944L11.2233 13.6284Z" fill="#F57F17"/>
<path d="M17.5124 6.56335C18.05 6.05132 18.6034 6.22402 18.7432 6.95133L21.6609 23.9262L11.9835 29.7361C11.6441 29.9258 10.7441 30 10.7441 30C10.7441 30 9.9256 29.9003 9.61182 29.7276L0 24.0673L17.5124 6.56335Z" fill="#FFCA28"/>
<path d="M8.43818 8.00944L0 24.0673L3.76056 0.596553C3.90165 -0.130749 4.31395 -0.204938 4.68611 0.43966L8.43818 8.00944Z" fill="#FFA000"/>
</g>
</svg>
