<svg width="30" height="30" viewBox="0 0 30 30" fill="none" xmlns="http://www.w3.org/2000/svg">
<path id="git-icon" d="M29.0283 13.4753L16.1105 0.55793C15.3671 -0.185977 14.1605 -0.185977 13.4159 0.55793L10.7337 3.24059L14.1364 6.64324C14.9274 6.37629 15.834 6.55535 16.4642 7.18558C17.0977 7.8198 17.2754 8.7341 17.0018 9.52769L20.2812 12.8073C21.0746 12.5338 21.9903 12.7105 22.6236 13.3452C23.5095 14.2304 23.5095 15.6655 22.6236 16.5512C22.413 16.7618 22.1631 16.9289 21.8879 17.0429C21.6128 17.1569 21.3179 17.2156 21.0201 17.2156C20.7223 17.2156 20.4274 17.1569 20.1522 17.0429C19.8771 16.9289 19.6271 16.7618 19.4166 16.5512C19.1003 16.2347 18.8847 15.8317 18.7969 15.3929C18.7091 14.9541 18.7531 14.4992 18.9233 14.0853L15.8651 11.0272L15.8647 19.0759C16.0865 19.1852 16.2891 19.3299 16.4644 19.5043C17.3499 20.3896 17.3499 21.8242 16.4644 22.7113C15.5787 23.5965 14.1432 23.5965 13.2584 22.7113C12.3729 21.8244 12.3729 20.3898 13.2584 19.5043C13.4706 19.2919 13.7229 19.1237 14.0007 19.0098V10.8866C13.7227 10.773 13.4703 10.6047 13.2584 10.3918C12.5876 9.72152 12.4261 8.73715 12.7702 7.91308L9.41559 4.55848L0.558094 13.4155C0.200746 13.773 0 14.2577 0 14.7632C0 15.2686 0.200746 15.7534 0.558094 16.1108L13.4761 29.0282C14.22 29.7721 15.4261 29.7721 16.1712 29.0282L29.0286 16.1708C29.3858 15.8133 29.5865 15.3285 29.5865 14.823C29.5864 14.3175 29.3857 13.8328 29.0283 13.4753Z" fill="#F24E1E"/>
</svg>
