<svg width="29" height="28" viewBox="0 0 29 28" fill="none" xmlns="http://www.w3.org/2000/svg">
<g id="github-icon">
<path fill-rule="evenodd" clip-rule="evenodd" d="M14.1534 0C6.33773 0 0 6.33633 0 14.1534C0 20.407 4.05539 25.7121 9.67898 27.5838C10.3861 27.7151 10.6458 27.2768 10.6458 26.903C10.6458 26.5655 10.6327 25.4505 10.6266 24.2679C6.68906 25.1241 5.8582 22.598 5.8582 22.598C5.21437 20.962 4.28672 20.527 4.28672 20.527C3.00234 19.6486 4.38351 19.6669 4.38351 19.6669C5.80453 19.7665 6.55312 21.1254 6.55312 21.1254C7.81547 23.2887 9.86414 22.6634 10.6718 22.302C10.7988 21.3872 11.1656 20.7626 11.5704 20.4091C8.42671 20.0517 5.12179 18.8379 5.12179 13.4147C5.12179 11.8695 5.67492 10.6069 6.58031 9.61547C6.43312 9.25922 5.94867 7.81969 6.71718 5.87016C6.71718 5.87016 7.90547 5.48977 10.6102 7.32094C11.7394 7.00711 12.9504 6.84937 14.1534 6.84398C15.3558 6.84937 16.5675 7.00664 17.6988 7.32047C20.4002 5.4893 21.5871 5.86969 21.5871 5.86969C22.3575 7.81898 21.873 9.25875 21.7261 9.615C22.6336 10.6064 23.1827 11.869 23.1827 13.4142C23.1827 18.8503 19.8717 20.047 16.7201 20.3977C17.228 20.8369 17.6803 21.6984 17.6803 23.0187C17.6803 24.9124 17.6639 26.4366 17.6639 26.9027C17.6639 27.2794 17.9189 27.7207 18.6361 27.5817C24.2564 25.7081 28.3071 20.4047 28.3071 14.1534C28.3069 6.3368 21.9698 0 14.1534 0Z" fill="white"/>
<path d="M5.36063 20.321C5.32945 20.3913 5.21883 20.4124 5.11805 20.3644C5.01492 20.3184 4.9575 20.2226 4.99078 20.152C5.02125 20.0794 5.13211 20.0595 5.23453 20.108C5.33766 20.1541 5.39649 20.2507 5.36063 20.321ZM5.93391 20.9606C5.86664 21.0232 5.73469 20.9941 5.64516 20.895C5.55235 20.7966 5.535 20.6646 5.60367 20.6011C5.67352 20.5388 5.80149 20.5683 5.8943 20.6667C5.98664 20.7666 6.00469 20.8971 5.93391 20.9606ZM6.49219 21.7756C6.40547 21.836 6.26344 21.7795 6.17578 21.6537C6.08906 21.5276 6.08906 21.3764 6.17813 21.3162C6.26555 21.2557 6.40547 21.3103 6.49453 21.435C6.58078 21.5627 6.58078 21.7141 6.49219 21.7756ZM7.25649 22.5633C7.17914 22.6488 7.01367 22.6259 6.89274 22.5094C6.76922 22.3952 6.73477 22.2328 6.81235 22.1475C6.89109 22.0617 7.05727 22.0856 7.17891 22.2014C7.30242 22.3153 7.33922 22.4782 7.25649 22.5633ZM8.31117 23.0206C8.27672 23.1314 8.11781 23.1818 7.95727 23.1345C7.79719 23.0859 7.69242 22.9563 7.72524 22.8443C7.75805 22.7325 7.91813 22.6802 8.07961 22.7306C8.23969 22.7789 8.34445 22.9078 8.31117 23.0206ZM9.46969 23.1052C9.47367 23.2219 9.33773 23.3184 9.16969 23.3208C9.00023 23.3248 8.86313 23.2301 8.86148 23.1152C8.86148 22.9973 8.99461 22.902 9.16383 22.8987C9.33187 22.8956 9.46969 22.9896 9.46969 23.1052ZM10.5473 22.9219C10.5675 23.0356 10.4505 23.1525 10.2834 23.1837C10.1194 23.2141 9.96703 23.1434 9.94594 23.0306C9.92578 22.9139 10.0448 22.797 10.2089 22.7667C10.3762 22.7379 10.5262 22.8063 10.5473 22.9219Z" fill="white"/>
</g>
</svg>
