<svg width="22" height="30" viewBox="0 0 22 30" fill="none" xmlns="http://www.w3.org/2000/svg">
<g id="java-icon" class="icon-group">
<path d="M6.94867 22.6249C6.94867 22.6249 5.83141 23.2751 7.74484 23.4944C10.0633 23.7593 11.248 23.7213 13.8023 23.2385C13.8023 23.2385 14.4752 23.6592 15.4131 24.0239C9.68524 26.4778 2.45031 23.8816 6.94867 22.6249ZM6.24836 19.4222C6.24836 19.4222 4.99492 20.3501 6.91 20.5484C9.38664 20.8041 11.342 20.8249 14.7273 20.1734C14.7273 20.1734 15.1945 20.648 15.9302 20.9072C9.00625 22.9322 1.29438 21.0666 6.24836 19.4222Z" fill="#0074BD"/>
<path d="M12.1483 13.9884C13.5604 15.6138 11.778 17.0752 11.778 17.0752C11.778 17.0752 15.3613 15.2257 13.716 12.9087C12.1788 10.7489 11.0003 9.67617 17.3805 5.97586C17.3805 5.97586 7.36539 8.47664 12.1483 13.9884Z" fill="#EA2D2E"/>
<path d="M19.7235 24.9942C19.7235 24.9942 20.5506 25.6762 18.8123 26.2034C15.5071 27.2046 5.05305 27.5065 2.14961 26.2434C1.10641 25.7892 3.06344 25.1595 3.67915 25.0266C4.3211 24.8876 4.68766 24.9129 4.68766 24.9129C3.5268 24.0956 -2.81539 26.5184 1.46664 27.2133C13.1434 29.1061 22.7519 26.3609 19.7235 24.9942ZM7.48657 16.1032C7.48657 16.1032 2.16954 17.3662 5.60383 17.8254C7.05415 18.0195 9.94399 17.9749 12.6377 17.749C14.8384 17.5641 17.047 17.1691 17.047 17.1691C17.047 17.1691 16.2717 17.5017 15.7101 17.8847C10.3096 19.3052 -0.120543 18.6436 2.8825 17.1914C5.42126 15.9635 7.48657 16.1032 7.48657 16.1032ZM17.0249 21.4345C22.5142 18.5829 19.9759 15.8423 18.2043 16.2115C17.7712 16.3017 17.5769 16.3802 17.5769 16.3802C17.5769 16.3802 17.7381 16.1273 18.0456 16.0186C21.5502 14.787 24.2451 19.6521 16.9152 21.5791C16.9152 21.5791 16.9994 21.5025 17.0249 21.4345Z" fill="#0074BD"/>
<path d="M13.716 0C13.716 0 16.7554 3.04125 10.8325 7.71633C6.08266 11.4677 9.74945 13.6062 10.8309 16.0505C8.05797 13.549 6.02406 11.3466 7.38836 9.29696C9.3918 6.28899 14.942 4.83 13.716 0Z" fill="#EA2D2E"/>
<path d="M8.0261 29.1642C13.2939 29.501 21.3855 28.9767 21.577 26.4839C21.577 26.4839 21.2088 27.4289 17.223 28.1787C12.7263 29.0252 7.17906 28.9266 3.89008 28.3835C3.89008 28.3835 4.56391 28.9416 8.0261 29.1642Z" fill="#0074BD"/>
</g>
</svg>
