<svg width="28" height="30" viewBox="0 0 28 30" fill="none" xmlns="http://www.w3.org/2000/svg">
<g id="jest-icon">
<path d="M25.4632 14.7708C25.4632 13.2286 24.2129 11.9784 22.6708 11.9784C22.5715 11.9784 22.4737 11.9837 22.3772 11.9939L26.2125 0.682031H9.91372L13.7437 11.984C13.6872 11.9805 13.6306 11.9786 13.574 11.9785C12.0319 11.9785 10.7816 13.2285 10.7816 14.7709C10.7816 16.0174 11.5986 17.0728 12.7261 17.4319C12.1306 18.4633 11.3812 19.3925 10.5304 20.1952C9.37353 21.2865 8.04953 22.1141 6.61752 22.624C4.91256 21.7482 4.10748 19.8003 4.8339 18.0925C4.91596 17.8996 4.99972 17.7041 5.07976 17.5095C6.3149 17.2212 7.23542 16.1139 7.23542 14.7909C7.23542 13.2486 5.98518 11.9985 4.44295 11.9985C2.90072 11.9985 1.65058 13.2486 1.65058 14.7909C1.65058 15.7366 2.12104 16.5719 2.84034 17.077C2.14921 18.6506 1.13325 20.2976 0.8167 22.2063C0.437334 24.4938 0.815424 26.922 2.79389 28.2933C7.40155 31.4868 12.4031 26.3135 17.6766 25.013C19.5878 24.5418 21.6858 24.6177 23.3696 23.6426C24.6341 22.9102 25.4677 21.6964 25.7042 20.3338C25.9381 18.9877 25.5973 17.6474 24.8137 16.5607C25.2341 16.0591 25.4641 15.4252 25.4632 14.7708Z" fill="#99425B"/>
<path d="M25.0324 20.2171C24.8271 21.4001 24.0964 22.4334 23.0279 23.0524C22.0319 23.6292 20.8383 23.8014 19.5744 23.9836C18.8974 24.0812 18.1974 24.1823 17.5135 24.3509C15.7052 24.7968 13.9537 25.6668 12.26 26.5081C8.87022 28.1918 5.94286 29.6457 3.1826 27.7326C1.16066 26.3313 1.25399 23.7386 1.48954 22.3179C1.70787 21.0015 2.29812 19.7892 2.86882 18.6169C2.96605 18.4176 3.06249 18.218 3.15815 18.018C3.44583 18.133 3.7477 18.2088 4.0556 18.2432C3.47459 20.1606 4.3883 22.2455 6.30596 23.2306L6.56851 23.3655L6.84637 23.2665C8.36245 22.7266 9.75948 21.8603 10.9986 20.6911C11.7995 19.9355 12.4882 19.0995 13.0542 18.2062C13.2263 18.2321 13.4001 18.2452 13.5741 18.2452C15.3342 18.2452 16.7917 16.9294 17.0173 15.2299C17.7378 15.2036 18.503 15.2033 19.2276 15.2297C19.4529 16.9294 20.9107 18.2453 22.6708 18.2453C23.4068 18.2453 24.0894 18.0146 24.6518 17.6228C25.0422 18.4221 25.188 19.3213 25.0324 20.2171ZM4.44315 12.6804C5.60686 12.6804 6.55352 13.6272 6.55352 14.7909C6.55352 15.2089 6.43086 15.5987 6.22029 15.9269C5.86952 16.474 5.27321 16.849 4.58814 16.8958C4.5402 16.899 4.49183 16.9013 4.44315 16.9013C4.18379 16.9013 3.93538 16.854 3.70568 16.7681C3.24306 16.5942 2.85567 16.2642 2.61031 15.8352C2.42812 15.5173 2.33239 15.1573 2.33267 14.7909C2.33267 13.6272 3.27943 12.6804 4.44315 12.6804ZM11.4638 14.7708C11.4638 13.7135 12.2454 12.8356 13.2609 12.6838C13.3632 12.6684 13.4678 12.6605 13.5742 12.6605C14.2508 12.6605 14.8531 12.9809 15.2394 13.4775C15.3362 13.6014 15.4188 13.7356 15.4858 13.8777C15.617 14.1572 15.6848 14.4621 15.6846 14.7708C15.6846 14.9395 15.6642 15.1035 15.6266 15.2608C15.421 16.1218 14.6868 16.78 13.7871 16.8706C13.7172 16.8776 13.6462 16.8812 13.5742 16.8812C13.1683 16.8815 12.771 16.7641 12.4305 16.5431C11.8495 16.1667 11.4638 15.5131 11.4638 14.7708ZM20.2719 12.2612C19.8127 12.6996 19.4822 13.2553 19.3162 13.8681C18.5208 13.8387 17.7245 13.8387 16.9291 13.8681C16.7505 13.2056 16.3804 12.6212 15.8824 12.1773L18.0662 7.76164L20.2719 12.2612ZM10.8651 1.36419H25.2613L21.861 11.3926C21.7147 11.4276 21.5709 11.4722 21.4304 11.526L18.0715 4.67389L14.703 11.485C14.5562 11.4346 14.4061 11.3942 14.2538 11.364L10.8651 1.36419ZM24.7812 14.7709C24.7812 14.9825 24.7496 15.1868 24.6915 15.3797C24.5535 15.8339 24.267 16.2286 23.878 16.5006C23.5244 16.7487 23.1028 16.8817 22.6708 16.8813C21.6964 16.8813 20.8744 16.2173 20.6327 15.318C20.5847 15.1396 20.5604 14.9557 20.5604 14.7709C20.5604 14.4825 20.6187 14.2074 20.7239 13.9567C20.7782 13.8285 20.8451 13.7059 20.9235 13.5908C21.3033 13.0303 21.9442 12.6606 22.6708 12.6606C22.7374 12.6606 22.8031 12.664 22.8683 12.6701C23.9397 12.7699 24.7812 13.6738 24.7812 14.7709ZM26.1452 14.7709C26.1452 13.0747 24.9231 11.6594 23.3133 11.3571L27.164 0H8.96259L12.8192 11.38C11.2654 11.7258 10.0998 13.1143 10.0998 14.7708C10.0998 16.0147 10.7572 17.1072 11.7423 17.7211C11.2684 18.4272 10.7066 19.0915 10.0626 19.6991C9.04135 20.6624 7.90368 21.3931 6.67715 21.8739C5.44168 21.0978 4.91946 19.6342 5.46177 18.3593L5.58401 18.0719C6.94097 17.5986 7.9175 16.3071 7.9175 14.7909C7.9175 12.8751 6.3589 11.3165 4.44315 11.3165C2.5274 11.3165 0.968586 12.8751 0.968586 14.7909C0.968586 15.7579 1.36613 16.6335 2.00581 17.2641C1.8865 17.5169 1.7654 17.7688 1.64249 18.0198C1.05755 19.2211 0.3947 20.5826 0.143951 22.0946C-0.353934 25.0975 0.449229 27.4979 2.40558 28.8537C3.59268 29.6764 4.79828 30 6.01142 30C8.2957 30 10.6065 28.8523 12.8667 27.7296C14.4944 26.9213 16.1776 26.0853 17.8401 25.6752C18.4588 25.5227 19.0952 25.4308 19.7692 25.3337C21.1056 25.1408 22.4874 24.9415 23.7115 24.2327C25.1305 23.4108 26.1017 22.0321 26.3763 20.4505C26.6121 19.0926 26.3284 17.7325 25.6364 16.579C25.9698 16.0349 26.146 15.4091 26.1452 14.7709Z" fill="white"/>
</g>
</svg>
