<svg width="25" height="25" viewBox="0 0 25 25" fill="none" xmlns="http://www.w3.org/2000/svg">
<g id="jetbrains-icon">
<path d="M10.9965 11.456L4.10443 5.62244C3.72781 5.3077 3.26691 5.11074 2.77915 5.05611C2.29139 5.00148 1.79833 5.09158 1.36142 5.3152C0.924503 5.53882 0.563051 5.88606 0.322098 6.31365C0.0811455 6.74125 -0.0286542 7.2303 0.00638044 7.71986C0.0416429 8.20966 0.220408 8.67821 0.520354 9.06703C0.820301 9.45584 1.22814 9.74768 1.69294 9.90611H1.71755L1.78247 9.92627L10.4764 12.574C10.5387 12.597 10.6055 12.6087 10.6723 12.6096C10.8074 12.6088 10.9386 12.564 11.0459 12.482C11.1533 12.4 11.2311 12.2853 11.2675 12.1552C11.3039 12.0251 11.297 11.8867 11.2477 11.7609C11.1985 11.6351 11.1096 11.5287 10.9946 11.4579L10.9965 11.456Z" fill="url(#paint0_linear_216_31648)"/>
<path d="M12.3781 1.8258C12.3799 1.49771 12.2928 1.17527 12.126 0.892729C11.9593 0.610191 11.7191 0.378122 11.4309 0.221188C11.1428 0.0642534 10.8175 -0.0116808 10.4897 0.00145647C10.1619 0.0145937 9.84376 0.116311 9.56912 0.295797L1.15271 5.40611C0.769977 5.65536 0.462893 6.00476 0.264838 6.41633C0.0667826 6.82789 -0.0146645 7.28587 0.0293501 7.74049C0.0734438 8.19499 0.241143 8.62875 0.51426 8.99472C0.787376 9.36068 1.15548 9.64488 1.57865 9.81648C2.00182 9.98809 2.4639 10.0406 2.91478 9.96818C3.36565 9.89581 3.7881 9.70137 4.1363 9.40595L11.6813 3.25736L11.7408 3.20791C11.9403 3.03697 12.1006 2.82496 12.2105 2.58638C12.3205 2.3478 12.3777 2.08851 12.3781 1.8258Z" fill="url(#paint1_linear_216_31648)"/>
<path d="M24.6176 12.8377L11.8479 0.539312C11.6167 0.307404 11.3272 0.142206 11.0099 0.0611481C10.6926 -0.0199102 10.3593 -0.0138236 10.0451 0.0787653C9.73105 0.17149 9.44781 0.347267 9.2253 0.587554C9.0028 0.82784 8.84927 1.12373 8.78091 1.444C8.71281 1.76448 8.7325 2.0974 8.8379 2.40762C8.9433 2.71783 9.1305 2.99384 9.37974 3.2065L9.40248 3.22642L22.9697 14.656C23.1487 14.8061 23.3667 14.9021 23.5983 14.9325C23.8299 14.963 24.0654 14.9267 24.2771 14.828C24.4887 14.7289 24.6677 14.5716 24.7931 14.3744C24.9184 14.1772 24.985 13.9484 24.9849 13.7147C24.9845 13.5515 24.9519 13.39 24.8888 13.2395C24.8258 13.089 24.7336 12.9524 24.6176 12.8377Z" fill="url(#paint2_linear_216_31648)"/>
<path d="M24.9858 13.7194C24.9875 13.4928 24.9262 13.2701 24.8088 13.0763C24.6915 12.8824 24.5226 12.7249 24.3211 12.6213C24.1196 12.5177 23.8932 12.472 23.6673 12.4893C23.4413 12.5067 23.2246 12.5864 23.0412 12.7195L7.58982 20.2688C7.28159 20.4235 7.00872 20.6404 6.78836 20.9057C6.56799 21.171 6.40491 21.4791 6.30934 21.8105C6.21378 22.1418 6.18782 22.4894 6.23308 22.8313C6.27834 23.1733 6.39385 23.5021 6.57234 23.7972C6.75084 24.0923 6.98846 24.3473 7.27027 24.5462C7.55207 24.745 7.87197 24.8834 8.20985 24.9526C8.54772 25.0219 8.89627 25.0205 9.23357 24.9485C9.57087 24.8765 9.88964 24.7355 10.1698 24.5344L24.4573 14.7272C24.6206 14.6147 24.754 14.4642 24.846 14.2886C24.9381 14.113 24.9862 13.9176 24.9858 13.7194Z" fill="url(#paint3_linear_216_31648)"/>
<path d="M7.40303 7.50471H17.4024V17.5041H7.40303V7.50471Z" fill="black"/>
<path d="M8.49076 15.6291H12.2408V16.2544H8.49076V15.6291ZM8.33396 10.0828L8.6124 9.81916C8.6663 9.90424 8.75701 9.95838 8.85779 9.9647C8.96396 9.9647 9.03451 9.8897 9.03451 9.74416V8.75814H9.46482V9.74767C9.47113 9.82744 9.46072 9.90765 9.43424 9.98316C9.40777 10.0587 9.36581 10.1278 9.31107 10.1862C9.25446 10.2413 9.18733 10.2845 9.11368 10.3131C9.04003 10.3417 8.96138 10.3552 8.8824 10.3528C8.77576 10.3568 8.6698 10.3343 8.57406 10.2871C8.47832 10.24 8.39581 10.1698 8.33396 10.0828ZM9.65818 8.75814H10.9133V9.12236H10.0789V9.36142H10.8279V9.69471H10.0864V9.94267H10.9196V10.309H9.65255L9.65818 8.75814ZM11.5247 9.13619H11.0579V8.75814H12.4257V9.13619H11.9579V10.3181H11.5247V9.13619ZM8.5081 10.9341H9.24404C9.32049 10.9278 9.39743 10.9368 9.47038 10.9606C9.54333 10.9843 9.61083 11.0223 9.66896 11.0724C9.73669 11.1403 9.77326 11.2308 9.77138 11.3262C9.77234 11.4021 9.74959 11.4764 9.70632 11.5387C9.66305 11.6011 9.6014 11.6484 9.52998 11.674C9.71279 11.708 9.8438 11.8699 9.83935 12.0558C9.83935 12.3378 9.62138 12.5044 9.24779 12.5044H8.5081V10.9341ZM9.34107 11.4157C9.34107 11.3297 9.27076 11.2831 9.14419 11.2831H8.92927V11.5559H9.13787C9.26794 11.5559 9.34412 11.5111 9.34412 11.4213L9.34107 11.4157ZM9.19107 11.8589H8.92927V12.1472H9.19927C9.33287 12.1472 9.40623 12.0961 9.40623 12.0045C9.40248 11.9156 9.33943 11.8592 9.19458 11.8592L9.19107 11.8589ZM9.9774 10.9341H10.6695C10.8547 10.9195 11.0375 10.9791 11.1776 11.101C11.2721 11.198 11.3225 11.3297 11.3159 11.4642C11.319 11.5679 11.2897 11.67 11.2322 11.7563C11.1747 11.8426 11.0917 11.9088 10.9948 11.9459L11.3679 12.5044H10.8671L10.5521 12.031H10.4075V12.5044H9.97458L9.9774 10.9341ZM10.644 11.6841C10.7895 11.6841 10.8774 11.6126 10.8774 11.4973C10.8774 11.3728 10.786 11.3098 10.643 11.3098H10.4115V11.6878L10.644 11.6841Z" fill="white"/>
<path d="M11.9176 10.9224H12.334L13.0015 12.4962H12.5363L12.4247 12.2142H11.8196L11.7078 12.5044H11.2566L11.9176 10.9224ZM12.2972 11.8781L12.1226 11.4359L11.9459 11.8781H12.2972ZM13.0693 10.9296H13.5022V12.4906H13.0693V10.9296ZM13.6625 10.9296H14.0689L14.6311 11.7628V10.9294H15.0596V12.4903H14.6815L14.0926 11.6349V12.4908H13.6622L13.6625 10.9296ZM15.1308 12.259L15.3708 11.9707C15.5113 12.0884 15.6876 12.1548 15.8708 12.1592C15.9898 12.1592 16.0512 12.1181 16.0512 12.0513C16.0512 11.9824 16.0008 11.9496 15.7864 11.8992C15.4524 11.8224 15.1979 11.7326 15.1979 11.4113C15.1979 11.1211 15.4276 10.9113 15.803 10.9113C16.0348 10.9026 16.2621 10.9763 16.4447 11.1192L16.2361 11.4157C16.1099 11.3206 15.9572 11.2672 15.7993 11.2629C15.694 11.2629 15.6427 11.3042 15.6427 11.3628C15.6427 11.4342 15.6959 11.4661 15.9146 11.5146C16.2727 11.5924 16.4942 11.7096 16.4942 12.001C16.4942 12.3195 16.2425 12.5006 15.8644 12.5006C15.5986 12.5126 15.3376 12.4265 15.1308 12.259Z" fill="white"/>
</g>
<defs>
<linearGradient id="paint0_linear_216_31648" x1="6.29088" y1="8.77757" x2="26.9597" y2="15.5115" gradientUnits="userSpaceOnUse">
<stop offset="0.21" stop-color="#FE2857"/>
<stop offset="1" stop-color="#293896"/>
</linearGradient>
<linearGradient id="paint1_linear_216_31648" x1="0.569341" y1="22.873" x2="25.7565" y2="7.77115" gradientUnits="userSpaceOnUse">
<stop stop-color="#FE2857"/>
<stop offset="0.01" stop-color="#FE2857"/>
<stop offset="0.86" stop-color="#FF318C"/>
</linearGradient>
<linearGradient id="paint2_linear_216_31648" x1="1.57385" y1="1.83531" x2="25.3145" y2="21.6459" gradientUnits="userSpaceOnUse">
<stop offset="0.02" stop-color="#FF318C"/>
<stop offset="0.21" stop-color="#FE2857"/>
<stop offset="0.86" stop-color="#FDB60D"/>
</linearGradient>
<linearGradient id="paint3_linear_216_31648" x1="22.7591" y1="-0.0293538" x2="-4.35517" y2="12.4055" gradientUnits="userSpaceOnUse">
<stop offset="0.01" stop-color="#FDB60D"/>
<stop offset="0.86" stop-color="#FCF84A"/>
</linearGradient>
</defs>
</svg>
