<svg width="23" height="23" viewBox="0 0 23 23" fill="none" xmlns="http://www.w3.org/2000/svg">
<g id="jira-icon" class="icon-group">
<path d="M21.5679 0H10.7355C10.7355 2.7 12.9209 4.88625 15.6216 4.88625H17.6137V6.81422C17.6137 9.51422 19.8 11.7005 22.5 11.7005V0.932109C22.4998 0.684956 22.4015 0.447978 22.2268 0.273214C22.052 0.0984502 21.815 0.000186227 21.5679 0Z" fill="#2684FF"/>
<path d="M16.2002 5.4H5.36766C5.36766 8.09976 7.55321 10.286 10.253 10.286H12.2461V12.214C12.2461 14.914 14.4323 17.1002 17.1323 17.1002V6.33187C17.132 6.08478 17.0337 5.84791 16.8589 5.67318C16.6842 5.49846 16.4473 5.40037 16.2002 5.4Z" fill="url(#paint0_linear_216_31644)"/>
<path d="M10.8326 10.7995H0C0 13.5005 2.18531 15.6858 4.88625 15.6858H6.87844V17.6147C6.87844 20.3147 9.06469 22.5 11.7645 22.5V11.7326C11.7642 11.4854 11.666 11.2484 11.4913 11.0736C11.3166 10.8987 11.0797 10.8 10.8326 10.7995Z" fill="url(#paint1_linear_216_31644)"/>
</g>
<defs>
<linearGradient id="paint0_linear_216_31644" x1="22.0688" y1="0.0238868" x2="13.2048" y2="9.11385" gradientUnits="userSpaceOnUse">
<stop offset="0.176" stop-color="#0052CC"/>
<stop offset="1" stop-color="#2684FF"/>
</linearGradient>
<linearGradient id="paint1_linear_216_31644" x1="11.8509" y1="10.841" x2="6.52219" y2="16.0254" gradientUnits="userSpaceOnUse">
<stop offset="0.176" stop-color="#0052CC"/>
<stop offset="1" stop-color="#2684FF"/>
</linearGradient>
</defs>
</svg>
