<svg width="30" height="30" viewBox="0 0 30 30" fill="none" xmlns="http://www.w3.org/2000/svg">
<g id="js-icon" class="icon-group">
<path d="M0 0H29.34V29.3402H0V0Z" fill="#F7DF1E"/>
<path d="M26.9388 22.3425C26.7239 21.004 25.8511 19.8797 23.2657 18.8313C22.3676 18.4186 21.3663 18.123 21.068 17.4424C20.962 17.0463 20.948 16.8232 21.015 16.5834C21.2074 15.8053 22.1362 15.5627 22.8724 15.7859C23.3466 15.9448 23.7954 16.3102 24.0661 16.893C25.3322 16.0732 25.3296 16.0786 26.2137 15.5152C25.89 15.0134 25.7173 14.7818 25.5054 14.5671C24.7439 13.7166 23.7063 13.2785 22.0469 13.312L21.1826 13.4238C20.3543 13.6331 19.5649 14.0679 19.102 14.6508C17.7131 16.2267 18.1092 18.9848 19.7993 20.1199C21.4643 21.3696 23.9102 21.6539 24.2227 22.8225C24.5266 24.2531 23.1712 24.7163 21.8241 24.5517C20.8312 24.3452 20.2791 23.8406 19.6821 22.923C18.5834 23.5589 18.5834 23.5589 17.4537 24.2086C17.7216 24.7943 18.003 25.0594 18.4521 25.5668C20.5774 27.7226 25.8959 27.6166 26.8498 24.3537C26.8884 24.2416 27.1453 23.4945 26.9388 22.3425ZM15.9502 13.4848H13.2059L13.1946 20.5798C13.1946 22.0887 13.2727 23.472 13.0273 23.8959C12.6258 24.7298 11.5854 24.6265 11.1112 24.4648C10.6287 24.2276 10.3833 23.8903 10.099 23.4136C10.0209 23.2767 9.96234 23.1708 9.94266 23.1626L7.71141 24.529C8.08242 25.2905 8.62898 25.9514 9.32906 26.3808C10.3748 27.0084 11.7804 27.2009 13.2504 26.8634C14.2071 26.5847 15.0326 26.0074 15.4648 25.1288C16.0896 23.9768 15.9555 22.5825 15.9499 21.0403C15.964 18.5243 15.9502 16.0088 15.9502 13.4848Z" fill="#323330"/>
</g>
</svg>
