<svg width="30" height="30" viewBox="0 0 30 30" fill="none" xmlns="http://www.w3.org/2000/svg">
<g id="miro-icon">
<path d="M6.49896 0H23.501C27.0879 0 30 2.9121 30 6.49896V23.501C30 27.0879 27.0879 30 23.501 30H6.49896C2.9121 30 0 27.0879 0 23.501V6.49896C0 2.9121 2.9121 0 6.49896 0Z" fill="#FFD02F"/>
<path d="M20.8464 3.74667H17.5525L20.2959 8.56762L14.2587 3.74667H10.9648L13.9834 9.6419L7.67091 3.74667H4.37704L7.67091 11.2489L4.37704 26.2533H7.67091L13.9834 10.1746L10.9648 26.2533H14.2587L20.2959 9.1092L17.5525 26.2533H20.8464L26.8837 7.49334L20.8464 3.74667Z" fill="#050038"/>
</g>
</svg>
