<svg width="14" height="29" viewBox="0 0 14 29" fill="none" xmlns="http://www.w3.org/2000/svg">
<g id="mongodb-icon" class="icon-group">
<path fill-rule="evenodd" clip-rule="evenodd" d="M12.6338 9.32812C13.01 10.4163 13.2809 11.5273 13.37 12.6787C13.4806 14.1073 13.43 15.5257 13.1288 16.9308C13.1206 16.9694 13.1033 17.0058 13.0904 17.0433C12.9959 17.0435 12.8996 17.0318 12.8073 17.0461C12.027 17.1687 11.2475 17.2957 10.468 17.422C9.66218 17.5526 8.85522 17.678 8.05085 17.8174C7.76585 17.8666 7.41312 17.8078 7.29804 18.202C7.29476 18.2128 7.26194 18.2147 7.24296 18.2208L7.28187 15.8651L7.24225 10.181L7.61772 10.1166C8.23179 10.016 8.84585 9.91406 9.46038 9.81633C10.1937 9.69984 10.9278 9.58664 11.6616 9.47297C11.9853 9.42258 12.3094 9.37641 12.6338 9.32812Z" fill="#439934"/>
<path fill-rule="evenodd" clip-rule="evenodd" d="M6.46765 25.088C6.07156 24.7474 5.66164 24.4219 5.28195 24.0637C3.2389 22.1367 1.74453 19.8687 1.00859 17.1342C0.805853 16.3816 0.670619 15.6169 0.62726 14.8392C0.596791 14.295 0.552728 13.7459 0.591165 13.2044C0.693587 11.7644 0.901713 10.3383 1.32406 8.95125L1.34726 8.9189C1.38828 8.97351 1.44734 9.02179 1.4682 9.08344C1.88046 10.2975 2.28968 11.5125 2.69679 12.7282C3.97601 16.5485 5.25359 20.3698 6.53492 24.1891C6.56 24.2637 6.62492 24.3248 6.67156 24.3921L6.46765 25.088Z" fill="#45A538"/>
<path fill-rule="evenodd" clip-rule="evenodd" d="M12.6338 9.32812C12.3094 9.37641 11.9853 9.42258 11.6616 9.47297C10.9278 9.58664 10.1937 9.69984 9.46038 9.81633C8.84585 9.91406 8.23179 10.016 7.61772 10.1166L7.24225 10.181L7.23921 9.93563C7.22679 9.7343 7.20546 9.5332 7.20312 9.33187C7.18695 8.04797 7.17687 6.76406 7.16093 5.48016C7.15109 4.67648 7.13632 3.87305 7.11992 3.06961C7.10984 2.57039 7.09906 2.07094 7.07656 1.57242C7.06437 1.30453 7.02124 1.03805 7.00367 0.770156C6.99382 0.616172 7.00742 0.461016 7.01046 0.306328C7.20195 0.677344 7.38921 1.05117 7.58609 1.41937C7.8971 2.00156 8.39257 2.43047 8.83859 2.89852C10.6018 4.7482 11.8536 6.89883 12.6338 9.32812Z" fill="#46A037"/>
<path fill-rule="evenodd" clip-rule="evenodd" d="M7.24296 18.2208C7.26194 18.2147 7.29476 18.2128 7.29804 18.202C7.41312 17.8078 7.76585 17.8666 8.05085 17.8174C8.85522 17.678 9.66218 17.5526 10.468 17.422C11.2475 17.2957 12.027 17.1687 12.8073 17.0461C12.8996 17.0318 12.9959 17.0435 13.0904 17.0433C12.9446 17.5636 12.8295 18.0949 12.6446 18.6009C12.4346 19.1749 12.1805 19.7351 11.9108 20.2842C11.5069 21.1033 11.0071 21.8714 10.4218 22.5724C9.97202 23.1134 9.47069 23.6133 8.96819 24.1071C8.69046 24.3802 8.36304 24.6026 8.05835 24.848L7.97936 24.7941L7.69483 24.5508L7.40046 23.9056C7.19938 23.1529 7.08969 22.3787 7.07374 21.5998L7.07913 21.4683L7.11921 20.8997C7.13257 20.7056 7.15038 20.5118 7.15858 20.3173C7.18882 19.6184 7.2153 18.9197 7.24296 18.2208Z" fill="#409433"/>
<path fill-rule="evenodd" clip-rule="evenodd" d="M7.24296 18.2208C7.2153 18.9197 7.18882 19.6184 7.15858 20.3173C7.15038 20.5118 7.13257 20.7056 7.11921 20.8997L6.94038 20.9677C6.54218 19.7953 6.14374 18.6354 5.75398 17.4724C5.10945 15.5484 4.47265 13.6214 3.82906 11.697C3.30923 10.1436 2.7858 8.59151 2.25874 7.04062C2.23413 6.96797 2.16335 6.91125 2.11413 6.84703L3.26163 4.73719C3.30101 4.80563 3.35304 4.86961 3.37788 4.9432C3.90934 6.51401 4.43809 8.08573 4.96413 9.65836C5.64757 11.7045 6.32679 13.7522 7.00976 15.7985C7.03695 15.8803 7.08195 15.9558 7.12484 16.0474L7.28187 15.8651L7.24296 18.2208Z" fill="#4FAA41"/>
<path fill-rule="evenodd" clip-rule="evenodd" d="M2.11413 6.84703C2.16335 6.91125 2.23413 6.96797 2.25874 7.04062C2.7858 8.59151 3.30923 10.1436 3.82906 11.697C4.47265 13.6214 5.10945 15.5484 5.75398 17.4724C6.14374 18.6354 6.54218 19.7953 6.94038 20.9677L7.11921 20.8997L7.07913 21.4683L7.04351 21.5998C6.98117 22.2223 6.92867 22.8462 6.85273 23.4673C6.81453 23.7785 6.7332 24.0839 6.67156 24.3921C6.62492 24.3248 6.56 24.2637 6.53492 24.1891C5.25359 20.3698 3.97601 16.5485 2.69679 12.7282C2.28968 11.5125 1.88046 10.2975 1.4682 9.08344C1.44734 9.02179 1.38828 8.97351 1.34726 8.9189L2.11413 6.84703Z" fill="#4AA73C"/>
<path fill-rule="evenodd" clip-rule="evenodd" d="M7.28187 15.8651L7.12484 16.0474C7.08195 15.9558 7.03695 15.8803 7.00976 15.7985C6.32679 13.7522 5.64757 11.7045 4.96413 9.65836C4.43809 8.08573 3.90934 6.51401 3.37788 4.9432C3.35304 4.86961 3.30101 4.80563 3.26163 4.73719L4.68054 2.87062C4.72531 2.93039 4.78906 2.98359 4.81226 3.05086C5.20624 4.20422 5.59671 5.35898 5.98484 6.51445C6.34742 7.59352 6.7046 8.67422 7.0714 9.75187C7.09601 9.82406 7.18203 9.87469 7.23921 9.93563L7.24225 10.181C7.25585 12.0752 7.26874 13.9704 7.28187 15.8651Z" fill="#57AE47"/>
<path fill-rule="evenodd" clip-rule="evenodd" d="M7.23921 9.93563C7.18203 9.87469 7.09601 9.82406 7.0714 9.75187C6.7046 8.67422 6.34742 7.59352 5.98484 6.51445C5.59671 5.35898 5.20624 4.20422 4.81226 3.05086C4.78906 2.98359 4.72531 2.93039 4.68054 2.87062C5.14203 2.41875 5.58969 1.95024 6.06969 1.51922C6.49649 1.13625 6.83961 0.725625 6.85532 0.120469C6.85602 0.0953907 6.86914 0.0703125 6.8893 0L7.01046 0.306328C7.00742 0.461016 6.99382 0.616172 7.00367 0.770156C7.02124 1.03805 7.06437 1.30453 7.07656 1.57242C7.09906 2.07094 7.10984 2.57039 7.11992 3.06961C7.13632 3.87305 7.15109 4.67648 7.16093 5.48016C7.17687 6.76406 7.18695 8.04797 7.20312 9.33187C7.20546 9.5332 7.22679 9.7343 7.23921 9.93563Z" fill="#60B24F"/>
<path fill-rule="evenodd" clip-rule="evenodd" d="M6.67156 24.3921C6.7332 24.0839 6.81453 23.7785 6.85273 23.4673C6.92867 22.8462 6.98117 22.2223 7.04351 21.5998L7.05851 21.5972L7.07374 21.5998C7.08969 22.3787 7.19938 23.1529 7.40046 23.9056C7.35921 23.9599 7.30108 24.0084 7.27929 24.0698C7.1089 24.5503 6.94835 25.0345 6.77702 25.515C6.75358 25.5806 6.68843 25.6317 6.64249 25.6894L6.46765 25.088L6.67156 24.3921Z" fill="#A9AA88"/>
<path fill-rule="evenodd" clip-rule="evenodd" d="M6.64249 25.6894C6.68843 25.6317 6.75358 25.5806 6.77702 25.515C6.94835 25.0345 7.1089 24.5503 7.27929 24.0698C7.30108 24.0084 7.35921 23.9599 7.40046 23.9056L7.69483 24.5508C7.63671 24.6333 7.5568 24.708 7.52445 24.7999L6.96102 26.4544C6.93781 26.5207 6.8586 26.5676 6.80563 26.6236L6.64249 25.6894Z" fill="#B6B598"/>
<path fill-rule="evenodd" clip-rule="evenodd" d="M6.80563 26.6236C6.8586 26.5676 6.93781 26.5207 6.96102 26.4544L7.52445 24.7999C7.5568 24.708 7.63671 24.6333 7.69483 24.5508L7.97936 24.7941C7.84179 24.93 7.76585 25.087 7.81179 25.2856L7.72531 25.5687C7.68593 25.6172 7.62898 25.6594 7.60953 25.7149C7.41289 26.2781 7.22515 26.8444 7.0271 27.4076C7.00203 27.4791 6.93242 27.5351 6.8832 27.5979C6.85765 27.2728 6.83164 26.9487 6.80563 26.6236Z" fill="#C2C1A7"/>
<path fill-rule="evenodd" clip-rule="evenodd" d="M6.8832 27.5979C6.93242 27.5351 7.00203 27.4791 7.0271 27.4076C7.22515 26.8444 7.41289 26.2781 7.60953 25.7149C7.62898 25.6594 7.68593 25.6172 7.72531 25.5687L7.60624 26.8683C7.57436 26.9051 7.52819 26.9372 7.51296 26.9801C7.37819 27.3584 7.25116 27.7395 7.11593 28.1177C7.08804 28.1958 7.0346 28.2647 6.99288 28.3376C6.95585 28.2891 6.88952 28.2422 6.88647 28.1916C6.87452 27.9945 6.8825 27.7959 6.8832 27.5979Z" fill="#CECDB7"/>
<path fill-rule="evenodd" clip-rule="evenodd" d="M6.99288 28.3376C7.0346 28.2647 7.08804 28.1958 7.11593 28.1177C7.25116 27.7395 7.37819 27.3584 7.51296 26.9801C7.52819 26.9372 7.57436 26.9051 7.60624 26.8683L7.60882 27.7214L7.32335 28.4536L6.99288 28.3376Z" fill="#DBDAC7"/>
<path fill-rule="evenodd" clip-rule="evenodd" d="M7.32335 28.4536L7.60882 27.7214L7.66765 28.5879L7.32335 28.4536Z" fill="#EBE9DC"/>
<path fill-rule="evenodd" clip-rule="evenodd" d="M7.81179 25.2856C7.76585 25.087 7.84179 24.93 7.97936 24.7941L8.05835 24.848L7.81179 25.2856Z" fill="#CECDB7"/>
<path fill-rule="evenodd" clip-rule="evenodd" d="M7.07374 21.5998L7.05851 21.5972L7.04351 21.5998L7.07913 21.4683L7.07374 21.5998Z" fill="#4FAA41"/>
</g>
</svg>
