<svg width="30" height="29" viewBox="0 0 30 29" fill="none" xmlns="http://www.w3.org/2000/svg">
<path id="mysql-icon" d="M29.2011 28.2405L28.588 27.6459C28.007 26.8744 27.2595 26.1966 26.4751 25.6338C25.8495 25.1848 24.4452 24.5782 24.1841 23.8505L24.136 23.8048C24.5797 23.7546 25.0977 23.5943 25.5071 23.4844C26.1948 23.3002 26.7624 23.3477 27.4726 23.1645C27.7927 23.073 28.152 22.9814 28.3864 22.89V22.7072C28.152 22.339 27.8176 21.8515 27.4262 21.5182C26.4022 20.6463 25.3072 19.7752 24.1564 19.0486C23.5182 18.6459 22.7406 18.3841 22.0644 18.0427C21.8368 17.9276 21.4428 17.8678 21.2924 17.6766C20.9368 17.2238 20.7467 16.6495 20.4725 16.122C19.8985 15.0164 19.336 13.8091 18.8274 12.6459C18.4806 11.8528 18.2548 11.0709 17.8222 10.3594C15.7456 6.94524 13.5109 4.88484 10.0487 2.85938C9.31157 2.42859 8.42469 2.25867 7.48719 2.03602C6.98469 2.00578 6.48149 1.97508 5.97852 1.94438C5.67125 1.81641 5.3518 1.4407 5.06399 1.25836C3.91649 0.533673 0.974379 -1.0425 0.12477 1.02984C-0.411715 2.33789 0.926332 3.61383 1.40493 4.27688C1.74125 4.74141 2.17133 5.26289 2.4111 5.78578C2.5693 6.12961 2.59625 6.47438 2.73149 6.83789C3.06383 7.73367 3.35282 8.7082 3.78313 9.53578C4.0004 9.95485 4.23993 10.3959 4.51485 10.7705C4.68313 11.0004 4.97188 11.1016 5.01758 11.4565C4.7354 11.8516 4.71922 12.4652 4.56055 12.9659C3.84571 15.2194 4.11571 18.0206 5.15516 19.6884C5.47391 20.2008 6.22532 21.2988 7.25868 20.8774C8.16243 20.5095 8.01477 19.3685 8.27329 18.3621C8.33165 18.1343 8.22993 17.9665 8.4643 17.8134V17.8591C8.70411 18.4155 8.96063 18.9645 9.23352 19.5054C9.8429 20.4867 10.8481 21.5121 11.7643 22.204C12.2394 22.5628 12.6831 23.183 13.1518 23.393V23.3693H13.2036C13.0848 23.1349 12.8984 23.0958 12.7466 22.9465C12.3887 22.5959 11.9905 22.1538 11.6949 21.7519C10.8615 20.6206 10.1251 19.3795 9.45407 18.0905C9.13344 17.475 8.85477 16.7946 8.58477 16.1684C8.48094 15.927 8.48212 15.5609 8.26508 15.4359C7.96907 15.8948 7.53336 16.2656 7.30438 16.8077C6.93852 17.674 6.89141 18.7305 6.75571 19.8258C6.67532 19.8544 6.71118 19.8347 6.66407 19.8713C6.02704 19.7177 5.80344 19.0622 5.56649 18.4995C4.96766 17.0768 4.85657 14.7863 5.38344 13.1489C5.51985 12.7249 6.13602 11.3909 5.88641 10.9992C5.76735 10.609 5.37454 10.3828 5.15493 10.0845C4.88282 9.71555 4.61141 9.22992 4.42297 8.80383C3.9329 7.695 3.70438 6.44977 3.18829 5.32852C2.94149 4.7925 2.52454 4.24992 2.18211 3.77367C1.80313 3.24563 1.37844 2.8568 1.0843 2.21859C0.980004 1.99172 0.837973 1.62844 0.992895 1.39524C1.04211 1.23797 1.11172 1.17234 1.26735 1.12102C1.5329 0.916407 2.27118 1.18899 2.54774 1.30359C3.2811 1.60828 3.89329 1.88953 4.51461 2.30109C4.8125 2.49891 5.11438 2.74406 5.47485 2.97844H5.88641C6.53024 2.97844 7.25141 3.03281 7.85305 3.21563C8.91594 3.53883 9.86868 4.04578 10.734 4.59211C13.3698 6.25664 15.5249 8.62805 16.9993 11.4541C17.2365 11.9093 17.3391 12.3445 17.548 12.8271C17.9694 13.8005 18.5005 14.8024 18.9198 15.7542C19.3384 16.7041 19.7462 17.6625 20.3377 18.4528C20.6488 18.8681 21.8497 19.0913 22.3956 19.3221C22.7783 19.4836 23.4052 19.6523 23.7676 19.8706C24.4597 20.2882 25.1302 20.7856 25.7799 21.2428C26.1043 21.4711 27.1018 21.9727 27.1517 22.3861C25.5432 22.342 24.3149 22.492 23.2646 22.9348C22.9663 23.0606 22.49 23.0641 22.4413 23.438C22.6053 23.6098 22.6309 23.8666 22.7612 24.0781C23.0117 24.4835 23.4352 25.0277 23.8131 25.3127C24.226 25.6245 24.6512 25.9575 25.0937 26.2273C25.8809 26.707 26.7594 26.9813 27.5174 27.462C27.9641 27.7455 28.445 28.1025 28.8802 28.4222C29.0959 28.5804 29.0891 28.8263 29.5578 28.9254V28.8799C29.3237 28.6936 29.3361 28.4363 29.2011 28.2405ZM6.70977 4.96289C6.37438 4.95656 6.12055 4.99969 5.88618 5.05406V5.08828H5.93258C6.09266 5.32266 6.37508 5.63438 6.57266 5.9175L7.03016 6.88031L7.0754 6.83649C7.35875 6.63656 7.4886 6.31828 7.48696 5.83078C7.37376 5.71149 7.35665 5.56219 7.25868 5.41969C7.1279 5.23008 6.87454 5.1225 6.70977 4.96289Z" fill="#007ACC"/>
</svg>
