<svg width="31" height="30" viewBox="0 0 31 30" fill="none" xmlns="http://www.w3.org/2000/svg">
<path id="nestjs-icon" d="M17.6953 0C17.4844 0 17.2734 0.046875 17.0859 0.117188C17.4844 0.375 17.6953 0.726562 17.8125 1.125C17.8125 1.17187 17.8359 1.21875 17.8359 1.26562C17.8359 1.3125 17.8594 1.35938 17.8594 1.40625C17.8828 2.08594 17.6719 2.17969 17.5313 2.57812C17.2969 3.09375 17.3672 3.65625 17.6484 4.10156C17.6719 4.14844 17.6953 4.21875 17.7422 4.26562C17.4375 2.29688 19.0781 2.01562 19.3828 1.40625C19.4063 0.867188 18.9609 0.515625 18.6094 0.257812C18.2578 0.046875 17.9766 0 17.6953 0ZM20.1563 0.421875C20.1328 0.609375 20.1563 0.5625 20.1328 0.65625C20.1328 0.726562 20.1328 0.796875 20.1094 0.867188C20.0859 0.9375 20.0859 0.984375 20.0625 1.05469C20.0391 1.125 20.0156 1.17187 19.9922 1.24219C19.9688 1.28906 19.9453 1.33594 19.9219 1.40625C19.8984 1.42969 19.875 1.47656 19.8516 1.5C19.8281 1.52344 19.8281 1.54688 19.8047 1.57031C19.7578 1.61719 19.7344 1.6875 19.6875 1.73437L19.5469 1.875C19.5 1.92188 19.4531 1.96875 19.4063 1.99219C19.2422 2.10938 19.0547 2.20312 18.8906 2.32031C18.8438 2.36719 18.7734 2.39062 18.7266 2.4375C18.6797 2.48438 18.6328 2.50781 18.5859 2.55469L18.4453 2.69531C18.3984 2.74219 18.3516 2.78906 18.3281 2.85938C18.2813 2.90625 18.2578 2.97656 18.2109 3.02344C18.1875 3.09375 18.1641 3.14062 18.1172 3.21094C18.0938 3.28125 18.0703 3.32812 18.0469 3.39844C18.0234 3.46875 18 3.53906 18 3.58594C18 3.60938 18 3.65625 17.9766 3.67969C17.9766 3.70312 17.9766 3.75 17.9531 3.77344V4.10156C17.9531 4.17188 17.9531 4.21875 17.9766 4.28906C17.9766 4.35938 18 4.40625 18.0234 4.47656C18.0469 4.54688 18.0703 4.59375 18.0938 4.66406C18.1172 4.71094 18.1406 4.73438 18.1406 4.78125L16.3594 4.10156C16.0547 4.00781 15.7734 3.9375 15.4688 3.86719C15.3047 3.82031 15.1406 3.79687 14.9766 3.75C14.5078 3.65625 14.0391 3.58594 13.5703 3.53906H13.5234C13.0547 3.49219 12.6094 3.46875 12.1406 3.46875C11.7891 3.46875 11.4609 3.49219 11.1328 3.51562C10.6641 3.53906 10.1953 3.60938 9.72656 3.67969L9.375 3.75C9.14063 3.79687 8.90625 3.84375 8.67188 3.91406C8.55469 3.9375 8.4375 3.98438 8.32031 4.00781C8.20313 4.05469 8.08594 4.10156 7.99219 4.14844C7.89844 4.19531 7.82813 4.21875 7.73438 4.26562C7.71094 4.26562 7.71094 4.26563 7.6875 4.28906C7.61719 4.33594 7.54688 4.35938 7.47656 4.40625C7.45313 4.40625 7.42969 4.42969 7.42969 4.42969C7.33594 4.47656 7.26563 4.52344 7.19531 4.54688C7.14844 4.57031 7.07813 4.59375 7.03125 4.61719C7.00781 4.64062 6.98438 4.64063 6.96094 4.66406C6.89063 4.71094 6.82031 4.73438 6.75 4.78125C6.67969 4.82813 6.60938 4.85156 6.5625 4.89844C6.51563 4.94531 6.44531 4.96875 6.39844 5.01563C6.39844 5.01563 6.375 5.01562 6.375 5.03906C6.32813 5.0625 6.28125 5.10938 6.23438 5.15625L6.21094 5.17969C6.16406 5.20312 6.14063 5.25 6.09375 5.27344C6.07031 5.27344 6.07031 5.29688 6.04688 5.29688C6 5.32031 5.97656 5.36719 5.92969 5.39062C5.92969 5.41406 5.90625 5.41406 5.90625 5.41406L5.60156 5.71875C5.60156 5.71875 5.60156 5.74219 5.57813 5.74219L5.46094 5.85938C5.4375 5.88281 5.41406 5.88281 5.41406 5.90625L5.27344 6.04688C5.27344 6.07031 5.25 6.07031 5.25 6.09375L5.03906 6.30469C4.92188 6.44531 4.78125 6.5625 4.64063 6.67969C4.5 6.79688 4.35938 6.91406 4.19531 7.03125C4.03125 7.14844 3.89063 7.24219 3.72656 7.33594C3.5625 7.42969 3.39844 7.5 3.23438 7.57031C3.07031 7.64062 2.90625 7.71094 2.74219 7.75781C2.41406 7.82813 2.08594 7.96875 1.80469 7.99219C1.80469 7.875 1.73438 7.89844 1.66406 7.89844C1.59375 7.92188 1.52344 7.92188 1.47656 7.94531C1.40625 7.96875 1.35938 7.99219 1.28906 8.01562C1.21875 8.03906 1.17188 8.0625 1.10156 8.10938C1.05469 8.15625 0.984375 8.17969 0.9375 8.22656C0.890625 8.27344 0.820313 8.32031 0.773438 8.36719C0.726563 8.41406 0.65625 8.46094 0.609375 8.50781C0.5625 8.55469 0.515625 8.60156 0.46875 8.67188C0.421875 8.74219 0.375 8.78906 0.351563 8.85938C0.304688 8.90625 0.28125 8.97656 0.234375 9.04688C0.210938 9.11719 0.164063 9.1875 0.140625 9.25781L0.0703125 9.46875C0.046875 9.53906 0.046875 9.58594 0.0234375 9.65625V9.67969C0 9.75 0 9.84375 0 9.89062C0.0234375 9.86719 0.0234375 9.91406 0.0234375 9.96094V10.0547C0.0234375 10.1016 0.046875 10.1484 0.046875 10.1953C0.0703125 10.2422 0.0703125 10.2891 0.09375 10.3359C0.117188 10.3828 0.140625 10.4297 0.1875 10.4766C0.210938 10.5234 0.257813 10.5703 0.28125 10.6172C0.328125 10.6641 0.375 10.7109 0.421875 10.7344C0.46875 10.7812 0.515625 10.8281 0.5625 10.8516C0.75 11.0156 0.796875 11.0625 1.03125 11.2031C1.07813 11.2266 1.10156 11.25 1.14844 11.2734H1.17188V11.3203C1.17188 11.3906 1.19531 11.4375 1.21875 11.5078C1.24219 11.5781 1.26563 11.6484 1.28906 11.6953L1.35938 11.8359C1.35938 11.8594 1.38281 11.8594 1.38281 11.8828C1.40625 11.9531 1.45313 12 1.47656 12.0469C1.52344 12.0938 1.54688 12.1641 1.59375 12.2109L1.875 12.4922H1.89844C1.94531 12.5391 1.99219 12.5625 2.03906 12.6094C2.08594 12.6562 2.15625 12.6797 2.20313 12.7031C2.25 12.7266 2.32031 12.7734 2.39063 12.7969C2.4375 12.8203 2.48438 12.8438 2.55469 12.8438C2.55469 12.8438 2.57813 12.8438 2.57813 12.8672C2.60156 12.8672 2.64844 12.8906 2.67188 12.8906C2.64844 13.3125 2.64844 13.7109 2.69531 13.8516C2.76563 14.0156 3.11719 13.5234 3.44531 12.9844C3.39844 13.5234 3.375 14.1562 3.44531 14.3438C3.53906 14.5312 3.98438 13.9219 4.40625 13.2656C9.89063 12 14.9063 15.7969 15.4453 21.1641C15.3516 20.3203 14.3203 19.8516 13.8281 19.9688C13.5938 20.5312 13.1953 21.2812 12.5625 21.7266C12.6094 21.2109 12.5859 20.6953 12.4922 20.1797C12.3281 20.8828 12 21.5625 11.5313 22.125C10.8047 22.1719 10.0547 21.8203 9.67969 21.2812C9.65625 21.2578 9.63281 21.2109 9.60938 21.1875C9.58594 21.1406 9.5625 21.0703 9.53906 21.0234C9.51563 20.9766 9.49219 20.9062 9.49219 20.8594V20.5781C9.49219 20.5312 9.51563 20.4609 9.53906 20.4141C9.5625 20.3672 9.5625 20.2969 9.58594 20.25C9.60938 20.2031 9.63281 20.1328 9.67969 20.0859C9.82031 19.7109 9.82031 19.4062 9.5625 19.2422L9.42188 19.1719C9.39844 19.1719 9.35156 19.1484 9.32813 19.1484C9.30469 19.1484 9.28125 19.125 9.25781 19.125C9.21094 19.1016 9.14063 19.1016 9.09375 19.0781C9.04688 19.0547 8.97656 19.0547 8.92969 19.0547C8.88281 19.0547 8.8125 19.0312 8.76563 19.0312H8.64844C8.57813 19.0312 8.53125 19.0312 8.48438 19.0547C8.4375 19.0547 8.36719 19.0781 8.32031 19.0781C8.27344 19.1016 8.20313 19.1016 8.15625 19.125C8.10938 19.1484 8.0625 19.1719 7.99219 19.1953L7.85156 19.2656C6.04688 20.4375 7.125 23.2031 8.34375 24C7.875 24.0937 7.40625 24.1875 7.26563 24.2812L7.24219 24.3047C7.57031 24.5156 7.92188 24.6797 8.29688 24.8203C8.78906 24.9844 9.32813 25.125 9.5625 25.1953C10.1953 25.3359 10.8516 25.3828 11.5078 25.3359C14.9297 25.1016 17.7422 22.4766 18.2578 19.0547C18.2813 19.125 18.2813 19.1953 18.3047 19.2656C18.3281 19.4062 18.3516 19.5469 18.375 19.7109C18.3984 19.7812 18.3984 19.8516 18.3984 19.9219V19.9453C18.3984 20.0156 18.4219 20.0859 18.4219 20.1562C18.4219 20.25 18.4453 20.3203 18.4453 20.4141V21.3984C18.4453 21.4687 18.4219 21.5156 18.4219 21.5859V21.6562C18.4219 21.7266 18.3984 21.7969 18.3984 21.8906C18.375 21.9609 18.375 22.0312 18.3516 22.1016V22.125C18.3281 22.1953 18.3281 22.2656 18.3047 22.3359V22.3594C18.2813 22.4297 18.2813 22.5 18.2578 22.5703V22.5937L18.1875 22.8047V22.8281C18.1641 22.8984 18.1406 22.9922 18.1172 23.0625C18.0938 23.1328 18.0703 23.2031 18.0234 23.2969C18 23.3672 17.9766 23.4609 17.9297 23.5312C17.9063 23.6016 17.8594 23.6719 17.8359 23.7656C17.8125 23.8359 17.7656 23.9062 17.7422 23.9766C17.7422 24 17.7188 24.0234 17.7188 24.0234C17.7188 24.0234 17.7188 24.0469 17.6953 24.0469C17.2031 25.0547 16.4531 25.9453 15.5156 26.6484C15.4453 26.6953 15.3984 26.7422 15.3281 26.7891C15.3047 26.8125 15.2813 26.8125 15.2813 26.8359C15.2344 26.8828 15.1641 26.9062 15.1172 26.9531L15.1406 27C15.2578 26.9766 15.3516 26.9766 15.4688 26.9531C15.6797 26.9297 15.8672 26.8828 16.0781 26.8359C16.125 26.8359 16.1953 26.8125 16.2422 26.7891C16.2891 26.7891 16.3125 26.7656 16.3594 26.7656C16.4063 26.7656 16.4766 26.7422 16.5234 26.7422C16.5703 26.7188 16.6172 26.7187 16.6641 26.6953C17.4375 26.5078 18.1875 26.25 18.9141 25.9453C17.6719 27.6328 16.0313 28.9922 14.1094 29.8828C15 29.8125 15.8906 29.6719 16.7578 29.4141C19.875 28.5 22.5 26.3906 24.0703 23.5547C23.7422 25.3359 23.0391 27.0469 21.9844 28.5469C22.7344 28.0547 23.4141 27.4688 24.0469 26.8359C25.7813 25.0312 26.9297 22.7109 27.3047 20.25C27.5625 21.4687 27.6563 22.7344 27.5391 23.9766C33.1406 16.1719 28.0078 8.08594 25.8516 5.95313C25.8516 5.92969 25.8281 5.92969 25.8281 5.90625C25.8281 6 25.8281 6.09375 25.8047 6.1875C25.7813 6.375 25.7578 6.53906 25.7344 6.70312C25.6875 6.86719 25.6406 7.05469 25.5938 7.21875C25.5469 7.38281 25.4766 7.54688 25.4063 7.71094C25.3359 7.875 25.2656 8.03906 25.1719 8.17969C25.0781 8.32031 24.9844 8.48438 24.8906 8.625C24.7969 8.76562 24.6797 8.90625 24.5625 9.04688C24.4453 9.1875 24.3281 9.30469 24.1875 9.44531C24.1172 9.51562 24.0469 9.58594 23.9531 9.63281C23.8828 9.67969 23.8359 9.72656 23.7656 9.79688C23.625 9.91406 23.4844 10.0078 23.3203 10.1016C23.1797 10.1953 23.0156 10.2891 22.8516 10.3594L22.3594 10.5703C22.1953 10.6406 22.0313 10.6875 21.8672 10.7344C21.7031 10.7812 21.5156 10.8281 21.3516 10.8516C21.1641 10.875 21 10.8984 20.8359 10.9219C20.7188 10.9219 20.5781 10.9453 20.4609 10.9453C20.2734 10.9453 20.1094 10.9219 19.9453 10.9219C19.7578 10.8984 19.5938 10.875 19.4297 10.8516C19.2422 10.8281 19.0781 10.7812 18.9141 10.7109C19.0781 10.6875 19.2656 10.6875 19.4297 10.6406C19.6172 10.6172 19.7813 10.5703 19.9453 10.5234C20.1094 10.4766 20.2969 10.4297 20.4375 10.3594L20.9297 10.1484C21.0938 10.0781 21.2344 9.98438 21.3984 9.89062C21.5391 9.79688 21.7031 9.67969 21.8438 9.58594C21.9844 9.46875 22.125 9.35156 22.2422 9.23438C22.3828 9.11719 22.5 8.97656 22.6172 8.85938C22.7344 8.71875 22.8516 8.57812 22.9453 8.4375C22.9688 8.41406 22.9688 8.39062 22.9922 8.36719C23.0625 8.25 23.1563 8.10938 23.2266 7.99219C23.3203 7.82813 23.3906 7.6875 23.4609 7.52344C23.5313 7.35938 23.6016 7.19531 23.6484 7.03125L23.7891 6.53906C23.8125 6.35156 23.8594 6.1875 23.8594 6.02344C23.8828 5.83594 23.8828 5.67188 23.8828 5.50781C23.8828 5.39062 23.8828 5.25 23.8594 5.13281C23.8359 4.94531 23.8125 4.78125 23.7891 4.61719C23.7656 4.42969 23.7188 4.26562 23.6719 4.10156C23.625 3.9375 23.5547 3.77344 23.5078 3.60938C23.4375 3.44531 23.3672 3.28125 23.2969 3.14062C23.2031 2.97656 23.1328 2.83594 23.0391 2.67188C22.9453 2.53125 22.8281 2.39062 22.7344 2.25C22.6172 2.10937 22.5 1.99219 22.3828 1.85156C22.3125 1.78125 22.2422 1.71094 22.1719 1.66406C21.8203 1.38281 21.4688 1.14844 21.0938 0.914062C21.0469 0.890625 21 0.867188 20.9297 0.84375C20.625 0.585938 20.3906 0.515625 20.1563 0.421875Z" fill="#FF4154"/>
</svg>
