<svg width="30" height="7" viewBox="0 0 30 7" fill="none" xmlns="http://www.w3.org/2000/svg">
<g id="nextjs-icon">
<path d="M19.9431 0.00251819H25.1686V0.967005H23.0957V6.04104H22.0591V0.967005H19.9431V0.00251819Z" fill="white"/>
<path d="M11.3491 0.00251819V0.967005H7.16057V2.51857H10.529V3.48305H7.16057V5.07656H11.3491V6.04104H6.12411L6.12368 0.00251819H11.3491Z" fill="white"/>
<path d="M13.9584 0.0050367H12.602L17.4603 6.04356H18.8207L16.3912 3.02638L18.8168 0.00964371L17.4603 0.0117399L15.7121 2.18297L13.9584 0.0050367Z" fill="white"/>
<path d="M15.3503 4.31839L14.671 3.47382L12.5981 6.04817H13.9584L15.3503 4.31839Z" fill="white"/>
<path fill-rule="evenodd" clip-rule="evenodd" d="M6.16043 6.04104L1.29557 0H0V6.03852H1.03645V1.29073L4.85838 6.04104H6.16043Z" fill="white"/>
<path d="M25.4015 6.00416C25.3256 6.00416 25.2611 5.97787 25.207 5.92527C25.1529 5.87268 25.1262 5.80901 25.1269 5.73359C25.1262 5.66023 25.1529 5.59725 25.207 5.54466C25.2611 5.49207 25.3256 5.46577 25.4015 5.46577C25.4746 5.46577 25.5385 5.49207 25.5925 5.54466C25.6473 5.59725 25.6747 5.66023 25.6754 5.73359C25.6747 5.78341 25.662 5.82908 25.6368 5.8699C25.6108 5.91143 25.5778 5.94396 25.5363 5.96749C25.4956 5.99171 25.4507 6.00416 25.4015 6.00416Z" fill="white"/>
<path d="M27.1706 3.4603H27.6299V5.22979C27.6292 5.39242 27.594 5.53151 27.5252 5.64847C27.4557 5.76541 27.3595 5.85467 27.2359 5.91765C27.113 5.97993 26.969 6.01177 26.8054 6.01177C26.6558 6.01177 26.5217 5.98478 26.4023 5.93219C26.2829 5.8796 26.1881 5.80071 26.1186 5.6969C26.0483 5.5931 26.0139 5.46369 26.0139 5.30868H26.4739C26.4746 5.3765 26.4901 5.43531 26.5195 5.48445C26.549 5.53358 26.5897 5.57095 26.6418 5.59725C26.6944 5.62355 26.7548 5.6367 26.8229 5.6367C26.8967 5.6367 26.9599 5.62147 27.0111 5.59032C27.0624 5.55988 27.1017 5.51421 27.1291 5.45331C27.1558 5.39311 27.1699 5.31837 27.1706 5.22979V3.4603Z" fill="white"/>
<path d="M29.5196 4.15232C29.5084 4.04506 29.4592 3.96133 29.3736 3.90181C29.2872 3.84161 29.1755 3.81185 29.0386 3.81185C28.9424 3.81185 28.8595 3.82639 28.7907 3.85476C28.7219 3.88382 28.6685 3.92257 28.632 3.9717C28.5955 4.02084 28.5772 4.07689 28.5758 4.13987C28.5758 4.19246 28.5884 4.23813 28.613 4.2762C28.6376 4.31494 28.6706 4.34747 28.7134 4.37377C28.7555 4.40076 28.8026 4.4229 28.8539 4.44089C28.9058 4.45888 28.9578 4.47411 29.0098 4.48657L29.2492 4.54539C29.3455 4.56753 29.4389 4.59729 29.5281 4.63535C29.6172 4.67272 29.698 4.72047 29.7689 4.7779C29.8399 4.83535 29.8961 4.90454 29.9375 4.98551C29.9789 5.06647 30 5.16128 30 5.27062C30 5.41802 29.9621 5.54743 29.8855 5.65953C29.809 5.77094 29.6987 5.85814 29.554 5.92112C29.4101 5.9834 29.2359 6.01523 29.0309 6.01523C28.8328 6.01523 28.6601 5.98479 28.5147 5.92389C28.3687 5.86368 28.2548 5.7751 28.1727 5.65884C28.0905 5.54258 28.0463 5.40072 28.0399 5.23394H28.4951C28.5014 5.32113 28.5295 5.3938 28.5772 5.45262C28.6256 5.51075 28.6888 5.55365 28.7661 5.58272C28.8441 5.61109 28.9311 5.62562 29.0274 5.62562C29.1278 5.62562 29.2163 5.6104 29.2928 5.58064C29.3686 5.55088 29.4283 5.50937 29.4712 5.45539C29.5147 5.4021 29.5365 5.33913 29.5372 5.26716C29.5365 5.20142 29.5168 5.14674 29.4789 5.10384C29.4403 5.06094 29.3869 5.02495 29.3188 4.99589C29.25 4.96683 29.1699 4.94053 29.0786 4.91769L28.7879 4.84434C28.5779 4.79105 28.4114 4.71009 28.2899 4.60144C28.1678 4.4928 28.1073 4.34886 28.1073 4.16824C28.1073 4.02015 28.1481 3.89006 28.2303 3.77864C28.3117 3.66723 28.4234 3.58072 28.5646 3.51913C28.7064 3.45685 28.8665 3.4264 29.0449 3.4264C29.2261 3.4264 29.3848 3.45685 29.5218 3.51913C29.6587 3.58072 29.7662 3.66653 29.8441 3.77587C29.922 3.88521 29.9628 4.01046 29.9649 4.15232H29.5196Z" fill="white"/>
</g>
</svg>
