<svg width="29" height="30" viewBox="0 0 29 30" fill="none" xmlns="http://www.w3.org/2000/svg">
<g id="nodejs-icon">
<path d="M13.1116 0.320058C13.8992 -0.105724 14.925 -0.107647 15.7119 0.320058C19.6708 2.43283 23.631 4.54229 27.5892 6.65635C28.3337 7.05243 28.8317 7.83497 28.8241 8.64518V21.3564C28.8296 22.2002 28.2825 23.0014 27.497 23.3885C23.5511 25.4897 19.6073 27.5934 15.662 29.6945C14.8582 30.1286 13.8117 30.0952 13.033 29.6255C11.85 28.9778 10.665 28.3333 9.48189 27.6862C9.24013 27.5501 8.96761 27.4418 8.7969 27.2204C8.94781 27.0283 9.21762 27.0043 9.43686 26.9205C9.93066 26.7721 10.3842 26.5341 10.8378 26.3031C10.9525 26.2289 11.0926 26.2574 11.2026 26.3237C12.2141 26.8715 13.2168 27.4352 14.2318 27.9778C14.4483 28.0959 14.6675 27.9391 14.8526 27.8417C18.7248 25.7747 22.6016 23.7156 26.4731 21.648C26.6165 21.5828 26.6958 21.439 26.6842 21.2906C26.6869 17.0975 26.6849 12.9035 26.6855 8.71036C26.7019 8.54197 26.5988 8.38715 26.4376 8.31823C22.5054 6.22672 18.5752 4.132 14.6437 2.03996C14.5756 1.99573 14.4949 1.972 14.4122 1.97188C14.3295 1.97177 14.2488 1.99528 14.1805 2.03932C10.249 4.132 6.31952 6.22864 2.38799 8.32005C2.22735 8.38907 2.11954 8.54133 2.13866 8.71036C2.13934 12.9035 2.13866 17.0975 2.13866 21.2913C2.13184 21.3637 2.14868 21.4363 2.18691 21.4994C2.22514 21.5625 2.28292 21.613 2.35247 21.6442C3.40162 22.2061 4.45212 22.764 5.50195 23.324C6.09338 23.6247 6.81954 23.8033 7.47116 23.573C8.04618 23.3782 8.44926 22.824 8.43828 22.2473C8.44371 18.0786 8.43557 13.9093 8.44236 9.74121C8.42799 9.55615 8.61386 9.40325 8.80437 9.42067C9.30846 9.41747 9.81324 9.41426 10.3173 9.42195C10.5278 9.41746 10.6726 9.61673 10.6465 9.80318C10.6445 13.9983 10.652 18.1935 10.6431 22.3886C10.6445 23.5066 10.1582 24.7232 9.0632 25.2702C7.71427 25.9302 6.04699 25.7902 4.71435 25.1574C3.56068 24.6135 2.45972 23.9717 1.32652 23.3891C0.539037 23.0041 -0.00544588 22.1997 9.73689e-05 21.3566V8.64518C-0.00816095 7.81819 0.509624 7.02144 1.27731 6.63113C5.22252 4.5283 9.16705 2.42386 13.1116 0.320058Z" fill="#8CC84B"/>
<path d="M16.5534 9.12522C18.274 9.02062 20.1161 9.06325 21.6645 9.86385C22.8633 10.4774 23.5279 11.765 23.5491 13.0229C23.5156 13.1925 23.3278 13.2861 23.1563 13.2745C22.6571 13.2738 22.1577 13.2809 21.6585 13.2713C21.4467 13.279 21.3236 13.0946 21.297 12.9177C21.1536 12.3159 20.8061 11.7198 20.2063 11.4295C19.2855 10.9941 18.2179 11.016 17.2139 11.0251C16.481 11.0618 15.6928 11.1217 15.0719 11.5288C14.5951 11.8372 14.4503 12.4597 14.6205 12.961C14.7809 13.321 15.2208 13.4371 15.5808 13.5442C17.6544 14.0564 19.8518 14.0054 21.8859 14.6795C22.728 14.9543 23.5518 15.4885 23.84 16.3213C24.2171 17.4374 24.0518 18.7715 23.211 19.6675C22.5292 20.4049 21.5362 20.8062 20.5458 21.0241C19.2282 21.3016 17.8608 21.3087 16.5227 21.1855C15.2645 21.05 13.9552 20.7378 12.9839 19.9281C12.1533 19.247 11.7476 18.1857 11.7879 17.1613C11.7975 16.9883 11.9799 16.8677 12.1553 16.8819C12.6581 16.8781 13.1608 16.8768 13.6635 16.8826C13.8643 16.869 14.0132 17.0329 14.0235 17.2117C14.1163 17.7851 14.3444 18.387 14.8739 18.7269C15.8957 19.3495 17.1777 19.3069 18.3477 19.3243C19.317 19.2837 20.405 19.2714 21.196 18.6664C21.6133 18.3212 21.737 17.7439 21.6242 17.2471C21.502 16.8278 21.0375 16.6323 20.6386 16.5045C18.5916 15.893 16.3697 16.1149 14.3424 15.4233C13.5194 15.1486 12.7236 14.6292 12.4074 13.8306C11.9662 12.7004 12.1683 11.3024 13.0972 10.4367C14.0029 9.57547 15.3103 9.24393 16.5534 9.12522Z" fill="#8CC84B"/>
</g>
</svg>
