<svg width="30" height="30" viewBox="0 0 30 30" fill="none" xmlns="http://www.w3.org/2000/svg">
<g id="prettier-icon" opacity="0.5">
<path d="M22.1428 5.71428H23.5714C23.9714 5.71428 24.2857 6.02856 24.2857 6.42856C24.2857 6.82856 23.9714 7.14284 23.5714 7.14284H22.1428C21.7428 7.14284 21.4286 6.82856 21.4286 6.42856C21.4286 6.02856 21.7428 5.71428 22.1428 5.71428Z" fill="#56B3B4"/>
<path d="M0.714284 28.5714H7.85713C8.25713 28.5714 8.57141 28.8857 8.57141 29.2857C8.57141 29.6857 8.25713 30 7.85713 30H0.714284C0.314285 30 0 29.6857 0 29.2857C0 28.8857 0.314285 28.5714 0.714284 28.5714Z" fill="#EA5E5E"/>
<path d="M17.8571 17.1429H22.1428C22.5428 17.1429 22.8571 17.4571 22.8571 17.8571C22.8571 18.2571 22.5428 18.5714 22.1428 18.5714H17.8571C17.4572 18.5714 17.1429 18.2571 17.1429 17.8571C17.1429 17.4571 17.4572 17.1429 17.8571 17.1429Z" fill="#BF85BF"/>
<path d="M9.28572 17.1429H15C15.4 17.1429 15.7143 17.4571 15.7143 17.8571C15.7143 18.2571 15.4 18.5714 15 18.5714H9.28572C8.88572 18.5714 8.57143 18.2571 8.57143 17.8571C8.57143 17.4571 8.88572 17.1429 9.28572 17.1429Z" fill="#EA5E5E"/>
<path d="M0.714286 17.1429H6.42857C6.82857 17.1429 7.14286 17.4571 7.14286 17.8571C7.14286 18.2571 6.82857 18.5714 6.42857 18.5714H0.714286C0.314286 18.5714 0 18.2571 0 17.8571C0 17.4571 0.314286 17.1429 0.714286 17.1429Z" fill="#56B3B4"/>
<path d="M0.714284 22.8571H7.85713C8.25713 22.8571 8.57141 23.1714 8.57141 23.5714C8.57141 23.9714 8.25713 24.2857 7.85713 24.2857H0.714284C0.314285 24.2857 0 23.9714 0 23.5714C0 23.1714 0.314285 22.8571 0.714284 22.8571Z" fill="#BF85BF"/>
<path d="M0.714284 11.4286H7.85713C8.25713 11.4286 8.57141 11.7428 8.57141 12.1429C8.57141 12.5429 8.25713 12.8571 7.85713 12.8571H0.714284C0.314285 12.8571 0 12.5429 0 12.1429C0 11.7428 0.314285 11.4286 0.714284 11.4286Z" fill="#BF85BF"/>
<path d="M7.85713 2.85714H22.1428C22.5428 2.85714 22.8571 3.17143 22.8571 3.57143C22.8571 3.97143 22.5428 4.28572 22.1428 4.28572H7.85713C7.45713 4.28572 7.14285 3.97143 7.14285 3.57143C7.14285 3.17143 7.45713 2.85714 7.85713 2.85714Z" fill="#F7BA3E"/>
<path d="M0.714285 2.85714H4.99999C5.39999 2.85714 5.71428 3.17143 5.71428 3.57143C5.71428 3.97143 5.39999 4.28572 4.99999 4.28572H0.714285C0.314285 4.28572 0 3.97143 0 3.57143C0 3.17143 0.314285 2.85714 0.714285 2.85714Z" fill="#EA5E5E"/>
<path d="M6.42857 25.7143H7.85715C8.25715 25.7143 8.57144 26.0285 8.57144 26.4285C8.57144 26.8285 8.25715 27.1428 7.85715 27.1428H6.42857C6.02857 27.1428 5.71428 26.8285 5.71428 26.4285C5.71428 26.0285 6.02857 25.7143 6.42857 25.7143Z" fill="#F7BA3E"/>
<path d="M6.42857 8.57145H7.85715C8.25715 8.57145 8.57144 8.88573 8.57144 9.28572C8.57144 9.68571 8.25715 9.99999 7.85715 9.99999H6.42857C6.02857 9.99999 5.71428 9.68571 5.71428 9.28572C5.71428 8.88573 6.02857 8.57145 6.42857 8.57145Z" fill="#56B3B4"/>
<path d="M0.714286 25.7143H3.57143C3.97143 25.7143 4.28572 26.0285 4.28572 26.4285C4.28572 26.8285 3.97143 27.1428 3.57143 27.1428H0.714286C0.314286 27.1428 0 26.8285 0 26.4285C0 26.0285 0.314286 25.7143 0.714286 25.7143Z" fill="#56B3B4"/>
<path d="M0.714286 8.57145H3.57143C3.97143 8.57145 4.28572 8.88573 4.28572 9.28572C4.28572 9.68571 3.97143 9.99999 3.57143 9.99999H0.714286C0.314286 9.99999 0 9.68571 0 9.28572C0 8.88573 0.314286 8.57145 0.714286 8.57145Z" fill="#F7BA3E"/>
<path d="M19.2857 25.7143H20.7143C21.1143 25.7143 21.4285 26.0285 21.4285 26.4285C21.4285 26.8285 21.1143 27.1428 20.7143 27.1428H19.2857C18.8857 27.1428 18.5715 26.8285 18.5715 26.4285C18.5715 26.0285 18.8857 25.7143 19.2857 25.7143Z" fill="#D0D4D8"/>
<path d="M10.7143 25.7143H16.4286C16.8286 25.7143 17.1429 26.0285 17.1429 26.4285C17.1429 26.8285 16.8286 27.1428 16.4286 27.1428H10.7143C10.3143 27.1428 9.99999 26.8285 9.99999 26.4285C9.99999 26.0285 10.3143 25.7143 10.7143 25.7143Z" fill="#D0D4D8"/>
<path d="M23.5714 25.7143H29.2857C29.6857 25.7143 30 26.0285 30 26.4285C30 26.8285 29.6857 27.1428 29.2857 27.1428H23.5714C23.1714 27.1428 22.8571 26.8285 22.8571 26.4285C22.8571 26.0285 23.1714 25.7143 23.5714 25.7143Z" fill="#D0D4D8"/>
<path d="M12.1428 14.2857H23.5714C23.9714 14.2857 24.2857 14.6 24.2857 15C24.2857 15.4 23.9714 15.7142 23.5714 15.7142H12.1428C11.7428 15.7142 11.4286 15.4 11.4286 15C11.4286 14.6 11.7428 14.2857 12.1428 14.2857Z" fill="#56B3B4"/>
<path d="M4.99999 14.2857H9.2857C9.6857 14.2857 9.99999 14.6 9.99999 15C9.99999 15.4 9.6857 15.7142 9.2857 15.7142H4.99999C4.59999 15.7142 4.28571 15.4 4.28571 15C4.28571 14.6 4.59999 14.2857 4.99999 14.2857Z" fill="#F7BA3E"/>
<path d="M0.714286 14.2857H2.14286C2.54286 14.2857 2.85714 14.6 2.85714 15C2.85714 15.4 2.54286 15.7142 2.14286 15.7142H0.714286C0.314286 15.7142 0 15.4 0 15C0 14.6 0.314286 14.2857 0.714286 14.2857Z" fill="#EA5E5E"/>
<path d="M13.5714 5.71428H19.2857C19.6857 5.71428 20 6.02856 20 6.42856C20 6.82856 19.6857 7.14284 19.2857 7.14284H13.5714C13.1714 7.14284 12.8571 6.82856 12.8571 6.42856C12.8571 6.02856 13.1714 5.71428 13.5714 5.71428Z" fill="#BF85BF"/>
<path d="M0.714284 5.71428H10.7143C11.1143 5.71428 11.4286 6.02856 11.4286 6.42856C11.4286 6.82856 11.1143 7.14284 10.7143 7.14284H0.714284C0.314285 7.14284 0 6.82856 0 6.42856C0 6.02856 0.314285 5.71428 0.714284 5.71428Z" fill="#56B3B4"/>
<path d="M5 20H17.8572C18.2572 20 18.5714 20.3143 18.5714 20.7143C18.5714 21.1143 18.2572 21.4285 17.8572 21.4285H5C4.59999 21.4285 4.28571 21.1143 4.28571 20.7143C4.28571 20.3143 4.59999 20 5 20Z" fill="#F7BA3E"/>
<path d="M0.714286 20H2.14286C2.54286 20 2.85714 20.3143 2.85714 20.7143C2.85714 21.1143 2.54286 21.4285 2.14286 21.4285H0.714286C0.314286 21.4285 0 21.1143 0 20.7143C0 20.3143 0.314286 20 0.714286 20Z" fill="#BF85BF"/>
<path d="M17.8572 8.57145H25C25.4 8.57145 25.7143 8.88573 25.7143 9.28572C25.7143 9.68571 25.4 9.99999 25 9.99999H17.8572C17.4572 9.99999 17.1429 9.68571 17.1429 9.28572C17.1429 8.88573 17.4572 8.57145 17.8572 8.57145Z" fill="#EA5E5E"/>
<path d="M17.8572 11.4286H25C25.4 11.4286 25.7143 11.7428 25.7143 12.1429C25.7143 12.5429 25.4 12.8571 25 12.8571H17.8572C17.4572 12.8571 17.1429 12.5429 17.1429 12.1429C17.1429 11.7428 17.4572 11.4286 17.8572 11.4286Z" fill="#F7BA3E"/>
<path d="M0.714285 0H17.8571C18.2571 0 18.5714 0.314285 18.5714 0.714285C18.5714 1.11428 18.2571 1.42857 17.8571 1.42857H0.714285C0.314286 1.42857 0 1.11428 0 0.714285C0 0.314285 0.314286 0 0.714285 0Z" fill="#56B3B4"/>
<path d="M20.7143 0H29.2857C29.6857 0 30 0.314285 30 0.714285C30 1.11428 29.6857 1.42857 29.2857 1.42857H20.7143C20.3143 1.42857 20 1.11428 20 0.714285C20 0.314285 20.3143 0 20.7143 0Z" fill="#D0D4D8"/>
<path d="M20.7143 20H23.5714C23.9714 20 24.2857 20.3143 24.2857 20.7143C24.2857 21.1143 23.9714 21.4285 23.5714 21.4285H20.7143C20.3143 21.4285 20 21.1143 20 20.7143C20 20.3143 20.3143 20 20.7143 20Z" fill="#D0D4D8"/>
<path d="M26.4286 20H29.2857C29.6857 20 30 20.3143 30 20.7143C30 21.1143 29.6857 21.4285 29.2857 21.4285H26.4286C26.0286 21.4285 25.7143 21.1143 25.7143 20.7143C25.7143 20.3143 26.0286 20 26.4286 20Z" fill="#D0D4D8"/>
<path d="M25 17.1429H29.2857C29.6857 17.1429 30 17.4571 30 17.8571C30 18.2571 29.6857 18.5714 29.2857 18.5714H25C24.6 18.5714 24.2857 18.2571 24.2857 17.8571C24.2857 17.4571 24.6 17.1429 25 17.1429Z" fill="#D0D4D8"/>
<path d="M25 2.85714H29.2857C29.6857 2.85714 30 3.17143 30 3.57143C30 3.97143 29.6857 4.28572 29.2857 4.28572H25C24.6 4.28572 24.2857 3.97143 24.2857 3.57143C24.2857 3.17143 24.6 2.85714 25 2.85714Z" fill="#D0D4D8"/>
<path d="M26.4286 14.2857H29.2857C29.6857 14.2857 30 14.6 30 15C30 15.4 29.6857 15.7142 29.2857 15.7142H26.4286C26.0286 15.7142 25.7143 15.4 25.7143 15C25.7143 14.6 26.0286 14.2857 26.4286 14.2857Z" fill="#D0D4D8"/>
<path d="M26.4286 5.71428H29.2857C29.6857 5.71428 30 6.02856 30 6.42856C30 6.82856 29.6857 7.14284 29.2857 7.14284H26.4286C26.0286 7.14284 25.7143 6.82856 25.7143 6.42856C25.7143 6.02856 26.0286 5.71428 26.4286 5.71428Z" fill="#D0D4D8"/>
<path d="M27.8571 8.57145H29.2857C29.6857 8.57145 30 8.88573 30 9.28572C30 9.68571 29.6857 9.99999 29.2857 9.99999H27.8571C27.4571 9.99999 27.1428 9.68571 27.1428 9.28572C27.1428 8.88573 27.4571 8.57145 27.8571 8.57145Z" fill="#D0D4D8"/>
<path d="M27.8571 11.4286H29.2857C29.6857 11.4286 30 11.7428 30 12.1429C30 12.5429 29.6857 12.8571 29.2857 12.8571H27.8571C27.4571 12.8571 27.1428 12.5429 27.1428 12.1429C27.1428 11.7428 27.4571 11.4286 27.8571 11.4286Z" fill="#D0D4D8"/>
<path d="M16.4286 22.8571H29.2857C29.6857 22.8571 30 23.1714 30 23.5714C30 23.9714 29.6857 24.2857 29.2857 24.2857H16.4286C16.0286 24.2857 15.7143 23.9714 15.7143 23.5714C15.7143 23.1714 16.0286 22.8571 16.4286 22.8571Z" fill="#D0D4D8"/>
<path d="M10.7143 22.8571H13.5714C13.9714 22.8571 14.2857 23.1714 14.2857 23.5714C14.2857 23.9714 13.9714 24.2857 13.5714 24.2857H10.7143C10.3143 24.2857 9.99999 23.9714 9.99999 23.5714C9.99999 23.1714 10.3143 22.8571 10.7143 22.8571Z" fill="#D0D4D8"/>
<path d="M22.1428 28.5714H29.2857C29.6857 28.5714 30 28.8857 30 29.2857C30 29.6857 29.6857 30 29.2857 30H22.1428C21.7428 30 21.4286 29.6857 21.4286 29.2857C21.4286 28.8857 21.7428 28.5714 22.1428 28.5714Z" fill="#D0D4D8"/>
<path d="M10.7143 28.5714H19.2857C19.6857 28.5714 20 28.8857 20 29.2857C20 29.6857 19.6857 30 19.2857 30H10.7143C10.3143 30 9.99999 29.6857 9.99999 29.2857C9.99999 28.8857 10.3143 28.5714 10.7143 28.5714Z" fill="#D0D4D8"/>
<path d="M10.7143 8.57145H15C15.4 8.57145 15.7143 8.88573 15.7143 9.28572C15.7143 9.68571 15.4 9.99999 15 9.99999H10.7143C10.3143 9.99999 9.99999 9.68571 9.99999 9.28572C9.99999 8.88573 10.3143 8.57145 10.7143 8.57145Z" fill="#D0D4D8"/>
<path d="M10.7143 11.4286H15C15.4 11.4286 15.7143 11.7428 15.7143 12.1429C15.7143 12.5429 15.4 12.8571 15 12.8571H10.7143C10.3143 12.8571 9.99999 12.5429 9.99999 12.1429C9.99999 11.7428 10.3143 11.4286 10.7143 11.4286Z" fill="#D0D4D8"/>
</g>
</svg>
