<svg width="34" height="30" viewBox="0 0 34 30" fill="none" xmlns="http://www.w3.org/2000/svg">
<g id="react-query-icon">
<path fill-rule="evenodd" clip-rule="evenodd" d="M20.6694 18.6424L20.027 19.758C19.8334 20.0941 19.4752 20.3012 19.0873 20.3012H14.1657C13.7778 20.3012 13.4196 20.0941 13.226 19.758L12.5835 18.6424H20.6694ZM22.4681 15.5193L21.3352 17.4863H11.9177L10.7849 15.5193H22.4681ZM21.3769 12.4654L22.4699 14.3633H10.7831L11.8761 12.4654H21.3769ZM19.0873 9.57831C19.4752 9.57831 19.8334 9.78543 20.027 10.1215L20.7111 11.3093H12.5419L13.226 10.1215C13.4196 9.78543 13.7778 9.57831 14.1657 9.57831H19.0873Z" fill="#00435B"/>
<path d="M7.0027 9.06064C6.4575 6.41698 6.3405 4.38931 6.69291 2.91694C6.9025 2.04126 7.2857 1.3269 7.86837 0.811493C8.48351 0.267361 9.26126 0.000355112 10.1351 0.000355112C11.5768 0.000355112 13.0923 0.657763 14.7119 1.90666C15.3725 2.41607 16.0581 3.03007 16.7702 3.74902C16.8269 3.67606 16.8909 3.60724 16.9623 3.54364C18.9754 1.7497 20.6702 0.635105 22.1198 0.20535C22.9818 -0.0501819 23.791 -0.0745267 24.528 0.173476C25.3059 0.435259 25.9257 0.976403 26.363 1.73437C27.0847 2.9853 27.275 4.62902 27.0059 6.65859C26.8963 7.48587 26.7088 8.38701 26.4438 9.36341C26.5438 9.37548 26.644 9.39764 26.7432 9.43051C29.2973 10.2769 31.1059 11.1871 32.2009 12.2273C32.8524 12.8462 33.2778 13.5353 33.4316 14.298C33.5939 15.103 33.4357 15.9105 32.9989 16.6679C32.2785 17.917 30.954 18.9022 29.067 19.6825C28.3094 19.9958 27.4521 20.2796 26.4943 20.5348C26.538 20.6335 26.5719 20.7383 26.5946 20.8482C27.1398 23.4919 27.2568 25.5195 26.9044 26.9919C26.6948 27.8676 26.3116 28.5819 25.7289 29.0973C25.1138 29.6415 24.336 29.9085 23.4621 29.9085C22.0205 29.9085 20.505 29.2511 18.8854 28.0022C18.2177 27.4873 17.5245 26.8657 16.8043 26.1368C16.7302 26.2527 16.6393 26.3605 16.5317 26.4564C14.5186 28.2503 12.8237 29.3649 11.3741 29.7946C10.5122 30.0502 9.70293 30.0745 8.96599 29.8265C8.1881 29.5647 7.56828 29.0236 7.13098 28.2656C6.40928 27.0147 6.21896 25.371 6.48803 23.3414C6.60167 22.4842 6.79885 21.5477 7.07914 20.5304C6.96958 20.5193 6.85958 20.4961 6.75079 20.4601C4.19663 19.6137 2.38802 18.7035 1.29304 17.6633C0.641556 17.0444 0.216129 16.3553 0.0623402 15.5926C-0.0999841 14.7876 0.0582947 13.9801 0.495085 13.2227C1.21544 11.9736 2.53996 10.9884 4.42692 10.2081C5.20717 9.88546 6.09303 9.59414 7.08555 9.33308C7.05018 9.24651 7.02226 9.15549 7.0027 9.06064Z" fill="#002B3B"/>
<path fill-rule="evenodd" clip-rule="evenodd" d="M13.5623 8.21843C14.8863 8.11306 16.2509 8.06652 17.6563 8.07883C17.9224 8.08116 18.1401 7.86729 18.1424 7.60114C18.1434 7.48905 18.1053 7.38011 18.0346 7.2931C14.8359 3.35473 12.2021 1.38554 10.1331 1.38554C7.99702 1.38554 7.38763 3.74012 8.30492 8.44929C8.3552 8.70741 8.60312 8.87757 8.86206 8.83168C10.4951 8.54226 12.0619 8.33784 13.5623 8.21843Z" fill="#FF4154"/>
<path fill-rule="evenodd" clip-rule="evenodd" d="M20.9946 8.86667C21.7592 9.96846 22.4931 11.1353 23.1962 12.3671C23.3281 12.5982 23.6224 12.6786 23.8536 12.5467C23.9505 12.4914 24.0253 12.4041 24.065 12.2998C25.8744 7.55396 26.2546 4.281 25.2058 2.48097C24.1235 0.623466 21.7652 1.26574 18.131 4.4078C17.9312 4.58055 17.9077 4.88196 18.0783 5.08362C19.1581 6.36001 20.1302 7.62103 20.9946 8.86667Z" fill="#FF4154"/>
<path fill-rule="evenodd" clip-rule="evenodd" d="M24.2038 15.4969C23.6315 16.6996 22.9883 17.9083 22.2741 19.1232C22.1392 19.3526 22.2159 19.648 22.4453 19.7829C22.5425 19.84 22.6566 19.8612 22.7678 19.843C27.7541 19.0231 30.7651 17.7146 31.8008 15.9173C32.8705 14.0612 31.1503 12.3599 26.6402 10.8135C26.3917 10.7283 26.1208 10.8578 26.031 11.1046C25.4619 12.6688 24.8528 14.1328 24.2038 15.4969Z" fill="#FF4154"/>
<path fill-rule="evenodd" clip-rule="evenodd" d="M20.1124 21.7213C18.7884 21.8267 17.4238 21.8732 16.0184 21.8609C15.7523 21.8586 15.5346 22.0725 15.5323 22.3386C15.5313 22.4507 15.5694 22.5596 15.6401 22.6467C18.8387 26.585 21.4726 28.5542 23.5416 28.5542C25.6777 28.5542 26.287 26.1996 25.3698 21.4905C25.3195 21.2324 25.0716 21.0622 24.8126 21.1081C23.1795 21.3975 21.6128 21.6019 20.1124 21.7213Z" fill="#FF4154"/>
<path fill-rule="evenodd" clip-rule="evenodd" d="M12.4993 21.1333C11.7347 20.0315 11.0009 18.8647 10.2978 17.6329C10.1659 17.4018 9.87152 17.3214 9.64036 17.4533C9.54342 17.5086 9.4687 17.5959 9.42894 17.7002C7.61958 22.446 7.23932 25.719 8.28816 27.519C9.37048 29.3765 11.7287 28.7343 15.3629 25.5922C15.5628 25.4194 15.5863 25.118 15.4157 24.9164C14.3359 23.64 13.3638 22.379 12.4993 21.1333Z" fill="#FF4154"/>
<path fill-rule="evenodd" clip-rule="evenodd" d="M9.29018 14.3224C9.86244 13.1197 10.5057 11.9109 11.2198 10.6961C11.3547 10.4667 11.2781 10.1713 11.0486 10.0364C10.9515 9.97931 10.8374 9.95804 10.7262 9.97633C5.7399 10.7962 2.72888 12.1047 1.69315 13.9019C0.623449 15.7581 2.34366 17.4594 6.85379 19.0058C7.10225 19.0909 7.37317 18.9615 7.46298 18.7147C8.0321 17.1505 8.64117 15.6864 9.29018 14.3224Z" fill="#FF4154"/>
<path fill-rule="evenodd" clip-rule="evenodd" d="M14.5613 9.63855H18.6926C19.2967 9.63855 19.8548 9.9617 20.1555 10.4857L22.2299 14.1002C22.5283 14.6201 22.5283 15.2594 22.2299 15.7794L20.1555 19.3938C19.8548 19.9178 19.2967 20.241 18.6926 20.241H14.5613C13.9571 20.241 13.3991 19.9178 13.0984 19.3938L11.024 15.7794C10.7256 15.2594 10.7256 14.6201 11.024 14.1002L13.0984 10.4857C13.3991 9.9617 13.9571 9.63855 14.5613 9.63855ZM18.0629 10.7295C18.6674 10.7295 19.2257 11.053 19.5263 11.5774L20.9728 14.1009C21.2706 14.6205 21.2706 15.259 20.9728 15.7786L19.5263 18.3021C19.2257 18.8266 18.6674 19.15 18.0629 19.15H15.1909C14.5865 19.15 14.0282 18.8266 13.7276 18.3021L12.2811 15.7786C11.9833 15.259 11.9833 14.6205 12.2811 14.1009L13.7276 11.5774C14.0282 11.053 14.5865 10.7295 15.1909 10.7295H18.0629ZM17.3843 11.9227H15.8696C15.2657 11.9227 14.7079 12.2455 14.4071 12.7691L13.6427 14.0994C13.3437 14.6198 13.3437 15.2598 13.6427 15.7801L14.4071 17.1104C14.7079 17.634 15.2657 17.9568 15.8696 17.9568H17.3843C17.9881 17.9568 18.5459 17.634 18.8468 17.1104L19.6112 15.7801C19.9101 15.2598 19.9101 14.6198 19.6112 14.0994L18.8468 12.7691C18.5459 12.2455 17.9881 11.9227 17.3843 11.9227ZM16.7308 13.0647C17.3342 13.0647 17.8917 13.3871 18.1927 13.9101L18.3011 14.0983C18.6009 14.6192 18.6009 15.2603 18.3011 15.7812L18.1927 15.9695C17.8917 16.4924 17.3342 16.8148 16.7308 16.8148H16.5231C15.9197 16.8148 15.3622 16.4924 15.0612 15.9695L14.9528 15.7812C14.653 15.2603 14.653 14.6192 14.9528 14.0983L15.0612 13.9101C15.3622 13.3871 15.9197 13.0647 16.5231 13.0647H16.7308ZM16.6272 14.1897C16.3586 14.1897 16.111 14.3327 15.9769 14.5648C15.8428 14.7968 15.8428 15.0827 15.9769 15.3148C16.111 15.5468 16.3586 15.6898 16.6267 15.6898C16.8952 15.6898 17.1429 15.5468 17.277 15.3148C17.4111 15.0827 17.4111 14.7968 17.277 14.5648C17.1429 14.3327 16.8952 14.1897 16.6272 14.1897ZM10.5422 14.9398H11.8925Z" fill="#FFD94C"/>
</g>
</svg>
