<svg width="30" height="30" viewBox="0 0 30 27" fill="none" xmlns="http://www.w3.org/2000/svg">
<g id="react-icon" class="icon-group">  
<path d="M14.6719 15.7734C16.1475 15.7734 17.3438 14.5772 17.3438 13.1016C17.3438 11.6259 16.1475 10.4297 14.6719 10.4297C13.1962 10.4297 12 11.6259 12 13.1016C12 14.5772 13.1962 15.7734 14.6719 15.7734Z" fill="#61DAFB"/>
<path d="M24.8203 8.69531C24.3047 8.50781 23.7656 8.32031 23.2031 8.15625C23.3438 7.59375 23.4609 7.03125 23.5547 6.49219C24.0469 3.39844 23.5078 1.21875 22.0078 0.375C21.5625 0.117187 21.0703 0 20.5078 0C18.8672 0 16.7813 1.21875 14.6719 3.25781C12.5625 1.21875 10.4766 0 8.83594 0C8.27344 0 7.78125 0.117187 7.33594 0.375C5.83594 1.24219 5.29688 3.42187 5.78906 6.49219C5.88281 7.03125 6 7.59375 6.14063 8.15625C5.57813 8.32031 5.03906 8.48437 4.52344 8.69531C1.59375 9.82031 0 11.3672 0 13.1016C0 14.8359 1.61719 16.3828 4.52344 17.5078C5.03906 17.6953 5.57813 17.8828 6.14063 18.0469C6 18.6094 5.88281 19.1719 5.78906 19.7109C5.29688 22.8047 5.83594 24.9844 7.33594 25.8281C7.78125 26.0859 8.27344 26.2031 8.83594 26.2031C10.5 26.2031 12.5859 24.9844 14.6719 22.9453C16.7813 24.9844 18.8672 26.2031 20.5078 26.2031C21.0703 26.2031 21.5625 26.0859 22.0078 25.8281C23.5078 24.9609 24.0469 22.7812 23.5547 19.7109C23.4609 19.1719 23.3438 18.6094 23.2031 18.0469C23.7656 17.8828 24.3047 17.7187 24.8203 17.5078C27.75 16.3828 29.3438 14.8359 29.3438 13.1016C29.3438 11.3672 27.75 9.82031 24.8203 8.69531ZM21.3516 1.54687C22.3125 2.10937 22.6406 3.84375 22.2422 6.30469C22.1719 6.79687 22.0547 7.3125 21.9141 7.85156C20.6953 7.57031 19.4063 7.38281 18.0469 7.26562C17.25 6.14062 16.4297 5.13281 15.6094 4.21875C17.3438 2.50781 19.1016 1.33594 20.5313 1.33594C20.8359 1.33594 21.1172 1.40625 21.3516 1.54687ZM18.7266 15.4453C18.3047 16.1953 17.8125 16.9453 17.2969 17.6953C16.4297 17.7656 15.5625 17.7891 14.6719 17.7891C13.7578 17.7891 12.8906 17.7656 12.0469 17.6953C11.5313 16.9453 11.0625 16.1953 10.6406 15.4453C10.1953 14.6719 9.77344 13.875 9.39844 13.1016C9.77344 12.3281 10.1953 11.5312 10.6406 10.7578C11.0625 10.0078 11.5547 9.25781 12.0703 8.50781C12.9375 8.4375 13.8047 8.41406 14.6953 8.41406C15.6094 8.41406 16.4766 8.4375 17.3203 8.50781C17.8359 9.25781 18.3047 10.0078 18.7266 10.7578C19.1719 11.5312 19.5938 12.3281 19.9688 13.1016C19.5703 13.875 19.1719 14.6484 18.7266 15.4453ZM20.6719 14.6719C21.0234 15.4922 21.3047 16.2891 21.5625 17.0859C20.7656 17.2734 19.9219 17.4141 19.0313 17.5312C19.3125 17.0859 19.6172 16.6172 19.875 16.125C20.1563 15.6328 20.4141 15.1406 20.6719 14.6719ZM14.6719 21.0234C14.1094 20.4141 13.5703 19.7578 13.0547 19.0781C13.5938 19.1016 14.1328 19.125 14.6719 19.125C15.2109 19.125 15.75 19.1016 16.2891 19.0781C15.7734 19.7578 15.2344 20.4141 14.6719 21.0234ZM10.3125 17.5078C9.42188 17.3906 8.57813 17.25 7.78125 17.0625C8.03906 16.2891 8.32031 15.4687 8.67188 14.6484C8.92969 15.1172 9.1875 15.6094 9.46875 16.0781C9.75 16.5937 10.0313 17.0391 10.3125 17.5078ZM8.67188 11.5312C8.32031 10.7109 8.03906 9.91406 7.78125 9.11718C8.57813 8.92968 9.42188 8.78906 10.3125 8.67187C10.0313 9.11718 9.72656 9.58593 9.46875 10.0781C9.1875 10.5703 8.92969 11.0625 8.67188 11.5312ZM14.6719 5.17969C15.2344 5.78906 15.7734 6.44531 16.2891 7.125C15.75 7.10156 15.2109 7.07812 14.6719 7.07812C14.1328 7.07812 13.5938 7.10156 13.0547 7.125C13.5703 6.44531 14.1094 5.78906 14.6719 5.17969ZM19.875 10.1016L19.0313 8.69531C19.9219 8.8125 20.7656 8.95312 21.5625 9.14062C21.3047 9.91406 21.0234 10.7344 20.6719 11.5547C20.4141 11.0625 20.1563 10.5703 19.875 10.1016ZM7.10156 6.30469C6.70313 3.84375 7.03125 2.10937 7.99219 1.54687C8.22656 1.40625 8.50781 1.33594 8.8125 1.33594C10.2188 1.33594 11.9766 2.48437 13.7344 4.21875C12.9141 5.10937 12.0938 6.14062 11.2969 7.26562C9.9375 7.38281 8.64844 7.59375 7.42969 7.85156C7.28906 7.3125 7.19531 6.79687 7.10156 6.30469ZM1.3125 13.1016C1.3125 12 2.64844 10.8281 4.99219 9.96093C5.46094 9.77343 5.97656 9.60937 6.49219 9.46875C6.86719 10.6406 7.33594 11.8828 7.89844 13.125C7.33594 14.3672 6.84375 15.5859 6.49219 16.7578C3.25781 15.8203 1.3125 14.4141 1.3125 13.1016ZM7.99219 24.6562C7.03125 24.0937 6.70313 22.3594 7.10156 19.8984C7.17188 19.4062 7.28906 18.8906 7.42969 18.3516C8.64844 18.6328 9.9375 18.8203 11.2969 18.9375C12.0938 20.0625 12.9141 21.0703 13.7344 21.9844C12 23.6953 10.2422 24.8672 8.8125 24.8672C8.50781 24.8672 8.22656 24.7969 7.99219 24.6562ZM22.2422 19.8984C22.6406 22.3594 22.3125 24.0937 21.3516 24.6562C21.1172 24.7969 20.8359 24.8672 20.5313 24.8672C19.125 24.8672 17.3672 23.7187 15.6094 21.9844C16.4297 21.0937 17.25 20.0625 18.0469 18.9375C19.4063 18.8203 20.6953 18.6094 21.9141 18.3516C22.0547 18.8906 22.1484 19.4062 22.2422 19.8984ZM24.3516 16.2422C23.8828 16.4297 23.3672 16.5937 22.8516 16.7344C22.4766 15.5625 22.0078 14.3203 21.4453 13.0781C22.0078 11.8359 22.5 10.6172 22.8516 9.44531C26.0859 10.3828 28.0313 11.7891 28.0313 13.1016C28.0313 14.2031 26.6719 15.375 24.3516 16.2422Z" fill="#61DAFB"/>
</g>
</svg>
