<svg width="30" height="30" viewBox="0 0 30 30" fill="none" xmlns="http://www.w3.org/2000/svg">
<path id="redux-icon" d="M20.7867 20.6508C18.6773 24.9633 14.9836 27.8648 10.0969 28.8187C9.34761 29.0023 8.57843 29.0921 7.80703 29.0859C4.99453 29.0859 2.41641 27.9141 1.16484 25.9945C-0.515625 23.4375 -1.0875 18.0164 4.45312 14.0062C4.56562 14.618 4.79531 15.457 4.94766 15.9539C3.86 16.762 2.96971 17.8061 2.34375 19.0078C1.3125 21.0328 1.42734 23.0555 2.64844 24.9258C3.49219 26.1867 4.82812 26.9531 6.54609 27.1875C8.69188 27.4591 10.8687 27.0491 12.7687 26.0156C15.7477 24.45 17.7328 22.5797 19.0312 20.0227C18.6641 19.6432 18.4468 19.1437 18.4195 18.6164C18.3999 18.0506 18.6056 17.5001 18.9914 17.0857C19.3771 16.6714 19.9116 16.427 20.4773 16.4062H20.557C21.1073 16.4035 21.6376 16.6124 22.0382 16.9897C22.4388 17.3671 22.679 17.8839 22.7091 18.4334C22.7392 18.9829 22.5569 19.5229 22.2 19.9418C21.843 20.3606 21.3387 20.6262 20.7914 20.6836L20.7867 20.6508ZM27.5062 15.9164C30.368 19.1602 30.4453 22.9781 29.3391 25.193C28.3078 27.2156 25.5891 29.2406 21.9328 29.2406C20.226 29.2058 18.547 28.802 17.0109 28.057C17.5477 27.675 18.3094 27.0633 18.7289 26.6812C19.9134 27.1944 21.1881 27.4669 22.4789 27.4828C24.8461 27.4828 26.6391 26.3766 27.7078 24.3539C28.3945 23.018 28.4344 21.4523 27.7852 19.8492C26.9885 17.8322 25.571 16.1207 23.7375 14.9625C21.332 13.341 18.4963 12.4765 15.5953 12.4805H14.9086C14.7485 12.8504 14.488 13.1681 14.1566 13.3975C13.8252 13.627 13.4362 13.7591 13.0336 13.7789H12.9609C12.4041 13.7721 11.8719 13.5484 11.4773 13.1555C11.0827 12.7625 10.8568 12.2312 10.8477 11.6744C10.8385 11.1176 11.0468 10.5792 11.4283 10.1734C11.8097 9.76773 12.3343 9.5267 12.8906 9.50156H12.968C13.3556 9.50185 13.7357 9.60897 14.0665 9.81116C14.3973 10.0133 14.6659 10.3028 14.843 10.6477H15.4547C20.3297 10.6477 24.6094 12.518 27.5062 15.9164ZM8.11172 21.307C8.07158 20.9178 8.16587 20.5266 8.37891 20.1984C6.24141 16.4953 5.09766 11.8008 6.85312 6.91406C8.11172 3.24141 11.2805 0.759375 14.7164 0.759375C18.382 0.759375 22.2 3.96797 22.657 10.1508C22.0852 9.96094 21.2508 9.68203 20.7492 9.57891C20.625 7.55625 18.9164 2.51719 14.8687 2.59219C13.418 2.63203 11.2805 3.31875 10.1812 4.72969C8.82155 6.41395 8.03057 8.48578 7.92187 10.6477C7.66423 13.612 8.35971 16.5811 9.90703 19.1227C9.99245 19.0914 10.0835 19.0787 10.1742 19.0852H10.2492C10.8161 19.0749 11.3639 19.2903 11.772 19.6839C12.1801 20.0775 12.4151 20.6171 12.4254 21.184C12.4356 21.7509 12.2203 22.2986 11.8267 22.7068C11.4331 23.1149 10.8935 23.3499 10.3266 23.3602H10.2492C9.69616 23.3582 9.1652 23.1429 8.76699 22.7591C8.36879 22.3753 8.13405 21.8526 8.11172 21.3V21.307Z" fill="#8080F2"/>
</svg>
