<svg width="1253" height="31" viewBox="0 0 1253 31" fill="none" xmlns="http://www.w3.org/2000/svg">
<g id="tech-icons">
<g id="vite-icon">
<path d="M440.299 4.4403L426.464 29.6084C426.178 30.1281 425.444 30.1311 425.154 29.614L411.045 4.44264C410.729 3.87921 411.203 3.19663 411.83 3.31086L425.68 5.82922C425.769 5.84528 425.859 5.84512 425.947 5.82875L439.508 3.31437C440.133 3.19838 440.609 3.8757 440.299 4.4403Z" fill="url(#paint0_linear_187_64728)"/>
<path d="M432.278 0.00738622L422.039 2.04834C421.958 2.06464 421.883 2.10814 421.829 2.172C421.774 2.23585 421.741 2.31644 421.736 2.4011L421.107 13.2222C421.103 13.2816 421.113 13.3409 421.136 13.3955C421.159 13.4502 421.195 13.4986 421.239 13.537C421.284 13.5754 421.337 13.6026 421.393 13.6166C421.45 13.6306 421.509 13.6309 421.566 13.6176L424.417 12.9483C424.684 12.8857 424.925 13.1247 424.87 13.3975L424.023 17.6165C423.966 17.9004 424.228 18.1432 424.5 18.0589L426.261 17.5148C426.534 17.4305 426.796 17.674 426.739 17.9581L425.393 24.5851C425.309 24.9996 425.851 25.2256 426.076 24.8703L426.228 24.633L434.57 7.69484C434.71 7.41125 434.469 7.08787 434.163 7.14803L431.229 7.7241C430.953 7.77818 430.718 7.51694 430.796 7.2426L432.711 0.488774C432.789 0.213729 432.554 -0.0476228 432.278 0.00738622Z" fill="url(#paint1_linear_187_64728)"/>
</g>
<g id="react-query-icon">
<path fill-rule="evenodd" clip-rule="evenodd" d="M539.065 18.6424L538.423 19.758C538.229 20.0941 537.871 20.3012 537.483 20.3012H532.562C532.174 20.3012 531.816 20.0941 531.622 19.758L530.979 18.6424H539.065ZM540.864 15.5193L539.731 17.4863H530.314L529.181 15.5193H540.864ZM539.773 12.4654L540.866 14.3633H529.179L530.272 12.4654H539.773ZM537.483 9.57831C537.871 9.57831 538.229 9.78543 538.423 10.1215L539.107 11.3093H530.938L531.622 10.1215C531.816 9.78543 532.174 9.57831 532.562 9.57831H537.483Z" fill="#00435B"/>
<path d="M525.399 9.06064C524.853 6.41698 524.736 4.38931 525.089 2.91694C525.299 2.04126 525.682 1.3269 526.264 0.811493C526.88 0.267361 527.657 0.000355106 528.531 0.000355106C529.973 0.000355106 531.488 0.657763 533.108 1.90666C533.769 2.41607 534.454 3.03007 535.166 3.74902C535.223 3.67606 535.287 3.60724 535.358 3.54364C537.371 1.7497 539.066 0.635105 540.516 0.20535C541.378 -0.0501819 542.187 -0.0745267 542.924 0.173476C543.702 0.435259 544.322 0.976403 544.759 1.73437C545.481 2.9853 545.671 4.62902 545.402 6.65859C545.292 7.48587 545.105 8.38701 544.84 9.36341C544.94 9.37548 545.04 9.39764 545.139 9.43051C547.693 10.2769 549.502 11.1871 550.597 12.2273C551.248 12.8462 551.674 13.5353 551.828 14.298C551.99 15.103 551.832 15.9105 551.395 16.6679C550.675 17.917 549.35 18.9022 547.463 19.6825C546.705 19.9958 545.848 20.2796 544.89 20.5348C544.934 20.6335 544.968 20.7383 544.991 20.8482C545.536 23.4919 545.653 25.5195 545.3 26.9919C545.091 27.8676 544.708 28.5819 544.125 29.0973C543.51 29.6415 542.732 29.9085 541.858 29.9085C540.416 29.9085 538.901 29.2511 537.281 28.0022C536.614 27.4873 535.921 26.8657 535.2 26.1368C535.126 26.2527 535.035 26.3605 534.928 26.4564C532.915 28.2503 531.22 29.3649 529.77 29.7946C528.908 30.0502 528.099 30.0745 527.362 29.8265C526.584 29.5647 525.964 29.0236 525.527 28.2656C524.805 27.0147 524.615 25.371 524.884 23.3414C524.998 22.4842 525.195 21.5477 525.475 20.5304C525.366 20.5193 525.256 20.4961 525.147 20.4601C522.593 19.6137 520.784 18.7035 519.689 17.6633C519.038 17.0444 518.612 16.3553 518.458 15.5926C518.296 14.7876 518.454 13.9801 518.891 13.2227C519.611 11.9736 520.936 10.9884 522.823 10.2081C523.603 9.88546 524.489 9.59414 525.482 9.33308C525.446 9.24651 525.418 9.15549 525.399 9.06064Z" fill="#002B3B"/>
<path fill-rule="evenodd" clip-rule="evenodd" d="M531.958 8.21843C533.282 8.11306 534.647 8.06652 536.052 8.07883C536.318 8.08116 536.536 7.86729 536.538 7.60114C536.539 7.48905 536.501 7.38011 536.431 7.2931C533.232 3.35473 530.598 1.38554 528.529 1.38554C526.393 1.38554 525.784 3.74012 526.701 8.44929C526.751 8.70741 526.999 8.87757 527.258 8.83168C528.891 8.54226 530.458 8.33784 531.958 8.21843Z" fill="#FF4154"/>
<path fill-rule="evenodd" clip-rule="evenodd" d="M539.391 8.86667C540.155 9.96846 540.889 11.1353 541.592 12.3671C541.724 12.5982 542.018 12.6786 542.25 12.5467C542.347 12.4914 542.421 12.4041 542.461 12.2998C544.27 7.55396 544.651 4.281 543.602 2.48097C542.519 0.623466 540.161 1.26574 536.527 4.4078C536.327 4.58055 536.304 4.88196 536.474 5.08362C537.554 6.36001 538.526 7.62103 539.391 8.86667Z" fill="#FF4154"/>
<path fill-rule="evenodd" clip-rule="evenodd" d="M542.6 15.4969C542.028 16.6996 541.384 17.9083 540.67 19.1232C540.535 19.3526 540.612 19.648 540.841 19.7829C540.938 19.84 541.053 19.8612 541.164 19.843C546.15 19.0231 549.161 17.7146 550.197 15.9173C551.267 14.0612 549.546 12.3599 545.036 10.8135C544.788 10.7283 544.517 10.8578 544.427 11.1046C543.858 12.6688 543.249 14.1328 542.6 15.4969Z" fill="#FF4154"/>
<path fill-rule="evenodd" clip-rule="evenodd" d="M538.508 21.7213C537.184 21.8267 535.82 21.8732 534.414 21.8609C534.148 21.8586 533.931 22.0725 533.928 22.3386C533.927 22.4507 533.965 22.5596 534.036 22.6467C537.235 26.585 539.869 28.5542 541.938 28.5542C544.074 28.5542 544.683 26.1996 543.766 21.4905C543.715 21.2324 543.468 21.0622 543.209 21.1081C541.576 21.3975 540.009 21.6019 538.508 21.7213Z" fill="#FF4154"/>
<path fill-rule="evenodd" clip-rule="evenodd" d="M530.895 21.1333C530.131 20.0315 529.397 18.8647 528.694 17.6329C528.562 17.4018 528.268 17.3214 528.036 17.4533C527.939 17.5086 527.865 17.5959 527.825 17.7002C526.016 22.446 525.635 25.719 526.684 27.519C527.766 29.3765 530.125 28.7343 533.759 25.5922C533.959 25.4194 533.982 25.118 533.812 24.9164C532.732 23.64 531.76 22.379 530.895 21.1333Z" fill="#FF4154"/>
<path fill-rule="evenodd" clip-rule="evenodd" d="M527.686 14.3224C528.258 13.1197 528.902 11.9109 529.616 10.6961C529.751 10.4667 529.674 10.1713 529.445 10.0364C529.347 9.97931 529.233 9.95804 529.122 9.97633C524.136 10.7962 521.125 12.1047 520.089 13.9019C519.019 15.7581 520.74 17.4594 525.25 19.0058C525.498 19.0909 525.769 18.9615 525.859 18.7147C526.428 17.1505 527.037 15.6864 527.686 14.3224Z" fill="#FF4154"/>
<path fill-rule="evenodd" clip-rule="evenodd" d="M532.957 9.63855H537.089C537.693 9.63855 538.251 9.9617 538.552 10.4857L540.626 14.1002C540.924 14.6201 540.924 15.2594 540.626 15.7794L538.552 19.3938C538.251 19.9178 537.693 20.241 537.089 20.241H532.957C532.353 20.241 531.795 19.9178 531.494 19.3938L529.42 15.7794C529.122 15.2594 529.122 14.6201 529.42 14.1002L531.494 10.4857C531.795 9.9617 532.353 9.63855 532.957 9.63855ZM536.459 10.7295C537.063 10.7295 537.622 11.053 537.922 11.5774L539.369 14.1009C539.667 14.6205 539.667 15.259 539.369 15.7786L537.922 18.3021C537.622 18.8266 537.063 19.15 536.459 19.15H533.587C532.982 19.15 532.424 18.8266 532.124 18.3021L530.677 15.7786C530.379 15.259 530.379 14.6205 530.677 14.1009L532.124 11.5774C532.424 11.053 532.982 10.7295 533.587 10.7295H536.459ZM535.78 11.9227H534.266C533.662 11.9227 533.104 12.2455 532.803 12.7691L532.039 14.0994C531.74 14.6198 531.74 15.2598 532.039 15.7801L532.803 17.1104C533.104 17.634 533.662 17.9568 534.266 17.9568H535.78C536.384 17.9568 536.942 17.634 537.243 17.1104L538.007 15.7801C538.306 15.2598 538.306 14.6198 538.007 14.0994L537.243 12.7691C536.942 12.2455 536.384 11.9227 535.78 11.9227ZM535.127 13.0647C535.73 13.0647 536.288 13.3871 536.589 13.9101L536.697 14.0983C536.997 14.6192 536.997 15.2603 536.697 15.7812L536.589 15.9695C536.288 16.4924 535.73 16.8148 535.127 16.8148H534.919C534.316 16.8148 533.758 16.4924 533.457 15.9695L533.349 15.7812C533.049 15.2603 533.049 14.6192 533.349 14.0983L533.457 13.9101C533.758 13.3871 534.316 13.0647 534.919 13.0647H535.127ZM535.023 14.1897C534.755 14.1897 534.507 14.3327 534.373 14.5648C534.239 14.7968 534.239 15.0827 534.373 15.3148C534.507 15.5468 534.755 15.6898 535.023 15.6898C535.291 15.6898 535.539 15.5468 535.673 15.3148C535.807 15.0827 535.807 14.7968 535.673 14.5648C535.539 14.3327 535.291 14.1897 535.023 14.1897ZM528.938 14.9398H530.288Z" fill="#FFD94C"/>
</g>
<g id="miro-icon">
<path d="M257.066 0H274.068C277.655 0 280.567 2.9121 280.567 6.49896V23.501C280.567 27.0879 277.655 30 274.068 30H257.066C253.479 30 250.567 27.0879 250.567 23.501V6.49896C250.567 2.9121 253.479 0 257.066 0Z" fill="#FFD02F"/>
<path d="M271.413 3.74667H268.119L270.863 8.56762L264.826 3.74667H261.532L264.55 9.6419L258.238 3.74667H254.944L258.238 11.2489L254.944 26.2533H258.238L264.55 10.1746L261.532 26.2533H264.826L270.863 9.1092L268.119 26.2533H271.413L277.451 7.49334L271.413 3.74667Z" fill="#050038"/>
</g>
<g id="github-icon">
<path fill-rule="evenodd" clip-rule="evenodd" d="M372.791 1.1958C364.975 1.1958 358.637 7.53213 358.637 15.3492C358.637 21.6028 362.693 26.9079 368.316 28.7796C369.023 28.9109 369.283 28.4726 369.283 28.0988C369.283 27.7613 369.27 26.6463 369.264 25.4637C365.326 26.3199 364.495 23.7938 364.495 23.7938C363.852 22.1578 362.924 21.7228 362.924 21.7228C361.64 20.8444 363.021 20.8627 363.021 20.8627C364.442 20.9623 365.19 22.3212 365.19 22.3212C366.453 24.4845 368.501 23.8592 369.309 23.4978C369.436 22.583 369.803 21.9584 370.208 21.6049C367.064 21.2475 363.759 20.0337 363.759 14.6105C363.759 13.0653 364.312 11.8027 365.218 10.8113C365.07 10.455 364.586 9.01549 365.354 7.06596C365.354 7.06596 366.543 6.68557 369.247 8.51674C370.377 8.20291 371.588 8.04518 372.791 8.03978C373.993 8.04518 375.205 8.20244 376.336 8.51627C379.037 6.6851 380.224 7.06549 380.224 7.06549C380.995 9.01478 380.51 10.4545 380.363 10.8108C381.271 11.8022 381.82 13.0648 381.82 14.61C381.82 20.0461 378.509 21.2428 375.357 21.5935C375.865 22.0327 376.318 22.8942 376.318 24.2145C376.318 26.1082 376.301 27.6324 376.301 28.0985C376.301 28.4752 376.556 28.9165 377.273 28.7775C382.894 26.9039 386.944 21.6005 386.944 15.3492C386.944 7.5326 380.607 1.1958 372.791 1.1958Z" fill="#ECECEC"/>
<path d="M363.998 21.5168C363.967 21.5871 363.856 21.6082 363.755 21.5602C363.652 21.5142 363.595 21.4184 363.628 21.3478C363.658 21.2752 363.769 21.2553 363.872 21.3038C363.975 21.3499 364.034 21.4465 363.998 21.5168ZM364.571 22.1564C364.504 22.219 364.372 22.1899 364.282 22.0908C364.19 21.9924 364.172 21.8604 364.241 21.7969C364.311 21.7346 364.439 21.7641 364.532 21.8625C364.624 21.9624 364.642 22.0929 364.571 22.1564ZM365.129 22.9714C365.043 23.0318 364.901 22.9753 364.813 22.8495C364.726 22.7234 364.726 22.5722 364.815 22.512C364.903 22.4515 365.043 22.5061 365.132 22.6308C365.218 22.7585 365.218 22.9099 365.129 22.9714ZM365.894 23.7591C365.816 23.8446 365.651 23.8217 365.53 23.7052C365.406 23.591 365.372 23.4286 365.45 23.3433C365.528 23.2575 365.694 23.2814 365.816 23.3972C365.94 23.5111 365.976 23.674 365.894 23.7591ZM366.948 24.2164C366.914 24.3272 366.755 24.3776 366.594 24.3303C366.434 24.2817 366.33 24.1521 366.362 24.0401C366.395 23.9283 366.555 23.876 366.717 23.9264C366.877 23.9747 366.982 24.1036 366.948 24.2164ZM368.107 24.301C368.111 24.4177 367.975 24.5142 367.807 24.5166C367.637 24.5206 367.5 24.4259 367.499 24.311C367.499 24.1931 367.632 24.0978 367.801 24.0945C367.969 24.0914 368.107 24.1854 368.107 24.301ZM369.185 24.1177C369.205 24.2314 369.088 24.3483 368.921 24.3795C368.757 24.4099 368.604 24.3392 368.583 24.2264C368.563 24.1097 368.682 23.9928 368.846 23.9625C369.013 23.9337 369.163 24.0021 369.185 24.1177Z" fill="#ECECEC"/>
</g>
<g id="android-studio-icon">
<path d="M692.455 4.14844H685.869C684.556 4.14844 683.478 5.22656 683.478 6.5625C683.431 7.85156 684.462 8.92969 685.752 8.97656H692.525L692.455 4.14844Z" fill="#073042"/>
<path d="M685.869 25.6172C684.533 25.6172 683.478 24.5391 683.478 23.2031V6.53906C683.478 7.875 684.556 8.95312 685.869 8.97656H703.892C703.892 8.97656 707.408 8.67187 707.408 11.3203V25.6172H685.869Z" fill="#4285F4"/>
<path d="M697.353 17.0859C698.314 16.3594 698.502 15 697.775 14.0625C697.377 13.5469 696.767 13.2187 696.111 13.1953H696.181C696.298 13.1719 696.439 13.1719 696.556 13.1953V11.8594C696.556 11.6953 696.486 11.5547 696.345 11.4844C696.134 11.3672 695.877 11.4375 695.759 11.6484C695.712 11.7187 695.689 11.7891 695.712 11.8828V13.2422C694.541 13.4297 693.72 14.5312 693.908 15.7266V15.75C694.002 16.3125 694.306 16.8281 694.775 17.1562L690.814 25.6406H693.392L695.22 21.75C695.431 21.2812 695.994 21.0703 696.486 21.3047C696.673 21.3984 696.837 21.5625 696.931 21.75L698.83 25.6406H701.455L697.353 17.0859ZM696.017 16.7109C695.267 16.7109 694.681 16.1016 694.681 15.3516C694.681 14.6016 695.291 14.0156 696.041 14.0391C696.392 14.0391 696.697 14.1797 696.955 14.4141C697.494 14.9297 697.494 15.7734 696.978 16.3125C696.744 16.5469 696.392 16.7109 696.017 16.7109Z" fill="#3870B2"/>
<path d="M691.025 5.32031H700.259V7.00781H691.025V5.32031Z" fill="white"/>
<path d="M695.314 14.0156C696.041 14.0156 696.65 14.625 696.627 15.375C696.627 16.1016 696.017 16.7109 695.267 16.6875C694.541 16.6875 693.955 16.0781 693.955 15.3516C693.955 15 694.095 14.6719 694.353 14.4141C694.611 14.1562 694.962 14.0156 695.314 14.0156ZM695.83 13.2422V11.8359C695.83 11.6719 695.759 11.5312 695.619 11.4609C695.408 11.3437 695.15 11.4141 695.033 11.625C694.986 11.6953 694.962 11.7656 694.986 11.8594V13.2187C693.814 13.4062 692.994 14.5078 693.181 15.7031V15.7266C693.275 16.2891 693.58 16.8047 694.048 17.1328L689.056 27.8438C688.869 28.2188 688.892 28.6875 689.15 29.0391C689.525 29.5781 690.252 29.7188 690.791 29.3438C690.978 29.2266 691.119 29.0391 691.212 28.8516L694.541 21.7266C694.752 21.2578 695.314 21.0469 695.806 21.2812C695.994 21.375 696.158 21.5391 696.252 21.7266L699.65 28.7813C699.931 29.3672 700.634 29.6016 701.22 29.3203C701.806 29.0391 702.041 28.3359 701.759 27.75L696.627 17.0859C697.564 16.3359 697.728 14.9531 696.978 14.0156C696.697 13.6406 696.298 13.3828 695.83 13.2422Z" fill="#073042"/>
<path d="M698.9 6.82031C698.548 6.82031 698.267 6.5625 698.267 6.21094C698.267 6.04688 698.337 5.85938 698.455 5.74219C698.712 5.50781 699.087 5.50781 699.345 5.74219C699.462 5.85938 699.533 6.02344 699.533 6.1875C699.509 6.53906 699.252 6.79688 698.9 6.82031ZM691.962 6.79688C691.611 6.79688 691.33 6.51563 691.33 6.1875C691.33 6.02344 691.4 5.85938 691.517 5.74219C691.728 5.48438 692.127 5.4375 692.384 5.64844H692.408C692.666 5.88281 692.689 6.28125 692.455 6.53906L692.384 6.63281C692.267 6.75 692.103 6.82031 691.939 6.82031M699.087 3.02344L700.33 0.867188C700.4 0.75 700.353 0.609375 700.259 0.515625C700.142 0.46875 700.025 0.492188 699.955 0.585938L698.666 2.8125C696.603 1.89844 694.259 1.89844 692.22 2.8125L690.955 0.609375C690.908 0.539062 690.814 0.46875 690.72 0.46875C690.627 0.46875 690.533 0.515625 690.486 0.609375C690.439 0.679688 690.439 0.796875 690.486 0.867188L691.752 3.02344C689.548 4.21875 688.119 6.46875 687.908 8.95313H702.955C702.767 6.44531 701.314 4.21875 699.111 3.02344" fill="#3DDC84"/>
<path d="M705.181 13.6172H704.197C704.15 13.6406 704.103 13.6875 704.103 13.7578V29.3438C704.103 29.4141 704.15 29.4609 704.22 29.4609H705.252C706.447 29.4609 707.408 28.4766 707.408 27.3047V11.4375C707.408 12.6328 706.447 13.5938 705.252 13.5938H705.181V13.6172Z" fill="#073042"/>
</g>
<g id="figma-icon">
<path d="M836.504 30.2344C839.293 30.2344 841.543 27.9844 841.543 25.1953V20.1562H836.504C833.715 20.1562 831.465 22.4062 831.465 25.1953C831.465 27.9844 833.715 30.2344 836.504 30.2344Z" fill="#0ACF83"/>
<path d="M831.465 15.1172C831.465 12.3281 833.715 10.0781 836.504 10.0781H841.543V20.1562H836.504C833.715 20.1562 831.465 17.9062 831.465 15.1172Z" fill="#A259FF"/>
<path d="M831.465 5.03906C831.465 2.25 833.715 0 836.504 0H841.543V10.0781H836.504C833.715 10.0781 831.465 7.82812 831.465 5.03906Z" fill="#F24E1E"/>
<path d="M841.543 0H846.583C849.372 0 851.622 2.25 851.622 5.03906C851.622 7.82812 849.372 10.0781 846.583 10.0781H841.543V0Z" fill="#FF7262"/>
<path d="M851.622 15.1172C851.622 17.9062 849.372 20.1562 846.583 20.1562C843.793 20.1562 841.543 17.9062 841.543 15.1172C841.543 12.3281 843.793 10.0781 846.583 10.0781C849.372 10.0781 851.622 12.3281 851.622 15.1172Z" fill="#1ABCFE"/>
</g>
<path id="docker-icon" d="M946.946 12.2109C945.939 11.625 944.603 11.5547 943.478 11.8828C943.337 10.6641 942.54 9.60938 941.603 8.85938L941.228 8.55469L940.9 8.92969C940.267 9.65625 940.079 10.875 940.173 11.8125C940.243 12.4922 940.454 13.1953 940.876 13.7578C940.548 13.9453 940.196 14.2031 939.868 14.3203C939.212 14.5547 938.485 14.7891 937.782 14.7891H936.212V11.4844H933.165V5.625H929.65V8.4375H923.79V11.4844H920.743V14.7656H918.118L918.071 15.1172C917.954 16.6172 918.142 18.0703 918.775 19.4531L919.056 20.0156C920.907 23.1563 924.142 24.4688 927.681 24.4688C934.525 24.4688 940.173 21.3984 942.751 14.9531C944.485 15.0469 946.267 14.5313 947.11 12.8672L947.321 12.4453L946.946 12.2109ZM924.259 9.14063H926.603V11.7188H924.259V9.14063ZM927.329 19.5C927.329 19.8984 927.001 20.2266 926.603 20.2266C926.204 20.2266 925.876 19.8984 925.876 19.5C925.876 19.1016 926.204 18.7734 926.603 18.7734C927.001 18.7969 927.329 19.1016 927.329 19.5ZM924.259 12.1875H926.603V14.7656H924.259V12.1875ZM921.212 12.1875H923.79V14.7656H921.212V12.1875ZM927.704 23.9531C924.001 23.9297 922.009 22.6875 920.368 21.0469C920.861 21.0703 921.329 21.0938 921.751 21.0938C922.126 21.0938 922.501 21.0938 922.853 21.0703C923.767 21.0234 924.564 20.9063 925.22 20.7188C925.759 21.9609 926.743 23.1094 928.501 23.9531H927.704ZM929.65 14.7656H927.071V12.1875H929.65V14.7656ZM929.65 11.7188H927.071V9.14063H929.65V11.7188ZM932.696 14.7656H930.118V12.1875H932.696V14.7656ZM932.696 11.7188H930.118V9.14063H932.696V11.7188ZM932.696 8.67188H930.118V6.09375H932.696V8.67188ZM935.743 14.7656H933.165V12.1875H935.743V14.7656ZM926.79 19.0313C926.743 19.0078 926.673 18.9844 926.603 18.9844C926.321 18.9844 926.087 19.2188 926.087 19.5C926.087 19.7813 926.321 20.0156 926.603 20.0156C926.884 20.0156 927.118 19.7813 927.118 19.5C927.118 19.4297 927.095 19.3594 927.071 19.3125C927.025 19.3828 926.978 19.4297 926.884 19.4297C926.767 19.4297 926.673 19.3359 926.673 19.2188C926.696 19.125 926.743 19.0547 926.79 19.0313Z" fill="#019BC6"/>
<path id="mysql-icon" d="M760.609 28.7772L759.996 28.1826C759.415 27.411 758.667 26.7332 757.883 26.1705C757.257 25.7214 755.853 25.1148 755.592 24.3871L755.544 24.3414C755.987 24.2912 756.505 24.1309 756.915 24.021C757.602 23.8368 758.17 23.8844 758.88 23.7011C759.2 23.6097 759.56 23.518 759.794 23.4266V23.2438C759.56 22.8756 759.225 22.3881 758.834 22.0548C757.81 21.183 756.715 20.3118 755.564 19.5852C754.926 19.1826 754.148 18.9208 753.472 18.5793C753.245 18.4642 752.851 18.4044 752.7 18.2132C752.345 17.7604 752.154 17.1862 751.88 16.6586C751.306 15.553 750.744 14.3458 750.235 13.1826C749.888 12.3894 749.663 11.6076 749.23 10.896C747.153 7.48186 744.919 5.42147 741.456 3.396C740.719 2.96522 739.832 2.79529 738.895 2.57264C738.392 2.5424 737.889 2.5117 737.386 2.481C737.079 2.35303 736.76 1.97733 736.472 1.79498C735.324 1.07029 732.382 -0.505878 731.532 1.56647C730.996 2.87451 732.334 4.15045 732.813 4.8135C733.149 5.27803 733.579 5.79951 733.819 6.3224C733.977 6.66623 734.004 7.011 734.139 7.37451C734.472 8.27029 734.761 9.24483 735.191 10.0724C735.408 10.4915 735.648 10.9326 735.923 11.3071C736.091 11.537 736.38 11.6383 736.425 11.9931C736.143 12.3883 736.127 13.0019 735.968 13.5025C735.253 15.756 735.523 18.5572 736.563 20.2251C736.882 20.7374 737.633 21.8355 738.666 21.414C739.57 21.0461 739.422 19.9051 739.681 18.8987C739.739 18.6709 739.638 18.5031 739.872 18.3501V18.3958C740.112 18.9521 740.368 19.5011 740.641 20.042C741.251 21.0233 742.256 22.0487 743.172 22.7406C743.647 23.0994 744.091 23.7196 744.56 23.9296V23.9059H744.611C744.492 23.6715 744.306 23.6324 744.154 23.4831C743.796 23.1325 743.398 22.6905 743.103 22.2885C742.269 21.1572 741.533 19.9162 740.862 18.6271C740.541 18.0116 740.262 17.3312 739.992 16.705C739.889 16.4636 739.89 16.0975 739.673 15.9726C739.377 16.4315 738.941 16.8022 738.712 17.3444C738.346 18.2106 738.299 19.2672 738.163 20.3624C738.083 20.391 738.119 20.3713 738.072 20.4079C737.435 20.2544 737.211 19.5988 736.974 19.0361C736.375 17.6134 736.264 15.3229 736.791 13.6855C736.928 13.2615 737.544 11.9275 737.294 11.5358C737.175 11.1456 736.782 10.9194 736.563 10.6211C736.291 10.2522 736.019 9.76654 735.831 9.34045C735.341 8.23162 735.112 6.98639 734.596 5.86514C734.349 5.32912 733.932 4.78654 733.59 4.31029C733.211 3.78225 732.786 3.39342 732.492 2.75522C732.388 2.52834 732.246 2.16506 732.401 1.93186C732.45 1.77459 732.519 1.70897 732.675 1.65764C732.941 1.45303 733.679 1.72561 733.955 1.84022C734.689 2.1449 735.301 2.42615 735.922 2.83772C736.22 3.03553 736.522 3.28068 736.883 3.51506H737.294C737.938 3.51506 738.659 3.56943 739.261 3.75225C740.324 4.07545 741.276 4.5824 742.142 5.12873C744.777 6.79326 746.933 9.16467 748.407 11.9908C748.644 12.4459 748.747 12.8812 748.956 13.3637C749.377 14.3371 749.908 15.339 750.327 16.2908C750.746 17.2408 751.154 18.1991 751.745 18.9894C752.056 19.4047 753.257 19.6279 753.803 19.8587C754.186 20.0202 754.813 20.189 755.175 20.4072C755.867 20.8248 756.538 21.3222 757.188 21.7794C757.512 22.0077 758.51 22.5093 758.559 22.9227C756.951 22.8787 755.723 23.0287 754.672 23.4714C754.374 23.5972 753.898 23.6008 753.849 23.9746C754.013 24.1464 754.039 24.4033 754.169 24.6147C754.419 25.0201 754.843 25.5644 755.221 25.8494C755.634 26.1611 756.059 26.4941 756.501 26.7639C757.289 27.2437 758.167 27.5179 758.925 27.9986C759.372 28.2822 759.853 28.6391 760.288 28.9588C760.504 29.117 760.497 29.3629 760.966 29.462V29.4165C760.731 29.2302 760.744 28.9729 760.609 28.7772ZM738.117 5.49951C737.782 5.49319 737.528 5.53631 737.294 5.59068V5.6249H737.34C737.5 5.85928 737.783 6.171 737.98 6.45412L738.438 7.41693L738.483 7.37311C738.766 7.17319 738.896 6.8549 738.895 6.3674C738.781 6.24811 738.764 6.09881 738.666 5.95631C738.536 5.7667 738.282 5.65912 738.117 5.49951Z" fill="#00618A"/>
<path id="nestjs-icon" d="M322.262 0.0703125C322.051 0.0703125 321.84 0.117188 321.653 0.1875C322.051 0.445312 322.262 0.796875 322.379 1.19531C322.379 1.24219 322.403 1.28906 322.403 1.33594C322.403 1.38281 322.426 1.42969 322.426 1.47656C322.45 2.15625 322.239 2.25 322.098 2.64844C321.864 3.16406 321.934 3.72656 322.215 4.17188C322.239 4.21875 322.262 4.28906 322.309 4.33594C322.004 2.36719 323.645 2.08594 323.95 1.47656C323.973 0.9375 323.528 0.585937 323.176 0.328125C322.825 0.117187 322.543 0.0703125 322.262 0.0703125ZM324.723 0.492188C324.7 0.679688 324.723 0.632812 324.7 0.726562C324.7 0.796875 324.7 0.867188 324.676 0.9375C324.653 1.00781 324.653 1.05469 324.629 1.125C324.606 1.19531 324.583 1.24219 324.559 1.3125C324.536 1.35937 324.512 1.40625 324.489 1.47656C324.465 1.5 324.442 1.54687 324.418 1.57031C324.395 1.59375 324.395 1.61719 324.372 1.64062C324.325 1.6875 324.301 1.75781 324.254 1.80469L324.114 1.94531C324.067 1.99219 324.02 2.03906 323.973 2.0625C323.809 2.17969 323.622 2.27344 323.458 2.39062C323.411 2.4375 323.34 2.46094 323.293 2.50781C323.247 2.55469 323.2 2.57812 323.153 2.625L323.012 2.76562C322.965 2.8125 322.918 2.85938 322.895 2.92969C322.848 2.97656 322.825 3.04688 322.778 3.09375C322.754 3.16406 322.731 3.21094 322.684 3.28125C322.661 3.35156 322.637 3.39844 322.614 3.46875C322.59 3.53906 322.567 3.60938 322.567 3.65625C322.567 3.67969 322.567 3.72656 322.543 3.75C322.543 3.77344 322.543 3.82031 322.52 3.84375V4.17188C322.52 4.24219 322.52 4.28906 322.543 4.35938C322.543 4.42969 322.567 4.47656 322.59 4.54688C322.614 4.61719 322.637 4.66406 322.661 4.73438C322.684 4.78125 322.708 4.80469 322.708 4.85156L320.926 4.17188C320.622 4.07812 320.34 4.00781 320.036 3.9375C319.872 3.89062 319.708 3.86719 319.543 3.82031C319.075 3.72656 318.606 3.65625 318.137 3.60937H318.09C317.622 3.5625 317.176 3.53906 316.708 3.53906C316.356 3.53906 316.028 3.5625 315.7 3.58594C315.231 3.60938 314.762 3.67969 314.293 3.75L313.942 3.82031C313.708 3.86719 313.473 3.91406 313.239 3.98438C313.122 4.00781 313.004 4.05469 312.887 4.07812C312.77 4.125 312.653 4.17188 312.559 4.21875C312.465 4.26562 312.395 4.28906 312.301 4.33594C312.278 4.33594 312.278 4.33594 312.254 4.35938C312.184 4.40625 312.114 4.42969 312.043 4.47656C312.02 4.47656 311.997 4.5 311.997 4.5C311.903 4.54688 311.833 4.59375 311.762 4.61719C311.715 4.64063 311.645 4.66406 311.598 4.6875C311.575 4.71094 311.551 4.71094 311.528 4.73438C311.458 4.78125 311.387 4.80469 311.317 4.85156C311.247 4.89844 311.176 4.92188 311.129 4.96875C311.083 5.01563 311.012 5.03906 310.965 5.08594C310.965 5.08594 310.942 5.08594 310.942 5.10938C310.895 5.13281 310.848 5.17969 310.801 5.22656L310.778 5.25C310.731 5.27344 310.708 5.32031 310.661 5.34375C310.637 5.34375 310.637 5.36719 310.614 5.36719C310.567 5.39062 310.543 5.4375 310.497 5.46094C310.497 5.48438 310.473 5.48438 310.473 5.48438L310.168 5.78906C310.168 5.78906 310.168 5.8125 310.145 5.8125L310.028 5.92969C310.004 5.95312 309.981 5.95312 309.981 5.97656L309.84 6.11719C309.84 6.14063 309.817 6.14062 309.817 6.16406L309.606 6.375C309.489 6.51563 309.348 6.63281 309.208 6.75C309.067 6.86719 308.926 6.98438 308.762 7.10156C308.598 7.21875 308.458 7.3125 308.293 7.40625C308.129 7.5 307.965 7.57031 307.801 7.64062C307.637 7.71094 307.473 7.78125 307.309 7.82813C306.981 7.89844 306.653 8.03906 306.372 8.0625C306.372 7.94531 306.301 7.96875 306.231 7.96875C306.161 7.99219 306.09 7.99219 306.043 8.01563C305.973 8.03906 305.926 8.0625 305.856 8.08594C305.786 8.10938 305.739 8.13281 305.668 8.17969C305.622 8.22656 305.551 8.25 305.504 8.29688C305.458 8.34375 305.387 8.39062 305.34 8.4375C305.293 8.48438 305.223 8.53125 305.176 8.57812C305.129 8.625 305.083 8.67188 305.036 8.74219C304.989 8.8125 304.942 8.85938 304.918 8.92969C304.872 8.97656 304.848 9.04688 304.801 9.11719C304.778 9.1875 304.731 9.25781 304.708 9.32812L304.637 9.53906C304.614 9.60938 304.614 9.65625 304.59 9.72656V9.75C304.567 9.82031 304.567 9.91406 304.567 9.96094C304.59 9.9375 304.59 9.98438 304.59 10.0312V10.125C304.59 10.1719 304.614 10.2188 304.614 10.2656C304.637 10.3125 304.637 10.3594 304.661 10.4063C304.684 10.4531 304.708 10.5 304.754 10.5469C304.778 10.5938 304.825 10.6406 304.848 10.6875C304.895 10.7344 304.942 10.7812 304.989 10.8047C305.036 10.8516 305.083 10.8984 305.129 10.9219C305.317 11.0859 305.364 11.1328 305.598 11.2734C305.645 11.2969 305.668 11.3203 305.715 11.3438H305.739V11.3906C305.739 11.4609 305.762 11.5078 305.786 11.5781C305.809 11.6484 305.833 11.7188 305.856 11.7656L305.926 11.9062C305.926 11.9297 305.95 11.9297 305.95 11.9531C305.973 12.0234 306.02 12.0703 306.043 12.1172C306.09 12.1641 306.114 12.2344 306.161 12.2813L306.442 12.5625H306.465C306.512 12.6094 306.559 12.6328 306.606 12.6797C306.653 12.7266 306.723 12.75 306.77 12.7734C306.817 12.7969 306.887 12.8438 306.958 12.8672C307.004 12.8906 307.051 12.9141 307.122 12.9141C307.122 12.9141 307.145 12.9141 307.145 12.9375C307.168 12.9375 307.215 12.9609 307.239 12.9609C307.215 13.3828 307.215 13.7813 307.262 13.9219C307.333 14.0859 307.684 13.5938 308.012 13.0547C307.965 13.5938 307.942 14.2266 308.012 14.4141C308.106 14.6016 308.551 13.9922 308.973 13.3359C314.458 12.0703 319.473 15.8672 320.012 21.2344C319.918 20.3906 318.887 19.9219 318.395 20.0391C318.161 20.6016 317.762 21.3516 317.129 21.7969C317.176 21.2812 317.153 20.7656 317.059 20.25C316.895 20.9531 316.567 21.6328 316.098 22.1953C315.372 22.2422 314.622 21.8906 314.247 21.3516C314.223 21.3281 314.2 21.2812 314.176 21.2578C314.153 21.2109 314.129 21.1406 314.106 21.0938C314.083 21.0469 314.059 20.9766 314.059 20.9297V20.6484C314.059 20.6016 314.083 20.5312 314.106 20.4844C314.129 20.4375 314.129 20.3672 314.153 20.3203C314.176 20.2734 314.2 20.2031 314.247 20.1562C314.387 19.7812 314.387 19.4766 314.129 19.3125L313.989 19.2422C313.965 19.2422 313.918 19.2188 313.895 19.2188C313.872 19.2188 313.848 19.1953 313.825 19.1953C313.778 19.1719 313.708 19.1719 313.661 19.1484C313.614 19.125 313.543 19.125 313.497 19.125C313.45 19.125 313.379 19.1016 313.333 19.1016H313.215C313.145 19.1016 313.098 19.1016 313.051 19.125C313.004 19.125 312.934 19.1484 312.887 19.1484C312.84 19.1719 312.77 19.1719 312.723 19.1953C312.676 19.2188 312.629 19.2422 312.559 19.2656L312.418 19.3359C310.614 20.5078 311.692 23.2734 312.911 24.0703C312.442 24.1641 311.973 24.2578 311.833 24.3516L311.809 24.375C312.137 24.5859 312.489 24.75 312.864 24.8906C313.356 25.0547 313.895 25.1953 314.129 25.2656C314.762 25.4062 315.418 25.4531 316.075 25.4062C319.497 25.1719 322.309 22.5469 322.825 19.125C322.848 19.1953 322.848 19.2656 322.872 19.3359C322.895 19.4766 322.918 19.6172 322.942 19.7812C322.965 19.8516 322.965 19.9219 322.965 19.9922V20.0156C322.965 20.0859 322.989 20.1562 322.989 20.2266C322.989 20.3203 323.012 20.3906 323.012 20.4844V21.4687C323.012 21.5391 322.989 21.5859 322.989 21.6562V21.7266C322.989 21.7969 322.965 21.8672 322.965 21.9609C322.942 22.0312 322.942 22.1016 322.918 22.1719V22.1953C322.895 22.2656 322.895 22.3359 322.872 22.4062V22.4297C322.848 22.5 322.848 22.5703 322.825 22.6406V22.6641L322.754 22.875V22.8984C322.731 22.9687 322.708 23.0625 322.684 23.1328C322.661 23.2031 322.637 23.2734 322.59 23.3672C322.567 23.4375 322.543 23.5312 322.497 23.6016C322.473 23.6719 322.426 23.7422 322.403 23.8359C322.379 23.9062 322.333 23.9766 322.309 24.0469C322.309 24.0703 322.286 24.0938 322.286 24.0938C322.286 24.0938 322.286 24.1172 322.262 24.1172C321.77 25.125 321.02 26.0156 320.083 26.7188C320.012 26.7656 319.965 26.8125 319.895 26.8594C319.872 26.8828 319.848 26.8828 319.848 26.9062C319.801 26.9531 319.731 26.9766 319.684 27.0234L319.708 27.0703C319.825 27.0469 319.918 27.0469 320.036 27.0234C320.247 27 320.434 26.9531 320.645 26.9062C320.692 26.9062 320.762 26.8828 320.809 26.8594C320.856 26.8594 320.879 26.8359 320.926 26.8359C320.973 26.8359 321.043 26.8125 321.09 26.8125C321.137 26.7891 321.184 26.7891 321.231 26.7656C322.004 26.5781 322.754 26.3203 323.481 26.0156C322.239 27.7031 320.598 29.0625 318.676 29.9531C319.567 29.8828 320.458 29.7422 321.325 29.4844C324.442 28.5703 327.067 26.4609 328.637 23.625C328.309 25.4062 327.606 27.1172 326.551 28.6172C327.301 28.125 327.981 27.5391 328.614 26.9062C330.348 25.1016 331.497 22.7812 331.872 20.3203C332.129 21.5391 332.223 22.8047 332.106 24.0469C337.708 16.2422 332.575 8.15625 330.418 6.02344C330.418 6 330.395 6 330.395 5.97656C330.395 6.07031 330.395 6.16406 330.372 6.25781C330.348 6.44531 330.325 6.60938 330.301 6.77344C330.254 6.9375 330.208 7.125 330.161 7.28906C330.114 7.45313 330.043 7.61719 329.973 7.78125C329.903 7.94531 329.833 8.10938 329.739 8.25C329.645 8.39062 329.551 8.55469 329.458 8.69531C329.364 8.83594 329.247 8.97656 329.129 9.11719C329.012 9.25781 328.895 9.375 328.754 9.51562C328.684 9.58594 328.614 9.65625 328.52 9.70313C328.45 9.75 328.403 9.79688 328.333 9.86719C328.192 9.98438 328.051 10.0781 327.887 10.1719C327.747 10.2656 327.583 10.3594 327.418 10.4297L326.926 10.6406C326.762 10.7109 326.598 10.7578 326.434 10.8047C326.27 10.8516 326.083 10.8984 325.918 10.9219C325.731 10.9453 325.567 10.9688 325.403 10.9922C325.286 10.9922 325.145 11.0156 325.028 11.0156C324.84 11.0156 324.676 10.9922 324.512 10.9922C324.325 10.9688 324.161 10.9453 323.997 10.9219C323.809 10.8984 323.645 10.8516 323.481 10.7812C323.645 10.7578 323.833 10.7578 323.997 10.7109C324.184 10.6875 324.348 10.6406 324.512 10.5938C324.676 10.5469 324.864 10.5 325.004 10.4297L325.497 10.2188C325.661 10.1484 325.801 10.0547 325.965 9.96094C326.106 9.86719 326.27 9.75 326.411 9.65625C326.551 9.53906 326.692 9.42188 326.809 9.30469C326.95 9.1875 327.067 9.04688 327.184 8.92969C327.301 8.78906 327.418 8.64844 327.512 8.50781C327.536 8.48438 327.536 8.46094 327.559 8.4375C327.629 8.32031 327.723 8.17969 327.793 8.0625C327.887 7.89844 327.958 7.75781 328.028 7.59375C328.098 7.42969 328.168 7.26562 328.215 7.10156L328.356 6.60938C328.379 6.42188 328.426 6.25781 328.426 6.09375C328.45 5.90625 328.45 5.74219 328.45 5.57812C328.45 5.46094 328.45 5.32031 328.426 5.20313C328.403 5.01563 328.379 4.85156 328.356 4.6875C328.333 4.5 328.286 4.33594 328.239 4.17188C328.192 4.00781 328.122 3.84375 328.075 3.67969C328.004 3.51562 327.934 3.35156 327.864 3.21094C327.77 3.04688 327.7 2.90625 327.606 2.74219C327.512 2.60156 327.395 2.46094 327.301 2.32031C327.184 2.17969 327.067 2.0625 326.95 1.92187C326.879 1.85156 326.809 1.78125 326.739 1.73438C326.387 1.45312 326.036 1.21875 325.661 0.984375C325.614 0.960937 325.567 0.9375 325.497 0.914063C325.192 0.65625 324.958 0.585938 324.723 0.492188Z" fill="#DF234F"/>
<path id="nextjs-icon" d="M590.89 0C582.617 0 575.89 6.72656 575.89 15C575.89 23.2734 582.617 30 590.89 30C593.515 30 595.976 29.3203 598.109 28.1484L587.234 12.9609V21.5391H585.64V9.79688H587.234L599.07 27.5625C603.171 24.8906 605.89 20.2734 605.89 15C605.89 6.72656 599.164 0 590.89 0ZM596.07 19.8281L594.312 17.1797V9.79688H596.07V19.8281Z" fill="white"/>
<g id="jira-icon">
<path d="M806.533 3.75H795.701C795.701 6.45 797.886 8.63625 800.587 8.63625H802.579V10.5642C802.579 13.2642 804.765 15.4505 807.465 15.4505V4.68211C807.465 4.43496 807.367 4.19798 807.192 4.02321C807.017 3.84845 806.78 3.75019 806.533 3.75Z" fill="#2684FF"/>
<path d="M801.166 9.15H790.333C790.333 11.8498 792.519 14.036 795.218 14.036H797.211V15.964C797.211 18.664 799.398 20.8502 802.098 20.8502V10.0819C802.097 9.83478 801.999 9.59791 801.824 9.42318C801.65 9.24846 801.413 9.15037 801.166 9.15Z" fill="url(#paint2_linear_187_64728)"/>
<path d="M795.798 14.5495H784.965C784.965 17.2505 787.151 19.4358 789.852 19.4358H791.844V21.3647C791.844 24.0647 794.03 26.25 796.73 26.25V15.4826C796.73 15.2354 796.631 14.9984 796.457 14.8236C796.282 14.6487 796.045 14.55 795.798 14.5495Z" fill="url(#paint3_linear_187_64728)"/>
</g>
<path id="jest-icon" d="M1000.41 14.7702C1000.41 12.9674 999.045 11.4503 997.211 11.0174L1001.32 0.0263672H980.965L985.081 11.0521C983.305 11.5199 981.996 13.0105 981.996 14.7793C981.996 16.0792 982.713 17.2318 983.801 17.9425C983.372 18.4972 982.875 19.0089 982.312 19.494C981.252 20.3959 980.076 21.0889 978.806 21.5486C977.66 20.8464 977.164 19.6068 977.612 18.497C979.36 18.0118 980.631 16.5296 980.631 14.7875C980.631 12.647 978.711 10.9129 976.361 10.9129C974.001 10.9129 972.083 12.6552 972.083 14.7964C972.083 15.8542 972.56 16.8245 973.324 17.5175C973.257 17.6394 973.19 17.7601 973.123 17.8902C972.484 19.0869 971.757 20.439 971.48 21.9561C970.926 24.9892 971.833 27.4255 974.021 28.8034C975.253 29.5752 976.61 29.9652 978.071 29.9652C980.582 29.9652 983.133 28.8207 985.597 27.711C987.354 26.9228 989.169 26.0987 990.955 25.7005C991.614 25.5531 992.302 25.4661 993.028 25.371C994.498 25.1804 996.017 24.981 997.383 24.2614C998.978 23.421 1000.07 22.0164 1000.38 20.4043C1000.62 19.1645 1000.38 17.9167 999.771 16.8245C1000.19 16.221 1000.41 15.5042 1000.41 14.7702ZM998.549 14.7702C998.549 15.9749 997.469 16.9546 996.142 16.9546C994.814 16.9546 993.735 15.9749 993.735 14.7702C993.735 14.38 993.849 14.0075 994.05 13.6869C994.126 13.565 994.222 13.4443 994.317 13.34C994.417 13.2328 994.53 13.137 994.651 13.0543L994.661 13.0452C994.737 12.9932 994.823 12.9409 994.909 12.8896C994.909 12.8896 994.919 12.8896 994.919 12.8804C994.957 12.8631 994.995 12.8373 995.034 12.82C995.043 12.82 995.052 12.8108 995.062 12.8108C995.101 12.7944 995.148 12.7771 995.196 12.7595C995.241 12.7437 995.286 12.7264 995.33 12.7075C995.339 12.7075 995.349 12.6981 995.358 12.6981C995.396 12.6901 995.435 12.6725 995.472 12.6643C995.483 12.6643 995.502 12.6552 995.511 12.6552C995.559 12.647 995.597 12.6379 995.645 12.6294H995.655L995.798 12.6029C995.807 12.6029 995.826 12.6029 995.836 12.5947C995.874 12.5947 995.912 12.5856 995.95 12.5856H995.998C996.046 12.5856 996.094 12.5774 996.151 12.5774H996.275C996.313 12.5774 996.342 12.5774 996.38 12.5856H996.399C996.476 12.595 996.552 12.6029 996.629 12.6205C997.717 12.8282 998.549 13.7127 998.549 14.7702ZM983.629 1.75957H998.653L995.205 10.9909C995.062 11.0174 994.918 11.0603 994.776 11.1034L991.147 4.38621L987.507 11.06C987.364 11.0171 987.211 10.9907 987.059 10.9649L983.629 1.75957ZM990.458 14.0155C990.277 13.2006 989.818 12.4729 989.169 11.9354L991.147 8.31269L993.142 12.0132C992.55 12.5507 992.12 13.2355 991.948 14.0155H990.458ZM985.674 12.6468C985.721 12.6374 985.76 12.6294 985.807 12.6203H985.835C985.874 12.6121 985.913 12.6121 985.95 12.6027H985.989C986.027 12.6027 986.055 12.5945 986.094 12.5945H986.466C986.504 12.5945 986.533 12.6027 986.562 12.6027C986.581 12.6027 986.59 12.6027 986.609 12.6121C986.648 12.6203 986.676 12.6203 986.715 12.6294C986.724 12.6294 986.734 12.6294 986.753 12.6376C986.801 12.6468 986.848 12.655 986.886 12.6641H986.896C986.934 12.6723 986.973 12.6805 987.01 12.6981C987.02 12.6981 987.029 12.7072 987.049 12.7072C987.077 12.7154 987.115 12.7246 987.144 12.7419C987.154 12.7419 987.163 12.7501 987.173 12.7501C987.211 12.7677 987.249 12.7768 987.288 12.7942H987.297C987.344 12.8106 987.383 12.8279 987.421 12.8546H987.431C987.469 12.872 987.507 12.8975 987.546 12.9149C987.555 12.9149 987.555 12.9243 987.564 12.9243C987.602 12.9407 987.631 12.9671 987.669 12.9845L987.68 12.9927C987.794 13.0707 987.899 13.1577 988.003 13.2446L988.014 13.2529C988.109 13.348 988.204 13.4523 988.281 13.565C988.529 13.9119 988.673 14.3195 988.673 14.7615C988.673 15.9664 987.593 16.9452 986.266 16.9452C984.938 16.9452 983.859 15.9664 983.859 14.7615C983.849 13.7471 984.623 12.8893 985.674 12.6468ZM976.275 12.5854C977.602 12.5854 978.682 13.565 978.682 14.7697C978.682 15.9746 977.602 16.9541 976.275 16.9541C974.947 16.9541 973.868 15.9746 973.868 14.7697C973.868 13.565 974.947 12.5854 976.275 12.5854ZM998.491 20.1011C998.281 21.2096 997.526 22.1811 996.418 22.7614C995.377 23.308 994.097 23.481 992.75 23.6542C992.015 23.7493 991.242 23.8536 990.496 24.0184C988.51 24.4607 986.6 25.3276 984.747 26.1589C982.378 27.2256 980.143 28.2308 978.071 28.2308C976.992 28.2308 976.027 27.9536 975.11 27.373C973.009 26.0556 973.113 23.5855 973.362 22.2332C973.591 20.9671 974.231 19.7797 974.843 18.6444C974.88 18.5748 974.91 18.5143 974.947 18.4447C975.158 18.5143 975.377 18.5666 975.606 18.6013C975.244 20.4388 976.275 22.3368 978.281 23.2733L978.644 23.4463L979.035 23.3162C980.707 22.7788 982.254 21.9036 983.62 20.7334C984.394 20.0743 985.053 19.3639 985.607 18.5921C985.826 18.6271 986.046 18.6362 986.266 18.6362C988.253 18.6362 989.923 17.3964 990.401 15.7321H992.005C992.483 17.4048 994.155 18.636 996.142 18.636C996.935 18.636 997.67 18.4368 998.3 18.0988C998.549 18.7487 998.625 19.4244 998.491 20.1011Z" fill="#99425B"/>
<g id="jetbrains-icon">
<path d="M1188.11 13.9516L1181.22 8.11804C1180.84 7.80331 1180.38 7.60635 1179.89 7.55172C1179.4 7.49708 1178.91 7.58719 1178.47 7.81081C1178.04 8.03442 1177.67 8.38166 1177.43 8.80926C1177.19 9.23686 1177.08 9.72591 1177.12 10.2155C1177.15 10.7053 1177.33 11.1738 1177.63 11.5626C1177.93 11.9514 1178.34 12.2433 1178.8 12.4017H1178.83L1178.89 12.4219L1187.59 15.0696C1187.65 15.0926 1187.72 15.1043 1187.78 15.1052C1187.92 15.1044 1188.05 15.0596 1188.16 14.9776C1188.27 14.8956 1188.34 14.7809 1188.38 14.6508C1188.42 14.5207 1188.41 14.3823 1188.36 14.2565C1188.31 14.1307 1188.22 14.0243 1188.11 13.9535L1188.11 13.9516Z" fill="url(#paint4_linear_187_64728)"/>
<path d="M1189.49 4.3214C1189.49 3.99332 1189.4 3.67087 1189.24 3.38833C1189.07 3.1058 1188.83 2.87373 1188.54 2.71679C1188.25 2.55986 1187.93 2.48392 1187.6 2.49706C1187.27 2.5102 1186.96 2.61192 1186.68 2.7914L1178.26 7.90172C1177.88 8.15097 1177.57 8.50037 1177.38 8.91193C1177.18 9.3235 1177.1 9.78148 1177.14 10.2361C1177.19 10.6906 1177.35 11.1244 1177.63 11.4903C1177.9 11.8563 1178.27 12.1405 1178.69 12.3121C1179.11 12.4837 1179.58 12.5362 1180.03 12.4638C1180.48 12.3914 1180.9 12.197 1181.25 11.9016L1188.79 5.75297L1188.85 5.70351C1189.05 5.53258 1189.21 5.32057 1189.32 5.08199C1189.43 4.84341 1189.49 4.58412 1189.49 4.3214Z" fill="url(#paint5_linear_187_64728)"/>
<path d="M1201.73 15.3333L1188.96 3.03492C1188.73 2.80301 1188.44 2.63781 1188.12 2.55675C1187.8 2.4757 1187.47 2.48178 1187.16 2.57437C1186.84 2.6671 1186.56 2.84287 1186.34 3.08316C1186.11 3.32345 1185.96 3.61933 1185.89 3.93961C1185.82 4.26008 1185.84 4.593 1185.95 4.90322C1186.06 5.21344 1186.24 5.48945 1186.49 5.70211L1186.51 5.72203L1200.08 17.1516C1200.26 17.3017 1200.48 17.3977 1200.71 17.4281C1200.94 17.4586 1201.18 17.4223 1201.39 17.3236C1201.6 17.2245 1201.78 17.0672 1201.9 16.87C1202.03 16.6728 1202.1 16.444 1202.1 16.2103C1202.1 16.0471 1202.06 15.8856 1202 15.7351C1201.94 15.5846 1201.85 15.448 1201.73 15.3333Z" fill="url(#paint6_linear_187_64728)"/>
<path d="M1202.1 16.215C1202.1 15.9884 1202.04 15.7658 1201.92 15.5719C1201.8 15.378 1201.63 15.2205 1201.43 15.1169C1201.23 15.0133 1201.01 14.9676 1200.78 14.9849C1200.55 15.0023 1200.34 15.082 1200.15 15.2152L1184.7 22.7644C1184.39 22.9191 1184.12 23.136 1183.9 23.4013C1183.68 23.6666 1183.52 23.9747 1183.42 24.3061C1183.33 24.6375 1183.3 24.985 1183.34 25.3269C1183.39 25.6689 1183.51 25.9977 1183.68 26.2928C1183.86 26.5879 1184.1 26.8429 1184.38 27.0418C1184.66 27.2406 1184.98 27.379 1185.32 27.4482C1185.66 27.5175 1186.01 27.5161 1186.35 27.4441C1186.68 27.3721 1187 27.2311 1187.28 27.03L1201.57 17.2228C1201.73 17.1103 1201.87 16.9598 1201.96 16.7842C1202.05 16.6086 1202.1 16.4132 1202.1 16.215Z" fill="url(#paint7_linear_187_64728)"/>
<path d="M1184.51 10.0003H1194.51V19.9997H1184.51V10.0003Z" fill="black"/>
<path d="M1185.6 18.1247H1189.35V18.75H1185.6V18.1247ZM1185.45 12.5784L1185.72 12.3148C1185.78 12.3998 1185.87 12.454 1185.97 12.4603C1186.08 12.4603 1186.15 12.3853 1186.15 12.2398V11.2537H1186.58V12.2433C1186.58 12.323 1186.57 12.4033 1186.55 12.4788C1186.52 12.5543 1186.48 12.6234 1186.42 12.6818C1186.37 12.7369 1186.3 12.7801 1186.23 12.8087C1186.15 12.8373 1186.07 12.8508 1185.99 12.8484C1185.89 12.8524 1185.78 12.8299 1185.69 12.7827C1185.59 12.7356 1185.51 12.6654 1185.45 12.5784ZM1186.77 11.2537H1188.03V11.618H1187.19V11.857H1187.94V12.1903H1187.2V12.4383H1188.03V12.8046H1186.76L1186.77 11.2537ZM1188.64 11.6318H1188.17V11.2537H1189.54V11.6318H1189.07V12.8137H1188.64V11.6318ZM1185.62 13.4297H1186.36C1186.43 13.4234 1186.51 13.4324 1186.58 13.4562C1186.66 13.4799 1186.72 13.5179 1186.78 13.568C1186.85 13.6359 1186.89 13.7264 1186.88 13.8218C1186.88 13.8977 1186.86 13.972 1186.82 14.0343C1186.77 14.0967 1186.71 14.144 1186.64 14.1696C1186.82 14.2036 1186.96 14.3655 1186.95 14.5514C1186.95 14.8334 1186.73 15 1186.36 15H1185.62V13.4297ZM1186.45 13.9113C1186.45 13.8253 1186.38 13.7787 1186.26 13.7787H1186.04V14.0515H1186.25C1186.38 14.0515 1186.46 14.0067 1186.46 13.917L1186.45 13.9113ZM1186.3 14.3545H1186.04V14.6428H1186.31C1186.44 14.6428 1186.52 14.5917 1186.52 14.5001C1186.51 14.4112 1186.45 14.3548 1186.31 14.3548L1186.3 14.3545ZM1187.09 13.4297H1187.78C1187.97 13.4152 1188.15 13.4747 1188.29 13.5966C1188.38 13.6936 1188.43 13.8253 1188.43 13.9598C1188.43 14.0635 1188.4 14.1656 1188.34 14.2519C1188.29 14.3382 1188.2 14.4045 1188.11 14.4415L1188.48 15H1187.98L1187.66 14.5266H1187.52V15H1187.09L1187.09 13.4297ZM1187.76 14.1797C1187.9 14.1797 1187.99 14.1082 1187.99 13.9929C1187.99 13.8684 1187.9 13.8054 1187.75 13.8054H1187.52V14.1834L1187.76 14.1797Z" fill="white"/>
<path d="M1189.03 13.418H1189.45L1190.11 14.9918H1189.65L1189.54 14.7098H1188.93L1188.82 15H1188.37L1189.03 13.418ZM1189.41 14.3737L1189.23 13.9315L1189.06 14.3737H1189.41ZM1190.18 13.4252H1190.61V14.9862H1190.18V13.4252ZM1190.77 13.4252H1191.18L1191.74 14.2584V13.425H1192.17V14.9859H1191.79L1191.2 14.1305V14.9864H1190.77L1190.77 13.4252ZM1192.24 14.7546L1192.48 14.4663C1192.62 14.584 1192.8 14.6504 1192.98 14.6548C1193.1 14.6548 1193.16 14.6137 1193.16 14.547C1193.16 14.478 1193.11 14.4452 1192.9 14.3948C1192.56 14.318 1192.31 14.2282 1192.31 13.9069C1192.31 13.6167 1192.54 13.407 1192.91 13.407C1193.15 13.3982 1193.37 13.4719 1193.56 13.6148L1193.35 13.9113C1193.22 13.8162 1193.07 13.7628 1192.91 13.7585C1192.81 13.7585 1192.75 13.7998 1192.75 13.8584C1192.75 13.9298 1192.81 13.9617 1193.03 14.0102C1193.38 14.088 1193.61 14.2052 1193.61 14.4966C1193.61 14.8151 1193.35 14.9962 1192.98 14.9962C1192.71 15.0082 1192.45 14.9221 1192.24 14.7546Z" fill="white"/>
</g>
<g id="java-icon">
<path d="M1032.27 22.997C1032.27 22.997 1031.15 23.6471 1033.06 23.8665C1035.38 24.1314 1036.57 24.0934 1039.12 23.6106C1039.12 23.6106 1039.79 24.0313 1040.73 24.396C1035 26.8499 1027.77 24.2537 1032.27 22.997ZM1031.57 19.7943C1031.57 19.7943 1030.31 20.7221 1032.23 20.9204C1034.7 21.1761 1036.66 21.197 1040.05 20.5454C1040.05 20.5454 1040.51 21.02 1041.25 21.2793C1034.32 23.3043 1026.61 21.4386 1031.57 19.7943Z" fill="#0074BD"/>
<path d="M1037.47 14.3605C1038.88 15.9859 1037.1 17.4472 1037.1 17.4472C1037.1 17.4472 1040.68 15.5978 1039.03 13.2807C1037.5 11.121 1036.32 10.0482 1042.7 6.34793C1042.7 6.34793 1032.68 8.84871 1037.47 14.3605Z" fill="#EA2D2E"/>
<path d="M1045.04 25.3663C1045.04 25.3663 1045.87 26.0483 1044.13 26.5754C1040.82 27.5767 1030.37 27.8786 1027.47 26.6155C1026.42 26.1613 1028.38 25.5315 1029 25.3986C1029.64 25.2596 1030.01 25.285 1030.01 25.285C1028.84 24.4677 1022.5 26.8904 1026.78 27.5854C1038.46 29.4782 1048.07 26.7329 1045.04 25.3663ZM1032.8 16.4753C1032.8 16.4753 1027.49 17.7383 1030.92 18.1975C1032.37 18.3915 1035.26 18.347 1037.96 18.1211C1040.16 17.9361 1042.36 17.5412 1042.36 17.5412C1042.36 17.5412 1041.59 17.8738 1041.03 18.2568C1035.63 19.6773 1025.2 19.0157 1028.2 17.5635C1030.74 16.3356 1032.8 16.4753 1032.8 16.4753ZM1042.34 21.8066C1047.83 18.955 1045.29 16.2144 1043.52 16.5836C1043.09 16.6738 1042.89 16.7523 1042.89 16.7523C1042.89 16.7523 1043.06 16.4994 1043.36 16.3907C1046.87 15.159 1049.56 20.0242 1042.23 21.9512C1042.23 21.9512 1042.32 21.8746 1042.34 21.8066Z" fill="#0074BD"/>
<path d="M1039.03 0.37207C1039.03 0.37207 1042.07 3.41332 1036.15 8.0884C1031.4 11.8398 1035.07 13.9782 1036.15 16.4225C1033.38 13.9211 1031.34 11.7186 1032.71 9.66903C1034.71 6.66106 1040.26 5.20207 1039.03 0.37207Z" fill="#EA2D2E"/>
<path d="M1033.34 29.5363C1038.61 29.8731 1046.7 29.3488 1046.89 26.856C1046.89 26.856 1046.53 27.801 1042.54 28.5507C1038.04 29.3973 1032.5 29.2986 1029.21 28.7556C1029.21 28.7556 1029.88 29.3136 1033.34 29.5363Z" fill="#0074BD"/>
</g>
<g id="js-icon">
<path d="M197.227 0.330078H226.567V29.6703H197.227V0.330078Z" fill="#F0DB4F"/>
<path d="M224.166 22.6726C223.951 21.3341 223.078 20.2098 220.493 19.1614C219.595 18.7487 218.593 18.4531 218.295 17.7725C218.189 17.3764 218.175 17.1533 218.242 16.9135C218.434 16.1354 219.363 15.8928 220.099 16.1159C220.574 16.2748 221.022 16.6402 221.293 17.2231C222.559 16.4033 222.557 16.4087 223.441 15.8452C223.117 15.3434 222.944 15.1119 222.732 14.8972C221.971 14.0466 220.933 13.6086 219.274 13.6421L218.41 13.7539C217.581 13.9632 216.792 14.398 216.329 14.9809C214.94 16.5568 215.336 19.3149 217.026 20.45C218.691 21.6997 221.137 21.984 221.45 23.1526C221.754 24.5832 220.398 25.0463 219.051 24.8818C218.058 24.6753 217.506 24.1707 216.909 23.2531C215.81 23.889 215.81 23.889 214.681 24.5387C214.949 25.1244 215.23 25.3895 215.679 25.8969C217.804 28.0527 223.123 27.9467 224.077 24.6838C224.115 24.5717 224.372 23.8245 224.166 22.6726ZM213.177 13.8148H210.433L210.422 20.9098C210.422 22.4188 210.5 23.802 210.254 24.226C209.853 25.0599 208.812 24.9566 208.338 24.7948C207.856 24.5577 207.61 24.2204 207.326 23.7437C207.248 23.6068 207.189 23.5009 207.17 23.4927L204.938 24.8591C205.309 25.6206 205.856 26.2815 206.556 26.7109C207.602 27.3385 209.007 27.5309 210.477 27.1934C211.434 26.9148 212.26 26.3375 212.692 25.4588C213.317 24.3069 213.183 22.9126 213.177 21.3704C213.191 18.8544 213.177 16.3388 213.177 13.8148Z" fill="#323330"/>
</g>
<path id="git-icon" d="M658.918 13.6823L646.001 0.764961C645.257 0.0210547 644.051 0.0210547 643.306 0.764961L640.624 3.44762L644.027 6.85027C644.818 6.58332 645.724 6.76238 646.354 7.39262C646.988 8.02683 647.165 8.94113 646.892 9.73472L650.171 13.0143C650.965 12.7408 651.88 12.9175 652.514 13.5522C653.4 14.4375 653.4 15.8725 652.514 16.7582C652.303 16.9689 652.053 17.136 651.778 17.25C651.503 17.364 651.208 17.4226 650.91 17.4226C650.612 17.4226 650.318 17.364 650.042 17.25C649.767 17.136 649.517 16.9689 649.307 16.7582C648.99 16.4417 648.775 16.0387 648.687 15.5999C648.599 15.1612 648.643 14.7062 648.813 14.2924L645.755 11.2343L645.755 19.2829C645.977 19.3922 646.179 19.5369 646.355 19.7114C647.24 20.5966 647.24 22.0312 646.355 22.9183C645.469 23.8036 644.033 23.8036 643.149 22.9183C642.263 22.0314 642.263 20.5968 643.149 19.7114C643.361 19.4989 643.613 19.3308 643.891 19.2168V11.0936C643.613 10.98 643.36 10.8118 643.149 10.5989C642.478 9.92855 642.316 8.94418 642.66 8.12012L639.306 4.76551L630.448 13.6225C630.091 13.98 629.89 14.4647 629.89 14.9702C629.89 15.4756 630.091 15.9604 630.448 16.3178L643.366 29.2352C644.11 29.9791 645.316 29.9791 646.061 29.2352L658.919 16.3778C659.276 16.0203 659.477 15.5355 659.477 15.03C659.477 14.5246 659.276 14.0398 658.918 13.6823Z" fill="#F34F29"/>
<path id="firebase-icon" d="M876.24 18.8718L878.743 2.83117C878.83 2.28508 879.564 2.15383 879.822 2.64367L882.512 7.67805L876.24 18.8718ZM894.039 22.7695L891.65 7.99445C891.578 7.53508 891.004 7.34758 890.673 7.67805L875.622 22.7695L883.951 27.4452C884.209 27.5871 884.498 27.6614 884.793 27.6614C885.087 27.6614 885.376 27.5871 885.634 27.4452L894.039 22.7695ZM887.277 9.87883L885.348 6.21086C885.133 5.79367 884.542 5.79367 884.326 6.21086L875.854 21.3163L887.277 9.87883Z" fill="#F58220"/>
<path id="aws-icon" d="M152.573 18.1562L149.901 19.3037L152.376 20.3617L155.245 19.3037L152.573 18.1562ZM148.556 19.5906L148.467 24.7548L152.376 26.4763V21.1147L148.556 19.5906ZM156.59 19.5906L153.057 20.9356V25.9923L156.59 24.5577V19.5906ZM160.804 3.52393L158.114 4.67143L160.606 5.72963L163.475 4.67143L160.804 3.52393ZM157.074 5.04807V10.2123L160.409 11.1807L160.517 6.48244L157.074 5.04807ZM164.533 5.33494L161.377 6.67979V11.7545L164.533 10.3199V5.33494ZM148.171 10.7924L145.499 11.9401L147.974 12.9981L150.843 11.9401L148.171 10.7924ZM144.154 12.227L144.064 17.3912L147.974 19.1127V13.7511L144.154 12.227ZM152.187 12.227L148.655 13.5718V18.6282L152.187 17.1939V12.227ZM156.778 10.6011L154.106 11.7488L156.581 12.8068L159.45 11.7488L156.778 10.6011ZM152.761 12.0357L152.672 17.2002L156.581 18.9217V13.5599L152.761 12.0357ZM160.795 12.0357L157.262 13.3806V18.4374L160.795 17.0028V12.0357ZM169.211 3.52393L166.539 4.67143L169.014 5.72963L171.883 4.67143L169.211 3.52393ZM165.194 4.95854L165.105 10.1228L169.014 11.844V6.48244L165.194 4.95854ZM173.227 4.95854L169.695 6.30338V11.36L173.227 9.92565V4.95854Z" fill="#F7A80D"/>
<g id="Vector">
<path d="M52.0957 17.6719C53.5713 17.6719 54.7676 16.4756 54.7676 15C54.7676 13.5244 53.5713 12.3281 52.0957 12.3281C50.6201 12.3281 49.4238 13.5244 49.4238 15C49.4238 16.4756 50.6201 17.6719 52.0957 17.6719Z" fill="#61DAFB"/>
<path d="M62.2441 10.5937C61.7285 10.4062 61.1895 10.2187 60.627 10.0547C60.7676 9.49219 60.8848 8.92968 60.9785 8.39062C61.4707 5.29687 60.9316 3.11719 59.4316 2.27344C58.9863 2.01562 58.4941 1.89844 57.9316 1.89844C56.291 1.89844 54.2051 3.11719 52.0957 5.15625C49.9863 3.11719 47.9004 1.89844 46.2598 1.89844C45.6973 1.89844 45.2051 2.01562 44.7598 2.27344C43.2598 3.14062 42.7207 5.32031 43.2129 8.39062C43.3066 8.92968 43.4238 9.49219 43.5645 10.0547C43.002 10.2187 42.4629 10.3828 41.9473 10.5937C39.0176 11.7187 37.4238 13.2656 37.4238 15C37.4238 16.7344 39.041 18.2812 41.9473 19.4062C42.4629 19.5937 43.002 19.7812 43.5645 19.9453C43.4238 20.5078 43.3066 21.0703 43.2129 21.6094C42.7207 24.7031 43.2598 26.8828 44.7598 27.7266C45.2051 27.9844 45.6973 28.1016 46.2598 28.1016C47.9238 28.1016 50.0098 26.8828 52.0957 24.8437C54.2051 26.8828 56.291 28.1016 57.9316 28.1016C58.4941 28.1016 58.9863 27.9844 59.4316 27.7266C60.9316 26.8594 61.4707 24.6797 60.9785 21.6094C60.8848 21.0703 60.7676 20.5078 60.627 19.9453C61.1895 19.7812 61.7285 19.6172 62.2441 19.4062C65.1738 18.2812 66.7676 16.7344 66.7676 15C66.7676 13.2656 65.1738 11.7187 62.2441 10.5937ZM58.7754 3.44531C59.7363 4.00781 60.0645 5.74219 59.666 8.20312C59.5957 8.69531 59.4785 9.21094 59.3379 9.75C58.1191 9.46875 56.8301 9.28125 55.4707 9.16406C54.6738 8.03906 53.8535 7.03125 53.0332 6.11719C54.7676 4.40625 56.5254 3.23437 57.9551 3.23437C58.2598 3.23437 58.541 3.30469 58.7754 3.44531ZM56.1504 17.3437C55.7285 18.0937 55.2363 18.8437 54.7207 19.5937C53.8535 19.6641 52.9863 19.6875 52.0957 19.6875C51.1816 19.6875 50.3145 19.6641 49.4707 19.5937C48.9551 18.8437 48.4863 18.0937 48.0645 17.3437C47.6191 16.5703 47.1973 15.7734 46.8223 15C47.1973 14.2266 47.6191 13.4297 48.0645 12.6562C48.4863 11.9062 48.9785 11.1562 49.4941 10.4062C50.3613 10.3359 51.2285 10.3125 52.1191 10.3125C53.0332 10.3125 53.9004 10.3359 54.7441 10.4062C55.2598 11.1562 55.7285 11.9062 56.1504 12.6562C56.5957 13.4297 57.0176 14.2266 57.3926 15C56.9941 15.7734 56.5957 16.5469 56.1504 17.3437ZM58.0957 16.5703C58.4473 17.3906 58.7285 18.1875 58.9863 18.9844C58.1895 19.1719 57.3457 19.3125 56.4551 19.4297C56.7363 18.9844 57.041 18.5156 57.2988 18.0234C57.5801 17.5312 57.8379 17.0391 58.0957 16.5703ZM52.0957 22.9219C51.5332 22.3125 50.9941 21.6562 50.4785 20.9766C51.0176 21 51.5566 21.0234 52.0957 21.0234C52.6348 21.0234 53.1738 21 53.7129 20.9766C53.1973 21.6562 52.6582 22.3125 52.0957 22.9219ZM47.7363 19.4062C46.8457 19.2891 46.002 19.1484 45.2051 18.9609C45.4629 18.1875 45.7441 17.3672 46.0957 16.5469C46.3535 17.0156 46.6113 17.5078 46.8926 17.9766C47.1738 18.4922 47.4551 18.9375 47.7363 19.4062ZM46.0957 13.4297C45.7441 12.6094 45.4629 11.8125 45.2051 11.0156C46.002 10.8281 46.8457 10.6875 47.7363 10.5703C47.4551 11.0156 47.1504 11.4844 46.8926 11.9766C46.6113 12.4687 46.3535 12.9609 46.0957 13.4297ZM52.0957 7.07812C52.6582 7.6875 53.1973 8.34375 53.7129 9.02344C53.1738 9 52.6348 8.97656 52.0957 8.97656C51.5566 8.97656 51.0176 9 50.4785 9.02344C50.9941 8.34375 51.5332 7.6875 52.0957 7.07812ZM57.2988 12L56.4551 10.5937C57.3457 10.7109 58.1895 10.8516 58.9863 11.0391C58.7285 11.8125 58.4473 12.6328 58.0957 13.4531C57.8379 12.9609 57.5801 12.4687 57.2988 12ZM44.5254 8.20312C44.127 5.74219 44.4551 4.00781 45.416 3.44531C45.6504 3.30469 45.9316 3.23437 46.2363 3.23437C47.6426 3.23437 49.4004 4.38281 51.1582 6.11719C50.3379 7.00781 49.5176 8.03906 48.7207 9.16406C47.3613 9.28125 46.0723 9.49219 44.8535 9.75C44.7129 9.21094 44.6191 8.69531 44.5254 8.20312ZM38.7363 15C38.7363 13.8984 40.0723 12.7266 42.416 11.8594C42.8848 11.6719 43.4004 11.5078 43.916 11.3672C44.291 12.5391 44.7598 13.7812 45.3223 15.0234C44.7598 16.2656 44.2676 17.4844 43.916 18.6562C40.6816 17.7187 38.7363 16.3125 38.7363 15ZM45.416 26.5547C44.4551 25.9922 44.127 24.2578 44.5254 21.7969C44.5957 21.3047 44.7129 20.7891 44.8535 20.25C46.0723 20.5312 47.3613 20.7187 48.7207 20.8359C49.5176 21.9609 50.3379 22.9687 51.1582 23.8828C49.4238 25.5937 47.666 26.7656 46.2363 26.7656C45.9316 26.7656 45.6504 26.6953 45.416 26.5547ZM59.666 21.7969C60.0645 24.2578 59.7363 25.9922 58.7754 26.5547C58.541 26.6953 58.2598 26.7656 57.9551 26.7656C56.5488 26.7656 54.791 25.6172 53.0332 23.8828C53.8535 22.9922 54.6738 21.9609 55.4707 20.8359C56.8301 20.7187 58.1191 20.5078 59.3379 20.25C59.4785 20.7891 59.5723 21.3047 59.666 21.7969ZM61.7754 18.1406C61.3066 18.3281 60.791 18.4922 60.2754 18.6328C59.9004 17.4609 59.4316 16.2187 58.8691 14.9766C59.4316 13.7344 59.9238 12.5156 60.2754 11.3437C63.5098 12.2812 65.4551 13.6875 65.4551 15C65.4551 16.1016 64.0957 17.2734 61.7754 18.1406Z" fill="#61DAFB"/>
</g>
<g id="redux-icon">
<path d="M485.183 20.6508C483.073 24.9633 479.38 27.8648 474.493 28.8187C473.744 29.0023 472.974 29.0921 472.203 29.0859C469.391 29.0859 466.812 27.9141 465.561 25.9945C463.88 23.4375 463.308 18.0164 468.849 14.0062C468.962 14.618 469.191 15.457 469.344 15.9539C468.256 16.762 467.366 17.8061 466.74 19.0078C465.708 21.0328 465.823 23.0555 467.044 24.9258C467.888 26.1867 469.224 26.9531 470.942 27.1875C473.088 27.4591 475.265 27.0491 477.165 26.0156C480.144 24.45 482.129 22.5797 483.427 20.0227C483.06 19.6432 482.843 19.1437 482.816 18.6164C482.796 18.0506 483.002 17.5001 483.387 17.0857C483.773 16.6714 484.308 16.427 484.873 16.4062H484.953C485.503 16.4035 486.034 16.6124 486.434 16.9897C486.835 17.3671 487.075 17.8839 487.105 18.4334C487.135 18.9829 486.953 19.5229 486.596 19.9418C486.239 20.3606 485.735 20.6262 485.187 20.6836L485.183 20.6508ZM491.902 15.9164C494.764 19.1602 494.841 22.9781 493.735 25.193C492.704 27.2156 489.985 29.2406 486.329 29.2406C484.622 29.2058 482.943 28.802 481.407 28.057C481.944 27.675 482.705 27.0633 483.125 26.6812C484.309 27.1944 485.584 27.4669 486.875 27.4828C489.242 27.4828 491.035 26.3766 492.104 24.3539C492.791 23.018 492.83 21.4523 492.181 19.8492C491.385 17.8322 489.967 16.1207 488.133 14.9625C485.728 13.341 482.892 12.4765 479.991 12.4805H479.305C479.144 12.8504 478.884 13.1681 478.553 13.3975C478.221 13.627 477.832 13.7591 477.43 13.7789H477.357C476.8 13.7721 476.268 13.5484 475.873 13.1555C475.479 12.7625 475.253 12.2312 475.244 11.6744C475.235 11.1176 475.443 10.5792 475.824 10.1734C476.206 9.76773 476.73 9.5267 477.287 9.50156H477.364C477.752 9.50185 478.132 9.60897 478.462 9.81116C478.793 10.0133 479.062 10.3028 479.239 10.6477H479.851C484.726 10.6477 489.005 12.518 491.902 15.9164ZM472.508 21.307C472.468 20.9178 472.562 20.5266 472.775 20.1984C470.637 16.4953 469.494 11.8008 471.249 6.91406C472.508 3.24141 475.676 0.759375 479.112 0.759375C482.778 0.759375 486.596 3.96797 487.053 10.1508C486.481 9.96094 485.647 9.68203 485.145 9.57891C485.021 7.55625 483.312 2.51719 479.265 2.59219C477.814 2.63203 475.676 3.31875 474.577 4.72969C473.218 6.41395 472.427 8.48578 472.318 10.6477C472.06 13.612 472.756 16.5811 474.303 19.1227C474.388 19.0914 474.48 19.0787 474.57 19.0852H474.645C475.212 19.0749 475.76 19.2903 476.168 19.6839C476.576 20.0775 476.811 20.6171 476.821 21.184C476.832 21.7509 476.616 22.2986 476.223 22.7068C475.829 23.1149 475.289 23.3499 474.723 23.3602H474.645C474.092 23.3582 473.561 23.1429 473.163 22.7591C472.765 22.3753 472.53 21.8526 472.508 21.3V21.307Z" fill="#764ABC"/>
</g>
<g id="ts-icon">
<path d="M95.7293 11.0157H119.089V28.2821H95.7293V11.0157Z" fill="white"/>
<path d="M90.7676 29.6274H120.064V0.330566H90.7676V29.6274ZM114.376 13.8071C115.078 13.97 115.716 14.337 116.209 14.8618C116.481 15.1446 116.717 15.4594 116.912 15.7993C116.912 15.8368 115.646 16.6923 114.875 17.1704C114.847 17.1892 114.735 17.0673 114.611 16.8821C114.47 16.6392 114.27 16.436 114.029 16.2913C113.789 16.1466 113.515 16.0652 113.235 16.0548C112.346 15.9938 111.775 16.4603 111.779 17.2267C111.772 17.4175 111.816 17.6068 111.906 17.7751C112.1 18.1806 112.464 18.422 113.603 18.9142C115.7 19.8165 116.598 20.4118 117.156 21.2579C117.779 22.1954 117.918 23.7095 117.496 24.8298C117.027 26.0485 115.879 26.8759 114.254 27.1501C113.512 27.2351 112.763 27.2272 112.023 27.1267C110.889 26.9397 109.844 26.3953 109.042 25.5728C108.772 25.2751 108.247 24.4993 108.28 24.4431C108.366 24.3796 108.456 24.3224 108.55 24.272L109.635 23.672L110.476 23.1845L110.652 23.4446C110.949 23.869 111.326 24.2306 111.763 24.5087C112.7 25.0009 113.98 24.9329 114.613 24.3634C114.825 24.1547 114.958 23.8781 114.987 23.5817C115.017 23.2854 114.942 22.988 114.775 22.7415C114.54 22.4157 114.071 22.1415 112.761 21.5696C111.25 20.9181 110.598 20.5149 110.003 19.8728C109.631 19.449 109.357 18.949 109.199 18.4079C109.081 17.7897 109.064 17.1566 109.147 16.5329C109.459 15.0728 110.554 14.0532 112.152 13.7509C112.892 13.6593 113.642 13.6798 114.376 13.8118V13.8071ZM107.5 15.0353V16.2353H103.696V27.0704H100.998V16.2329H97.1848V15.061C97.1729 14.6569 97.1823 14.2525 97.2129 13.8493C97.2316 13.8282 99.5566 13.8282 102.369 13.8282H107.486L107.5 15.0353Z" fill="#007ACC"/>
</g>
<g id="webpack-icon">
<path d="M1251.9 22.9922L1239.93 29.7656V24.4898L1247.38 20.3906L1251.9 22.9922ZM1252.72 22.2516V8.09766L1248.34 10.6289V19.725L1252.72 22.2492L1252.72 22.2516ZM1226.92 22.9922L1238.87 29.7609V24.4898L1231.42 20.3906L1226.92 22.9922ZM1226.1 22.2516V8.09766L1230.48 10.6289V19.725L1226.1 22.2516ZM1226.61 7.18125L1238.88 0.234375V5.33437L1231.02 9.65859L1230.96 9.69375L1226.61 7.18125ZM1252.2 7.18125L1239.93 0.234375V5.33437L1247.8 9.65625L1247.86 9.69141L1252.2 7.18125H1252.2Z" fill="#8ED6FB"/>
<path d="M1238.88 23.2899L1231.53 19.2422V11.2313L1238.88 15.4688V23.2899ZM1239.93 23.2899L1247.29 19.2469V11.2313L1239.93 15.4688V23.2899ZM1232.02 10.3125L1239.41 6.24844L1246.79 10.3125L1239.41 14.5688L1232.02 10.3125Z" fill="#1C78C0"/>
</g>
<g id="mongodb-icon">
<path fill-rule="evenodd" clip-rule="evenodd" d="M12.6338 10.0342C13.01 11.1224 13.2809 12.2333 13.37 13.3848C13.4806 14.8133 13.43 16.2318 13.1288 17.6368C13.1206 17.6755 13.1033 17.7118 13.0904 17.7493C12.9959 17.7496 12.8996 17.7378 12.8073 17.7521C12.027 17.8747 11.2475 18.0018 10.468 18.1281C9.66218 18.2586 8.85522 18.384 8.05085 18.5235C7.76585 18.5727 7.41312 18.5139 7.29804 18.9081C7.29476 18.9189 7.26194 18.9207 7.24296 18.9268L7.28187 16.5711L7.24225 10.8871L7.61772 10.8226C8.23179 10.7221 8.84585 10.6201 9.46038 10.5224C10.1937 10.4059 10.9278 10.2927 11.6616 10.179C11.9853 10.1286 12.3094 10.0825 12.6338 10.0342Z" fill="#439934"/>
<path fill-rule="evenodd" clip-rule="evenodd" d="M6.46765 25.794C6.07156 25.4535 5.66164 25.1279 5.28195 24.7698C3.2389 22.8428 1.74453 20.5747 1.00859 17.8403C0.805853 17.0877 0.670619 16.3229 0.62726 15.5453C0.596791 15.001 0.552728 14.4519 0.591165 13.9105C0.693587 12.4705 0.901713 11.0443 1.32406 9.6573L1.34726 9.62496C1.38828 9.67957 1.44734 9.72785 1.4682 9.78949C1.88046 11.0036 2.28968 12.2186 2.69679 13.4343C3.97601 17.2546 5.25359 21.0758 6.53492 24.8952C6.56 24.9697 6.62492 25.0309 6.67156 25.0982L6.46765 25.794Z" fill="#45A538"/>
<path fill-rule="evenodd" clip-rule="evenodd" d="M12.6338 10.0342C12.3094 10.0825 11.9853 10.1286 11.6616 10.179C10.9278 10.2927 10.1937 10.4059 9.46038 10.5224C8.84585 10.6201 8.23179 10.7221 7.61772 10.8226L7.24225 10.8871L7.23921 10.6417C7.22679 10.4404 7.20546 10.2393 7.20312 10.0379C7.18695 8.75402 7.17687 7.47012 7.16093 6.18621C7.15109 5.38254 7.13632 4.5791 7.11992 3.77566C7.10984 3.27644 7.09906 2.77699 7.07656 2.27848C7.06437 2.01059 7.02124 1.7441 7.00367 1.47621C6.99382 1.32223 7.00742 1.16707 7.01046 1.01238C7.20195 1.3834 7.38921 1.75723 7.58609 2.12543C7.8971 2.70762 8.39257 3.13652 8.83859 3.60457C10.6018 5.45426 11.8536 7.60488 12.6338 10.0342Z" fill="#46A037"/>
<path fill-rule="evenodd" clip-rule="evenodd" d="M7.24296 18.9268C7.26194 18.9207 7.29476 18.9189 7.29804 18.9081C7.41312 18.5139 7.76585 18.5727 8.05085 18.5235C8.85522 18.384 9.66218 18.2586 10.468 18.1281C11.2475 18.0018 12.027 17.8747 12.8073 17.7521C12.8996 17.7378 12.9959 17.7496 13.0904 17.7493C12.9446 18.2696 12.8295 18.801 12.6446 19.307C12.4346 19.881 12.1805 20.4411 11.9108 20.9903C11.5069 21.8093 11.0071 22.5775 10.4218 23.2785C9.97202 23.8194 9.47069 24.3193 8.96819 24.8132C8.69046 25.0862 8.36304 25.3086 8.05835 25.554L7.97936 25.5001L7.69483 25.2568L7.40046 24.6116C7.19938 23.8589 7.08969 23.0847 7.07374 22.3058L7.07913 22.1743L7.11921 21.6057C7.13257 21.4117 7.15038 21.2179 7.15858 21.0233C7.18882 20.3244 7.2153 19.6257 7.24296 18.9268Z" fill="#409433"/>
<path fill-rule="evenodd" clip-rule="evenodd" d="M7.24296 18.9268C7.2153 19.6257 7.18882 20.3244 7.15858 21.0233C7.15038 21.2179 7.13257 21.4117 7.11921 21.6057L6.94038 21.6737C6.54218 20.5014 6.14374 19.3414 5.75398 18.1785C5.10945 16.2545 4.47265 14.3275 3.82906 12.403C3.30923 10.8497 2.7858 9.29757 2.25874 7.74668C2.23413 7.67402 2.16335 7.61731 2.11413 7.55309L3.26163 5.44324C3.30101 5.51168 3.35304 5.57566 3.37788 5.64926C3.90934 7.22007 4.43809 8.79179 4.96413 10.3644C5.64757 12.4105 6.32679 14.4582 7.00976 16.5046C7.03695 16.5864 7.08195 16.6618 7.12484 16.7535L7.28187 16.5711L7.24296 18.9268Z" fill="#4FAA41"/>
<path fill-rule="evenodd" clip-rule="evenodd" d="M2.11413 7.55309C2.16335 7.61731 2.23413 7.67402 2.25874 7.74668C2.7858 9.29757 3.30923 10.8497 3.82906 12.403C4.47265 14.3275 5.10945 16.2545 5.75398 18.1785C6.14374 19.3414 6.54218 20.5014 6.94038 21.6737L7.11921 21.6057L7.07913 22.1743L7.04351 22.3058C6.98117 22.9283 6.92867 23.5522 6.85273 24.1733C6.81453 24.4846 6.7332 24.7899 6.67156 25.0982C6.62492 25.0309 6.56 24.9697 6.53492 24.8952C5.25359 21.0758 3.97601 17.2546 2.69679 13.4343C2.28968 12.2186 1.88046 11.0036 1.4682 9.78949C1.44734 9.72785 1.38828 9.67957 1.34726 9.62496L2.11413 7.55309Z" fill="#4AA73C"/>
<path fill-rule="evenodd" clip-rule="evenodd" d="M7.28187 16.5711L7.12484 16.7535C7.08195 16.6618 7.03695 16.5864 7.00976 16.5046C6.32679 14.4582 5.64757 12.4105 4.96413 10.3644C4.43809 8.79179 3.90934 7.22007 3.37788 5.64926C3.35304 5.57566 3.30101 5.51168 3.26163 5.44324L4.68054 3.57668C4.72531 3.63645 4.78906 3.68965 4.81226 3.75691C5.20624 4.91027 5.59671 6.06504 5.98484 7.22051C6.34742 8.29957 6.7046 9.38027 7.0714 10.4579C7.09601 10.5301 7.18203 10.5807 7.23921 10.6417L7.24225 10.8871C7.25585 12.7813 7.26874 14.6764 7.28187 16.5711Z" fill="#57AE47"/>
<path fill-rule="evenodd" clip-rule="evenodd" d="M7.23921 10.6417C7.18203 10.5807 7.09601 10.5301 7.0714 10.4579C6.7046 9.38027 6.34742 8.29957 5.98484 7.22051C5.59671 6.06504 5.20624 4.91027 4.81226 3.75691C4.78906 3.68965 4.72531 3.63645 4.68054 3.57668C5.14203 3.1248 5.58969 2.65629 6.06969 2.22527C6.49649 1.84231 6.83961 1.43168 6.85532 0.826523C6.85602 0.801445 6.86914 0.776367 6.8893 0.706055L7.01046 1.01238C7.00742 1.16707 6.99382 1.32223 7.00367 1.47621C7.02124 1.7441 7.06437 2.01059 7.07656 2.27848C7.09906 2.77699 7.10984 3.27644 7.11992 3.77566C7.13632 4.5791 7.15109 5.38254 7.16093 6.18621C7.17687 7.47012 7.18695 8.75402 7.20312 10.0379C7.20546 10.2393 7.22679 10.4404 7.23921 10.6417Z" fill="#60B24F"/>
<path fill-rule="evenodd" clip-rule="evenodd" d="M6.67156 25.0982C6.7332 24.7899 6.81453 24.4846 6.85273 24.1733C6.92867 23.5522 6.98117 22.9283 7.04351 22.3058L7.05851 22.3032L7.07374 22.3058C7.08969 23.0847 7.19938 23.8589 7.40046 24.6116C7.35921 24.666 7.30108 24.7145 7.27929 24.7759C7.1089 25.2564 6.94835 25.7406 6.77702 26.2211C6.75358 26.2867 6.68843 26.3378 6.64249 26.3954L6.46765 25.794L6.67156 25.0982Z" fill="#A9AA88"/>
<path fill-rule="evenodd" clip-rule="evenodd" d="M6.64249 26.3954C6.68843 26.3378 6.75358 26.2867 6.77702 26.2211C6.94835 25.7406 7.1089 25.2564 7.27929 24.7759C7.30108 24.7145 7.35921 24.666 7.40046 24.6116L7.69483 25.2568C7.63671 25.3393 7.5568 25.4141 7.52445 25.506L6.96102 27.1604C6.93781 27.2268 6.8586 27.2736 6.80563 27.3296L6.64249 26.3954Z" fill="#B6B598"/>
<path fill-rule="evenodd" clip-rule="evenodd" d="M6.80563 27.3296C6.8586 27.2736 6.93781 27.2268 6.96102 27.1604L7.52445 25.506C7.5568 25.4141 7.63671 25.3393 7.69483 25.2568L7.97936 25.5001C7.84179 25.6361 7.76585 25.7931 7.81179 25.9916L7.72531 26.2747C7.68593 26.3232 7.62898 26.3654 7.60953 26.421C7.41289 26.9842 7.22515 27.5504 7.0271 28.1136C7.00203 28.1851 6.93242 28.2411 6.8832 28.3039C6.85765 27.9789 6.83164 27.6547 6.80563 27.3296Z" fill="#C2C1A7"/>
<path fill-rule="evenodd" clip-rule="evenodd" d="M6.8832 28.3039C6.93242 28.2411 7.00203 28.1851 7.0271 28.1136C7.22515 27.5504 7.41289 26.9842 7.60953 26.421C7.62898 26.3654 7.68593 26.3232 7.72531 26.2747L7.60624 27.5743C7.57436 27.6111 7.52819 27.6432 7.51296 27.6861C7.37819 28.0644 7.25116 28.4455 7.11593 28.8238C7.08804 28.9018 7.0346 28.9707 6.99288 29.0436C6.95585 28.9951 6.88952 28.9482 6.88647 28.8976C6.87452 28.7005 6.8825 28.502 6.8832 28.3039Z" fill="#CECDB7"/>
<path fill-rule="evenodd" clip-rule="evenodd" d="M6.99288 29.0436C7.0346 28.9707 7.08804 28.9018 7.11593 28.8238C7.25116 28.4455 7.37819 28.0644 7.51296 27.6861C7.52819 27.6432 7.57436 27.6111 7.60624 27.5743L7.60882 28.4275L7.32335 29.1597L6.99288 29.0436Z" fill="#DBDAC7"/>
<path fill-rule="evenodd" clip-rule="evenodd" d="M7.32335 29.1597L7.60882 28.4275L7.66765 29.2939L7.32335 29.1597Z" fill="#EBE9DC"/>
<path fill-rule="evenodd" clip-rule="evenodd" d="M7.81179 25.9916C7.76585 25.7931 7.84179 25.6361 7.97936 25.5001L8.05835 25.554L7.81179 25.9916Z" fill="#CECDB7"/>
<path fill-rule="evenodd" clip-rule="evenodd" d="M7.07374 22.3058L7.05851 22.3032L7.04351 22.3058L7.07913 22.1743L7.07374 22.3058Z" fill="#4FAA41"/>
</g>
<g id="vscode-icon">
<path d="M1124.23 10.5568C1124.23 10.5568 1123.52 10.0433 1124.37 9.35842L1126.36 7.57858C1126.36 7.57858 1126.93 6.97882 1127.53 7.50171L1145.85 21.4067V28.0747C1145.85 28.0747 1145.84 29.1219 1144.5 29.0065L1124.23 10.5568Z" fill="#2489CA"/>
<path d="M1128.95 14.8543L1124.23 19.1581C1124.23 19.1581 1123.75 19.5197 1124.23 20.1671L1126.42 22.1656C1126.42 22.1656 1126.95 22.7269 1127.72 22.0887L1132.72 18.283L1128.95 14.8543Z" fill="#1070B3"/>
<path d="M1137.25 14.8899L1145.91 8.26062L1145.85 1.6285C1145.85 1.6285 1145.48 0.181004 1144.25 0.934989L1132.72 11.4493L1137.25 14.8899Z" fill="#0877B9"/>
<path d="M1144.5 29.0148C1145 29.5311 1145.61 29.3616 1145.61 29.3616L1152.36 26.0284C1153.23 25.4377 1153.11 24.7053 1153.11 24.7053V4.79632C1153.11 3.92093 1152.21 3.61882 1152.21 3.61882L1146.36 0.79202C1145.08 6.66976e-05 1144.25 0.934989 1144.25 0.934989C1144.25 0.934989 1145.32 0.157332 1145.85 1.6285L1145.85 27.9531C1145.85 28.1342 1145.81 28.3116 1145.74 28.472C1145.58 28.7841 1145.25 29.0743 1144.45 28.9527L1144.5 29.0148Z" fill="#3C99D4"/>
</g>
<g id="eslint-icon">
<path d="M1079.67 11.5313L1085.18 8.34375C1085.32 8.27344 1085.48 8.27344 1085.63 8.34375L1091.16 11.5313C1091.3 11.6016 1091.39 11.7656 1091.39 11.9063V18.2813C1091.39 18.4453 1091.3 18.5859 1091.16 18.6797L1085.65 21.8672C1085.51 21.9375 1085.34 21.9375 1085.2 21.8672L1079.67 18.6797C1079.53 18.6094 1079.44 18.4453 1079.44 18.2813V11.9063C1079.44 11.7656 1079.53 11.6016 1079.67 11.5313Z" fill="#8080F2"/>
<path d="M1099.76 14.4375L1093.17 2.95312C1092.94 2.53125 1092.49 2.22656 1092 2.22656H1078.83C1078.36 2.22656 1077.91 2.53125 1077.66 2.95312L1071.07 14.4141C1070.84 14.8359 1070.84 15.3516 1071.07 15.7734L1077.66 27.1641C1077.89 27.5859 1078.34 27.7969 1078.83 27.7969H1092.02C1092.49 27.7969 1092.94 27.5859 1093.2 27.1875L1099.78 15.7969C1100.02 15.3281 1100.02 14.8359 1099.76 14.4375ZM1094.3 19.9453C1094.3 20.1094 1094.2 20.2734 1094.04 20.3437L1085.65 25.1953C1085.51 25.2891 1085.32 25.2891 1085.18 25.1953L1076.77 20.3672C1076.63 20.2734 1076.51 20.1328 1076.51 19.9687V10.2422C1076.51 10.0781 1076.6 9.91406 1076.77 9.84375L1085.18 4.99219C1085.32 4.89844 1085.51 4.89844 1085.65 4.99219L1094.06 9.84375C1094.2 9.9375 1094.32 10.0781 1094.32 10.2422V19.9453H1094.3Z" fill="#4B32C3"/>
</g>
</g>
<defs>
<linearGradient id="paint0_linear_187_64728" x1="410.7" y1="2.2956" x2="428.298" y2="23.2046" gradientUnits="userSpaceOnUse">
<stop stop-color="#41D1FF"/>
<stop offset="1" stop-color="#BD34FE"/>
</linearGradient>
<linearGradient id="paint1_linear_187_64728" x1="426.964" y1="0.561546" x2="430.138" y2="21.9672" gradientUnits="userSpaceOnUse">
<stop stop-color="#FFEA83"/>
<stop offset="0.083" stop-color="#FFDD35"/>
<stop offset="1" stop-color="#FFA800"/>
</linearGradient>
<linearGradient id="paint2_linear_187_64728" x1="807.034" y1="3.77389" x2="798.17" y2="12.8638" gradientUnits="userSpaceOnUse">
<stop offset="0.176" stop-color="#0052CC"/>
<stop offset="1" stop-color="#2684FF"/>
</linearGradient>
<linearGradient id="paint3_linear_187_64728" x1="796.816" y1="14.591" x2="791.488" y2="19.7754" gradientUnits="userSpaceOnUse">
<stop offset="0.176" stop-color="#0052CC"/>
<stop offset="1" stop-color="#2684FF"/>
</linearGradient>
<linearGradient id="paint4_linear_187_64728" x1="1183.4" y1="11.2732" x2="1204.07" y2="18.0072" gradientUnits="userSpaceOnUse">
<stop offset="0.21" stop-color="#FE2857"/>
<stop offset="1" stop-color="#293896"/>
</linearGradient>
<linearGradient id="paint5_linear_187_64728" x1="1177.68" y1="25.3686" x2="1202.87" y2="10.2668" gradientUnits="userSpaceOnUse">
<stop stop-color="#FE2857"/>
<stop offset="0.01" stop-color="#FE2857"/>
<stop offset="0.86" stop-color="#FF318C"/>
</linearGradient>
<linearGradient id="paint6_linear_187_64728" x1="1178.69" y1="4.33092" x2="1202.43" y2="24.1415" gradientUnits="userSpaceOnUse">
<stop offset="0.02" stop-color="#FF318C"/>
<stop offset="0.21" stop-color="#FE2857"/>
<stop offset="0.86" stop-color="#FDB60D"/>
</linearGradient>
<linearGradient id="paint7_linear_187_64728" x1="1199.87" y1="2.46625" x2="1172.76" y2="14.9011" gradientUnits="userSpaceOnUse">
<stop offset="0.01" stop-color="#FDB60D"/>
<stop offset="0.86" stop-color="#FCF84A"/>
</linearGradient>
</defs>
</svg>
