<svg width="30" height="30" viewBox="0 0 30 30" fill="none" xmlns="http://www.w3.org/2000/svg">
<g id="ts-icon" class="icon-group">
<path d="M4.96172 10.6852H28.3219V27.9516H4.96172V10.6852Z" fill="white"/>
<path d="M0 29.2969H29.2969V0H0V29.2969ZM23.6086 13.4766C24.3103 13.6394 24.948 14.0064 25.4414 14.5312C25.713 14.814 25.9491 15.1288 26.1445 15.4688C26.1445 15.5062 24.8789 16.3617 24.1078 16.8398C24.0797 16.8586 23.9672 16.7367 23.843 16.5516C23.7022 16.3087 23.5022 16.1054 23.2616 15.9607C23.021 15.816 22.7477 15.7347 22.4672 15.7242C21.5789 15.6633 21.007 16.1297 21.0117 16.8961C21.0044 17.0869 21.0481 17.2762 21.1383 17.4445C21.3328 17.85 21.6961 18.0914 22.8352 18.5836C24.9328 19.4859 25.8305 20.0812 26.3883 20.9273C27.0117 21.8648 27.15 23.3789 26.7281 24.4992C26.2594 25.718 25.1109 26.5453 23.4867 26.8195C22.7449 26.9045 21.9954 26.8966 21.2555 26.7961C20.1215 26.6092 19.0769 26.0647 18.2742 25.2422C18.0047 24.9445 17.4797 24.1687 17.5125 24.1125C17.5981 24.049 17.6881 23.9918 17.782 23.9414L18.8672 23.3414L19.7086 22.8539L19.8844 23.1141C20.181 23.5384 20.5586 23.9 20.9953 24.1781C21.9328 24.6703 23.2125 24.6023 23.8453 24.0328C24.0578 23.8241 24.1903 23.5475 24.2199 23.2512C24.2494 22.9548 24.1741 22.6575 24.007 22.4109C23.7727 22.0852 23.3039 21.8109 21.9937 21.2391C20.482 20.5875 19.8305 20.1844 19.2352 19.5422C18.8635 19.1184 18.5891 18.6184 18.4312 18.0773C18.3135 17.4592 18.2961 16.8261 18.3797 16.2023C18.6914 14.7422 19.7859 13.7227 21.3844 13.4203C22.1246 13.3287 22.8745 13.3493 23.6086 13.4812V13.4766ZM16.732 14.7047V15.9047H12.9281V26.7398H10.2305V15.9023H6.41719V14.7305C6.40531 14.3263 6.4147 13.9219 6.44531 13.5188C6.46406 13.4977 8.78906 13.4977 11.6016 13.4977H16.718L16.732 14.7047Z" fill="#007ACC"/>
</g>
</svg>
