<svg width="30" height="30" viewBox="0 0 30 30" fill="none" xmlns="http://www.w3.org/2000/svg">
<g id="vite-icon">
<path d="M29.3544 4.4403L15.5194 29.6084C15.2337 30.1281 14.4998 30.1311 14.2099 29.614L0.100628 4.44264C-0.215289 3.87921 0.258357 3.19663 0.88605 3.31086L14.7359 5.82922C14.8243 5.84528 14.9147 5.84512 15.003 5.82875L28.5632 3.31437C29.1888 3.19838 29.6647 3.8757 29.3544 4.4403Z" fill="url(#paint0_linear_216_31624)"/>
<path d="M21.3333 0.00738622L11.095 2.04834C11.0132 2.06464 10.9391 2.10814 10.8842 2.172C10.8294 2.23585 10.7969 2.31644 10.792 2.4011L10.1622 13.2222C10.1588 13.2816 10.169 13.3409 10.192 13.3955C10.215 13.4502 10.2502 13.4986 10.2949 13.537C10.3395 13.5754 10.3923 13.6026 10.4491 13.6166C10.5059 13.6306 10.5651 13.6309 10.6221 13.6176L13.4726 12.9483C13.7393 12.8857 13.9803 13.1247 13.9254 13.3975L13.0786 17.6165C13.0216 17.9004 13.2836 18.1432 13.5561 18.0589L15.3168 17.5148C15.5897 17.4305 15.852 17.674 15.7942 17.9581L14.4484 24.5851C14.3642 24.9996 14.9062 25.2256 15.1321 24.8703L15.2832 24.633L23.6259 7.69484C23.7657 7.41125 23.5247 7.08787 23.2186 7.14803L20.2844 7.7241C20.0087 7.77818 19.7742 7.51694 19.8519 7.2426L21.767 0.488774C21.8449 0.213729 21.6093 -0.0476228 21.3333 0.00738622Z" fill="url(#paint1_linear_216_31624)"/>
</g>
<defs>
<linearGradient id="paint0_linear_216_31624" x1="-0.243861" y1="2.2956" x2="17.3535" y2="23.2046" gradientUnits="userSpaceOnUse">
<stop stop-color="#41D1FF"/>
<stop offset="1" stop-color="#BD34FE"/>
</linearGradient>
<linearGradient id="paint1_linear_216_31624" x1="16.0196" y1="0.561546" x2="19.1941" y2="21.9672" gradientUnits="userSpaceOnUse">
<stop stop-color="#FFEA83"/>
<stop offset="0.083" stop-color="#FFDD35"/>
<stop offset="1" stop-color="#FFA800"/>
</linearGradient>
</defs>
</svg>
