<svg width="30" height="29" viewBox="0 0 30 29" fill="none" xmlns="http://www.w3.org/2000/svg">
<g id="vscode-icon" class="icon-group">
<path d="M0.276867 10.0832C0.276867 10.0832 -0.432586 9.56963 0.419836 8.88479L2.40452 7.10495C2.40452 7.10495 2.97312 6.50518 3.57382 7.02807L21.8961 20.9331V27.601C21.8961 27.601 21.8869 28.6482 20.5468 28.5329L0.276867 10.0832Z" fill="#2489CA"/>
<path d="M5.00023 14.3807L0.276867 18.6845C0.276867 18.6845 -0.208289 19.0461 0.276867 19.6935L2.46968 21.692C2.46968 21.692 2.99046 22.2533 3.76062 21.6151L8.76663 17.8093L5.00023 14.3807Z" fill="#1070B3"/>
<path d="M13.2912 14.4163L21.9521 7.78698L21.8961 1.15487C21.8961 1.15487 21.5262 -0.292629 20.2922 0.461356L8.76663 10.9757L13.2912 14.4163Z" fill="#0877B9"/>
<path d="M20.5466 28.5411C21.0493 29.0575 21.6591 28.888 21.6591 28.888L28.4084 25.5547C29.2726 24.9641 29.1516 24.2317 29.1516 24.2317V4.32269C29.1516 3.4473 28.2582 3.14519 28.2582 3.14519L22.408 0.318387C21.1299 -0.473566 20.2922 0.461356 20.2922 0.461356C20.2922 0.461356 21.3687 -0.316301 21.8961 1.15487L21.8961 27.4794C21.8961 27.6606 21.8577 27.838 21.7808 27.9983C21.627 28.3105 21.2919 28.6007 20.4908 28.479L20.5466 28.5411Z" fill="#3C99D4"/>
</g>
</svg>
