<svg width="27" height="30" viewBox="0 0 27 30" fill="none" xmlns="http://www.w3.org/2000/svg">
<g id="webpack-icon">
<path d="M25.8 22.7578L13.8351 29.5312V24.2555L21.2789 20.1562L25.8 22.7578ZM26.6203 22.0172V7.86328L22.2422 10.3945V19.4906L26.618 22.0148L26.6203 22.0172ZM0.820312 22.7578L12.7734 29.5266V24.2555L5.32734 20.1562L0.820312 22.7578ZM0 22.0172V7.86328L4.37812 10.3945V19.4906L0 22.0172ZM0.513281 6.94687L12.7851 0V5.1L4.92187 9.42422L4.85859 9.45938L0.513281 6.94687ZM26.1023 6.94687L13.8351 0V5.1L21.6984 9.42188L21.7617 9.45703L26.1035 6.94892L26.107 6.94687H26.1023Z" fill="#8ED6FB"/>
<path d="M12.7852 23.0555L5.42812 19.0078V10.9969L12.7852 15.2344V23.0555ZM13.8352 23.0555L21.1922 19.0125V10.9969L13.8352 15.2344V23.0555ZM5.92734 10.0781L13.3102 6.01407L20.693 10.0781L13.3102 14.3344L5.92734 10.0781Z" fill="#1C78C0"/>
<path fill-rule="evenodd" clip-rule="evenodd" d="M13.8351 29.5312V24.2555L21.2789 20.1562L25.8 22.7578L26.6203 22.0172L26.618 22.0148L22.2422 19.4906V10.3945L26.6203 7.86328L26.1035 6.94892L21.7617 9.45703L21.6984 9.42188L13.8351 5.1V0H12.7851V5.1L4.92187 9.42422L4.85859 9.45938L0.513281 6.94687L0 7.86328L4.37812 10.3945V19.4906L0 22.0172L0.820312 22.7578L5.32734 20.1562L12.7734 24.2555V29.5266L13.8351 29.5312ZM5.42812 19.0078L12.7852 23.0555V15.2344L5.42812 10.9969V19.0078ZM21.1922 19.0125L13.8352 23.0555V15.2344L21.1922 10.9969V19.0125ZM13.3102 6.01407L5.92734 10.0781L13.3102 14.3344L20.693 10.0781L13.3102 6.01407Z" fill="white"/>
</g>
</svg>
