<svg width="638" height="635" viewBox="0 0 638 635" fill="none" xmlns="http://www.w3.org/2000/svg">
<g id="Group">
<path id="Vector" opacity="0.14" d="M300.56 19.6C310.44 17.4 320.54 15.83 330.82 14.91C341.14 14.19 351.66 14.18 362.38 14.9C373.13 15.89 384.06 17.64 395.14 20.1C406.22 22.87 417.38 26.35 428.54 30.5C439.6 34.93 450.52 39.99 461.15 45.62C471.48 51.47 481.3 57.83 490.44 64.65C498.98 71.6 506.57 78.95 513.04 86.65C518.66 94.39 522.99 102.43 525.93 110.71C528.02 118.99 528.8 127.47 528.38 136.12C527.54 144.73 525.94 153.49 523.88 162.38C522.31 171.21 521.02 180.16 520.4 189.23C521.3 198.23 523.53 207.36 527.35 216.6C533.22 225.78 540.77 235.1 549.86 244.54C560.44 253.94 571.81 263.49 583.37 273.18C594.78 282.84 605.06 292.66 613.5 302.62C619.9 312.58 623.39 322.68 623.62 332.93C621.03 343.17 615.38 353.3 607.19 363.3C597.41 373.29 586.34 383.13 574.73 392.78C563.55 402.4 553.09 411.81 543.85 420.96C536.46 430.04 530.82 438.82 526.93 447.24C525.1 455.56 524.7 463.47 525.38 470.91C527.31 478.21 529.56 485 531.7 491.22C534.71 499.98 534.68 514.14 530.67 519.5C526.54 522.71 520.99 525.33 514.17 527.39C506.51 529.41 497.81 530.98 488.29 532.14C478.25 533.45 467.65 534.51 456.71 535.4C445.54 536.67 434.22 537.94 422.89 539.3C411.52 541.25 400.24 543.44 389.12 545.91C378.05 549.12 367.16 552.67 356.49 556.57C345.88 561.19 335.47 566.1 325.28 571.21C315.12 576.85 305.16 582.5 295.39 588.01C285.63 593.67 276.27 598.77 267.31 603.17C258.33 607.31 249.73 610.5 241.49 612.68C233.2 614.29 225.26 614.74 217.64 614.03C209.94 612.62 202.53 610.04 195.38 606.35C188.08 601.99 180.97 596.62 174.04 590.33C166.88 583.54 159.8 575.98 152.78 567.77C145.46 559.26 138.13 550.27 130.78 540.9C123.1 531.41 115.39 521.68 107.67 511.8C99.7001 501.94 91.7801 492.01 83.9901 482.06C76.1301 472.22 68.5401 462.4 61.3301 452.63C54.3001 443 47.8201 433.41 42.0101 423.88C36.5901 414.48 31.9501 405.1 28.1501 395.75C24.8301 386.5 22.3501 377.25 20.6901 367.98C19.3801 358.77 18.7401 349.52 18.7201 340.23C18.7301 330.97 19.1101 321.63 19.7901 312.24C20.1401 302.86 20.5901 293.4 21.0701 283.89C21.0301 274.37 21.0001 265.02 21.0001 255.86C20.5901 246.7 20.3701 237.73 20.4401 228.99C20.4101 220.26 20.8801 211.77 21.9601 203.55C23.2701 195.35 25.3601 187.44 28.2401 179.84C31.5801 172.28 35.7601 165.05 40.7601 158.17C46.2001 151.32 52.3601 144.83 59.1601 138.72C66.2301 132.64 73.7701 126.92 81.6801 121.58C89.6101 116.23 97.7501 111.24 106.01 106.6C114.1 101.9 122.22 97.51 130.33 93.44C138.15 89.23 145.96 85.29 153.74 81.59C161.22 77.69 168.73 73.99 176.3 70.47C183.61 66.69 191.05 63.05 198.65 59.56C206.07 55.78 213.72 52.13 221.63 48.63C229.42 44.84 237.52 41.22 245.94 37.8C254.31 34.18 263.03 30.81 272.13 27.75C281.19 24.61 290.66 21.87 300.55 19.6" stroke="url(#paint0_linear_68_15574)" stroke-width="2" stroke-linecap="round" stroke-dasharray="7 3"/>
<path id="Vector_2" opacity="0.83" d="M326.83 31.7337C336.62 30.2397 346.546 29.3669 356.578 29.123C366.628 29.0509 376.799 29.689 387.041 31.0139C397.285 32.5995 407.578 34.9005 417.873 37.8932C428.108 41.1624 438.274 45.1285 448.265 49.7138C458.069 54.5565 467.569 59.9994 476.621 65.9619C485.31 72.1093 493.353 78.7325 500.607 85.751C507.262 92.8675 512.931 100.315 517.479 108.035C521.293 115.773 523.919 123.728 525.301 131.845C526.062 139.939 525.742 148.167 524.49 156.519C523.082 164.821 521.183 173.258 519.095 181.812C517.668 190.373 516.681 199.095 516.475 207.973C517.769 216.906 520.35 226.061 524.382 235.408C530.232 244.843 537.53 254.492 546.088 264.339C555.844 274.241 566.15 284.312 576.449 294.483C586.47 304.614 595.325 314.793 602.397 324.957C607.564 334.976 610.039 344.925 609.505 354.762C606.417 364.408 600.526 373.726 592.273 382.707C582.523 391.582 571.501 400.177 559.875 408.509C548.48 416.836 537.61 424.961 527.729 432.864C519.408 440.818 512.606 448.558 507.395 456.049C504.067 463.564 502.144 470.776 501.361 477.608C502.393 487.555 506.232 504.738 507.141 511.73C506.512 517.801 498.261 526.471 490.531 529.183C484.214 530.762 476.877 531.868 468.677 532.582C459.925 533.437 450.529 534.037 440.663 534.483C430.482 535.277 419.999 536.081 409.371 536.954C398.604 538.379 387.782 540.021 377.012 541.907C366.184 544.47 355.456 547.342 344.866 550.513C334.261 554.326 323.799 558.389 313.535 562.616C303.259 567.314 293.153 572.014 283.267 576.568C273.372 581.253 263.903 585.446 254.88 589.009C245.833 592.34 237.205 594.839 228.994 596.414C220.758 597.486 212.906 597.523 205.419 596.503C197.867 594.847 190.64 592.131 183.697 588.383C176.627 584.024 169.785 578.699 163.114 572.513C156.258 565.834 149.495 558.389 142.817 550.318C135.873 541.908 128.954 532.988 122.043 523.668C114.874 514.18 107.715 504.411 100.589 494.444C93.2953 484.445 86.1091 474.344 79.1167 464.196C72.1193 454.118 65.4519 444.053 59.2026 434.028C53.1851 424.13 47.7439 414.302 42.9783 404.562C38.6246 394.951 35.0461 385.436 32.2842 375.998C29.9641 366.691 28.462 357.442 27.7372 348.258C27.3181 339.146 27.5282 330.068 28.3175 321.021C29.0955 311.994 30.2147 302.96 31.6054 293.916C32.6562 284.857 33.7797 275.764 34.9145 266.651C35.5306 257.502 36.1134 248.541 36.6914 239.79C36.8604 231.01 37.1742 222.45 37.7105 214.148C38.137 205.837 38.9942 197.818 40.3809 190.106C41.9764 182.419 44.2697 175.073 47.3092 168.089C50.7564 161.155 54.9989 154.598 60.0155 148.436C65.4802 142.316 71.6485 136.596 78.4405 131.271C85.5518 125.969 93.1471 121.052 101.127 116.503C109.209 111.941 117.537 107.717 126.022 103.835C134.412 99.8666 142.863 96.1828 151.323 92.7804C159.575 89.2229 167.799 85.9041 175.998 82.804C183.951 79.4861 191.903 76.3385 199.871 73.3725C207.618 70.1403 215.446 67.0441 223.373 64.0953C231.14 60.8644 239.088 57.7767 247.215 54.842C255.249 51.6501 263.532 48.6362 272.08 45.8514C280.571 42.8623 289.374 40.1557 298.494 37.7823C307.589 35.327 317.027 33.2869 326.82 31.743" stroke="url(#paint1_linear_68_15574)" stroke-width="2" stroke-linecap="round" stroke-dasharray="8 7"/>
<path id="Vector_3" opacity="0.96" d="M350.691 45.9837C360.31 45.1777 369.966 44.9628 379.649 45.3376C389.308 45.8906 398.983 47.1026 408.619 48.9552C418.199 51.0526 427.713 53.8275 437.087 57.2389C446.333 60.9049 455.36 65.1962 464.071 70.069C472.538 75.1698 480.558 80.7928 488.005 86.89C495.056 93.1431 501.373 99.7972 506.847 106.776C511.763 113.837 515.704 121.153 518.585 128.673C520.86 136.198 522.072 143.884 522.239 151.675C521.994 159.448 520.896 167.322 519.108 175.289C517.401 183.259 515.431 191.372 513.474 199.609C512.302 207.937 511.676 216.474 511.876 225.239C513.517 234.168 516.33 243.385 520.458 252.869C526.154 262.546 533.063 272.506 540.96 282.687C549.811 292.983 558.974 303.425 567.976 313.934C576.605 324.371 584.061 334.742 589.803 344.95C593.793 354.91 595.316 364.6 594.088 373.96C590.564 382.995 584.497 391.507 576.26 399.508C566.629 407.302 555.759 414.718 544.24 421.799C532.823 428.864 521.74 435.715 511.424 442.361C502.41 449.151 494.691 455.782 488.392 462.231C483.768 468.836 480.487 475.228 478.348 481.328C477.426 490.389 478.569 506.237 478.971 512.728C478.509 518.399 472.232 526.335 466.078 528.704C460.978 530.051 454.906 530.916 447.992 531.379C440.514 531.973 432.347 532.299 423.63 532.445C414.533 532.921 405.026 533.369 395.25 533.86C385.241 534.853 375.067 536.014 364.813 537.377C354.435 539.338 344.039 541.558 333.699 544.03C323.289 547.067 312.951 550.306 302.746 553.675C292.504 557.453 282.405 561.211 272.489 564.823C262.563 568.575 253.057 571.861 243.993 574.594C234.935 577.136 226.298 578.93 218.09 579.896C209.884 580.428 202.073 580.026 194.649 578.679C187.194 576.762 180.07 573.872 173.25 570.046C166.35 565.642 159.678 560.352 153.204 554.231C146.585 547.635 140.099 540.321 133.714 532.365C127.134 524.068 120.609 515.253 114.152 506.024C107.502 496.585 100.936 486.846 94.4616 476.887C87.8951 466.864 81.4996 456.705 75.3657 446.481C69.2955 436.307 63.6086 426.136 58.3883 416.022C53.4242 406.025 49.0654 396.104 45.3841 386.32C42.1074 376.673 39.5889 367.165 37.8497 357.787C36.5349 348.551 35.9796 339.442 36.1542 330.458C36.5791 321.559 37.5982 312.745 39.132 304.004C40.6305 295.298 42.4374 286.626 44.472 277.986C46.1685 269.308 47.9075 260.616 49.6436 251.944C50.8663 243.189 52.0185 234.646 53.1398 226.321C53.8353 217.936 54.6371 209.798 55.6131 201.927C56.4491 194.046 57.6559 186.471 59.3183 179.243C61.1491 172.038 63.6024 165.215 66.7166 158.789C70.2154 152.428 74.4543 146.475 79.3992 140.955C84.7896 135.498 90.8565 130.471 97.5318 125.854C104.545 121.274 112.058 117.088 119.981 113.284C128.06 109.452 136.424 105.963 144.974 102.793C153.517 99.5314 162.163 96.5469 170.832 93.8184C179.373 90.9302 187.915 88.2442 196.428 85.7661C204.761 83.0605 213.08 80.5246 221.398 78.14C229.541 75.4883 237.715 72.9823 245.949 70.6162C254.062 67.9702 262.284 65.4711 270.645 63.1431C278.918 60.5705 287.378 58.1858 296.035 56.0413C304.658 53.7102 313.522 51.6759 322.621 49.978C331.71 48.2079 341.064 46.8492 350.68 45.9922" stroke="url(#paint2_linear_68_15574)" stroke-width="2" stroke-linecap="round" stroke-dasharray="5 9"/>
<path id="Vector_4" opacity="0.63" d="M371.452 61.9066C380.804 61.7466 390.1 62.1369 399.314 63.093C408.488 64.1935 417.553 65.8947 426.456 68.2056C435.296 70.7175 443.913 73.8363 452.261 77.5417C460.449 81.4684 468.282 85.9529 475.671 90.9353C482.799 96.1278 489.363 101.761 495.267 107.796C500.786 113.962 505.519 120.45 509.397 127.205C512.802 134.022 515.274 141.037 516.773 148.202C517.823 155.362 517.955 162.652 517.231 170.024C516.292 177.401 514.717 184.877 512.682 192.449C510.887 200.092 509.017 207.894 507.326 215.866C506.475 224.019 506.223 232.434 506.798 241.139C508.689 250.096 511.653 259.395 515.732 269.026C521.156 278.916 527.547 289.115 534.688 299.536C542.543 310.111 550.54 320.788 558.228 331.471C565.479 342.049 571.58 352.452 576.059 362.557C578.941 372.33 579.566 381.659 577.719 390.499C573.829 398.899 567.643 406.602 559.496 413.679C550.062 420.46 539.452 426.762 528.173 432.656C516.869 438.523 505.751 444.144 495.219 449.563C485.731 455.166 477.341 460.657 470.163 466.03C464.476 471.651 460.007 477.125 456.667 482.391C453.91 490.421 452.21 504.764 451.867 510.745C448.688 519.83 434.649 527.483 426.39 528.267C420.105 528.768 413.115 528.975 405.525 528.982C397.524 529.278 389.038 529.502 380.193 529.73C371.05 530.395 361.638 531.166 352.05 532.093C342.26 533.53 332.367 535.159 322.423 536.982C312.362 539.301 302.3 541.764 292.305 544.301C282.239 547.213 272.266 550.073 262.439 552.78C252.586 555.604 243.138 558.024 234.102 559.95C225.072 561.703 216.472 562.792 208.284 563.151C200.118 563.125 192.345 562.264 184.959 560.555C177.579 558.347 170.532 555.248 163.792 551.295C157.02 546.823 150.489 541.514 144.19 535.456C137.789 528.926 131.556 521.707 125.462 513.883C119.251 505.707 113.158 497.024 107.177 487.915C101.087 478.599 95.1375 468.965 89.3616 459.092C83.5809 449.147 78.0356 439.058 72.8033 428.892C67.7036 418.776 63.0355 408.65 58.8529 398.598C54.9726 388.662 51.7027 378.836 49.1053 369.165C46.8941 359.649 45.4161 350.29 44.6749 341.12C44.322 332.095 44.6688 323.24 45.684 314.56C46.9135 305.977 48.671 297.507 50.8894 289.177C53.0449 280.854 55.4742 272.59 58.0907 264.407C60.3551 256.148 62.6566 247.908 64.9399 239.704C66.705 231.39 68.3946 223.284 70.0065 215.396C71.2057 207.431 72.4544 199.711 73.8343 192.285C75.0501 184.814 76.5709 177.684 78.4771 170.903C80.5083 164.159 83.0793 157.807 86.2423 151.89C89.7398 146.033 93.9076 140.628 98.7241 135.679C103.955 130.799 109.837 126.365 116.298 122.382C123.108 118.434 130.433 114.904 138.158 111.745C146.107 108.594 154.365 105.765 162.838 103.268C171.383 100.674 180.054 98.353 188.794 96.2818C197.487 94.0472 206.21 92.0032 214.911 90.159C223.508 88.0878 232.092 86.1674 240.655 84.3957C249.11 82.3656 257.567 80.4689 266.055 78.7119C274.444 76.6986 282.897 74.8214 291.433 73.1259C299.918 71.1943 308.523 69.4625 317.253 67.9619C325.955 66.3021 334.821 64.9329 343.857 63.9074C352.879 62.8071 362.078 62.1232 371.441 61.9143" stroke="url(#paint3_linear_68_15574)" stroke-width="2" stroke-linecap="round" stroke-dasharray="8 1"/>
<path id="Vector_5" opacity="0.36" d="M388.584 78.934C397.599 79.3702 406.447 80.3099 415.097 81.7544C423.71 83.3237 432.089 85.4499 440.195 88.0901C448.206 90.9113 455.885 94.2711 463.178 98.1335C470.292 102.183 476.944 106.714 483.055 111.671C488.902 116.79 494.108 122.286 498.617 128.101C502.774 134.022 506.143 140.214 508.679 146.592C510.83 153.035 512.134 159.639 512.577 166.337C512.728 173.075 512.11 179.914 510.815 186.826C509.474 193.788 507.683 200.869 505.614 208.079C503.915 215.416 502.278 222.969 500.922 230.738C500.409 238.762 500.51 247.11 501.392 255.778C503.443 264.795 506.42 274.175 510.336 283.909C515.368 293.957 521.134 304.31 527.444 314.874C534.252 325.582 541.044 336.348 547.451 347.043C553.364 357.607 558.162 367.888 561.451 377.774C563.301 387.233 563.127 396.136 560.74 404.409C556.531 412.143 550.294 419.081 542.305 425.272C533.128 431.108 522.865 436.38 511.928 441.176C500.872 445.916 489.887 450.375 479.327 454.624C469.592 459.08 460.739 463.439 452.931 467.714C446.397 472.297 440.968 476.804 436.585 481.187C432.149 488.054 427.603 500.688 426.324 506.106C422.898 514.661 411.112 522.208 404.246 523.051C398.969 523.583 393.022 523.807 386.455 523.799C379.505 524.034 372.015 524.154 364.094 524.222C355.864 524.669 347.269 525.156 338.411 525.723C329.321 526.733 320.029 527.862 310.603 529.097C301.03 530.769 291.38 532.522 281.713 534.302C271.954 536.399 262.239 538.414 252.603 540.266C242.946 542.225 233.641 543.798 224.701 544.934C215.794 545.924 207.28 546.31 199.149 546.057C191.062 545.473 183.36 544.137 176.032 542.045C168.738 539.515 161.78 536.186 155.141 532.076C148.494 527.495 142.129 522.153 136.012 516.101C129.849 509.63 123.895 502.512 118.13 494.813C112.314 486.787 106.684 478.264 101.222 469.341C95.738 460.203 90.4602 450.751 85.4361 441.07C80.4658 431.311 75.7969 421.411 71.4963 411.461C67.3893 401.525 63.7424 391.619 60.6144 381.79C57.8046 372.084 55.5946 362.5 54.0406 353.096C52.876 343.857 52.377 334.8 52.59 325.981C53.128 317.298 54.3067 308.811 56.0987 300.543C58.0552 292.354 60.4835 284.332 63.3166 276.46C66.0672 268.584 69.0332 260.792 72.1677 253.1C74.9469 245.306 77.7438 237.558 80.5007 229.841C82.7773 221.984 84.9392 214.344 86.9958 206.923C88.649 199.385 90.3247 192.093 92.0692 185.103C93.6437 178.052 95.4532 171.341 97.5745 164.99C99.7822 158.665 102.453 152.754 105.631 147.283C109.091 141.882 113.157 136.939 117.803 132.476C122.842 128.095 128.462 124.185 134.638 120.727C141.174 117.321 148.19 114.346 155.622 111.763C163.321 109.194 171.341 106.958 179.607 105.053C187.998 103.081 196.563 101.367 205.224 99.8995C213.926 98.2878 222.665 96.8741 231.417 95.6308C240.132 94.1896 248.847 92.894 257.543 91.7384C266.191 90.3504 274.824 89.0833 283.451 87.9494C292.04 86.586 300.643 85.3518 309.279 84.2935C317.891 83.0304 326.564 81.9516 335.293 81.108C344.014 80.1159 352.819 79.4085 361.706 79.027C370.581 78.5794 379.549 78.5334 388.574 78.9312" stroke="url(#paint4_linear_68_15574)" stroke-width="2" stroke-linecap="round" stroke-dasharray="4 3"/>
<path id="Vector_6" opacity="0.51" d="M401.817 96.4023C410.408 97.3789 418.739 98.8031 426.775 100.652C434.756 102.619 442.404 105.059 449.681 107.929C456.851 110.972 463.593 114.454 469.851 118.355C475.943 122.418 481.485 126.876 486.424 131.666C491.119 136.601 495.146 141.844 498.454 147.334C501.465 152.906 503.726 158.693 505.207 164.629C506.399 170.63 506.839 176.759 506.553 182.983C506.087 189.258 505.027 195.645 503.445 202.116C501.951 208.695 500.165 215.433 498.247 222.325C496.763 229.429 495.445 236.776 494.441 244.398C494.266 252.346 494.652 260.651 495.745 269.321C497.862 278.369 500.75 287.807 504.381 297.603C508.903 307.727 513.974 318.128 519.384 328.706C525.132 339.409 530.737 350.124 535.884 360.691C540.522 371.082 544.101 381.104 546.294 390.638C547.201 399.698 546.294 408.102 543.445 415.759C538.997 422.838 532.766 429.028 524.986 434.391C516.139 439.351 506.277 443.682 495.783 447.472C485.095 451.179 474.386 454.57 463.962 457.735C454.161 461.087 445.076 464.351 436.852 467.559C429.684 471.112 423.502 474.623 418.254 478.084C412.373 483.699 405.067 494.405 402.737 499.173C398.494 507.117 387.847 514.622 382.005 515.616C374.979 516.409 357.422 516.949 347.075 517.01C339.712 517.328 331.946 517.613 323.844 517.914C315.49 518.581 306.866 519.286 298.035 520.033C289.037 521.144 279.885 522.273 270.66 523.365C261.33 524.717 251.974 525.963 242.646 527.017C233.288 528.155 224.227 528.945 215.49 529.322C206.785 529.582 198.435 529.312 190.441 528.448C182.507 527.309 174.934 525.503 167.709 523.015C160.559 520.15 153.737 516.564 147.238 512.276C140.796 507.572 134.628 502.181 128.73 496.143C122.866 489.723 117.242 482.71 111.85 475.153C106.489 467.309 101.354 458.995 96.474 450.306C91.6317 441.427 87.0709 432.248 82.8072 422.869C78.6788 413.412 74.9149 403.833 71.5603 394.213C68.4295 384.622 65.7847 375.071 63.6905 365.616C61.9026 356.285 60.7114 347.099 60.1465 338.122C59.9313 329.294 60.3612 320.683 61.4351 312.32C62.7897 304.091 64.7227 296.086 67.199 288.313C69.8057 280.62 72.8185 273.098 76.1835 265.748C79.4417 258.369 82.8833 251.1 86.4484 243.93C89.6815 236.649 92.9102 229.408 96.09 222.214C98.8135 214.841 101.394 207.681 103.864 200.737C105.94 193.648 107.989 186.804 110.073 180.24C111.97 173.608 114.057 167.3 116.378 161.367C118.741 155.438 121.496 149.92 124.673 144.845C128.099 139.85 132.038 135.311 136.491 131.26C141.283 127.301 146.627 123.811 152.468 120.793C158.659 117.839 165.317 115.323 172.377 113.222C179.718 111.138 187.396 109.413 195.339 108.01C203.457 106.564 211.773 105.394 220.224 104.464C228.77 103.421 237.382 102.573 246.043 101.913C254.728 101.07 263.425 100.37 272.111 99.8149C280.8 99.0481 289.476 98.4043 298.126 97.8894C306.775 97.172 315.421 96.5811 324.049 96.1541C332.68 95.5468 341.317 95.1233 349.951 94.9116C358.599 94.577 367.254 94.5115 375.906 94.7433C384.557 94.9213 393.202 95.4598 401.807 96.3989" stroke="url(#paint5_linear_68_15574)" stroke-width="2" stroke-linecap="round" stroke-dasharray="1 2"/>
<path id="Vector_7" opacity="0.23" d="M411.145 113.69C419.252 115.147 426.997 116.967 434.386 119.142C441.707 121.419 448.613 124.079 455.083 127.101C461.428 130.254 467.277 133.777 472.599 137.62C477.737 141.601 482.298 145.892 486.234 150.449C491.465 157.586 498.159 172.993 499.587 181.148C500.108 186.691 499.98 192.358 499.264 198.111C498.472 203.962 497.216 209.944 495.592 216.034C494.132 222.297 492.501 228.745 490.842 235.401C489.655 242.324 488.668 249.535 488.024 257.053C488.121 264.949 488.735 273.231 489.937 281.888C492.001 290.944 494.689 300.391 497.938 310.177C501.879 320.276 506.184 330.615 510.673 341.08C515.358 351.645 519.809 362.148 523.758 372.448C527.193 382.527 529.639 392.172 530.836 401.254C530.893 409.822 529.354 417.673 526.108 424.711C521.49 431.12 515.316 436.598 507.796 441.196C499.322 445.353 489.938 448.827 479.945 451.73C469.723 454.509 459.398 456.933 449.263 459.104C439.578 461.444 430.445 463.681 422.012 465.872C414.43 468.413 407.694 470.951 401.789 473.469C394.687 477.795 384.859 486.398 381.441 490.409C375.934 497.547 365.399 504.845 360.223 505.991C354.072 506.961 338.663 507.766 329.477 507.83C322.89 508.089 315.887 508.248 308.515 508.35C300.887 508.754 292.944 509.125 284.758 509.453C276.378 510.089 267.803 510.67 259.095 511.158C250.27 511.856 241.368 512.41 232.448 512.736C223.49 513.145 214.778 513.203 206.337 512.879C197.924 512.469 189.835 511.557 182.06 510.118C174.361 508.462 167.001 506.2 159.982 503.325C153.054 500.129 146.453 496.302 140.176 491.83C133.987 487.015 128.091 481.574 122.507 475.562C116.995 469.219 111.765 462.324 106.824 454.956C101.963 447.339 97.3932 439.293 93.1276 430.913C88.9716 422.363 85.1457 413.567 81.6791 404.581C78.3935 395.535 75.5207 386.4 73.0855 377.243C70.903 368.134 69.2238 359.076 68.0821 350.139C67.2496 341.32 67.0011 332.665 67.3435 324.232C68.0051 315.942 69.2625 307.889 71.0944 300.093C73.1684 292.418 75.758 284.986 78.8268 277.781C81.9745 270.644 85.4827 263.68 89.2896 256.906C92.9648 250.083 96.81 243.37 100.74 236.761C104.351 230.008 107.95 223.305 111.489 216.64C114.598 209.782 117.555 203.118 120.372 196.666C122.833 190.031 125.237 183.645 127.624 177.515C129.833 171.293 132.159 165.398 134.668 159.849C138.599 151.727 148.481 137.697 154.636 131.893C159.194 128.275 164.236 125.138 169.718 122.463C175.53 119.882 181.785 117.73 188.41 115.997C195.333 114.311 202.588 112.982 210.103 112.001C217.85 110.993 225.806 110.276 233.911 109.813C242.164 109.263 250.524 108.915 258.932 108.752C267.433 108.456 275.967 108.307 284.493 108.296C293.071 108.123 301.64 108.066 310.182 108.139C318.754 108.029 327.295 108.058 335.788 108.241C344.32 108.266 352.81 108.459 361.244 108.846C369.702 109.133 378.111 109.651 386.437 110.45C394.774 111.199 403.022 112.27 411.136 113.686" stroke="url(#paint6_linear_68_15574)" stroke-width="2" stroke-linecap="round" stroke-dasharray="3 1"/>
<path id="Vector_8" opacity="0.54" d="M416.809 130.245C424.373 132.1 431.521 134.243 438.24 136.677C444.894 139.189 451.082 141.996 456.779 145.084C464.878 150.02 478.085 161.372 483.055 167.691C487.124 174.354 491.789 188.605 492.432 196.105C492.329 203.873 489.68 220.174 487.552 228.795C486.271 234.805 484.912 241.046 483.573 247.525C482.698 254.322 482.038 261.438 481.698 268.909C482.004 276.761 482.742 284.993 483.973 293.616C485.887 302.64 488.268 312.017 491.056 321.693C494.355 331.666 497.863 341.82 501.431 352.052C505.074 362.335 508.416 372.502 511.243 382.403C513.571 392.048 515.002 401.209 515.301 409.75C514.609 417.769 512.539 425.013 508.975 431.408C504.238 437.172 498.176 441.961 490.959 445.857C482.896 449.297 474.023 452.007 464.596 454.123C454.908 456.088 445.086 457.65 435.351 458.943C425.922 460.365 416.903 461.679 408.45 462.934C400.662 464.513 393.567 466.112 387.202 467.729C379.143 470.741 367.105 477.118 362.63 480.264C355.585 486.352 344.331 493.107 339.48 494.335C333.881 495.434 320.03 496.464 311.777 496.566C305.855 496.787 299.522 496.866 292.817 496.813C285.863 497.012 278.589 497.107 271.033 497.096C263.29 497.325 255.327 497.435 247.181 497.402C238.922 497.535 230.548 497.481 222.119 497.17C213.644 496.925 205.366 496.333 197.323 495.39C189.314 494.363 181.573 492.878 174.129 490.928C166.774 488.789 159.723 486.108 152.996 482.886C146.385 479.409 140.099 475.346 134.13 470.738C128.286 465.834 122.767 460.389 117.563 454.421C112.488 448.193 107.727 441.487 103.288 434.352C98.9931 427.011 95.0316 419.305 91.4187 411.309C87.9616 403.192 84.8871 394.85 82.2196 386.363C79.7498 377.846 77.7291 369.276 76.1696 360.693C74.8763 352.184 74.0822 343.74 73.8299 335.429C73.8689 327.251 74.458 319.233 75.5991 311.455C77.0227 303.807 78.9848 296.403 81.4672 289.256C84.1433 282.213 87.2821 275.408 90.8253 268.843C94.4301 262.312 98.3337 255.963 102.487 249.784C106.499 243.55 110.652 237.415 114.872 231.385C118.794 225.194 122.682 219.042 126.525 212.934C129.963 206.608 133.243 200.469 136.374 194.5C139.162 188.347 141.877 182.415 144.557 176.737C148.316 168.187 156.404 152.689 161.041 145.907C166.222 139.633 178.825 129.505 186.317 125.666C191.746 123.364 197.57 121.489 203.743 120.041C210.205 118.646 216.982 117.636 224.022 116.961C231.303 116.302 238.799 115.941 246.462 115.839C254.31 115.689 262.281 115.753 270.326 116.017C278.505 116.181 286.723 116.503 294.959 116.982C303.28 117.325 311.592 117.789 319.878 118.386C328.218 118.841 336.531 119.43 344.764 120.147C353.055 120.757 361.278 121.514 369.397 122.441C377.555 123.298 385.608 124.349 393.525 125.633C401.456 126.891 409.231 128.417 416.8 130.241" stroke="url(#paint7_linear_68_15574)" stroke-width="2" stroke-linecap="round" stroke-dasharray="8 6"/>
<path id="Vector_9" opacity="0.4" d="M419.269 145.667C426.254 147.85 432.786 150.243 438.861 152.856C444.861 155.528 450.377 158.426 455.381 161.532C462.448 166.429 473.589 177.324 477.612 183.253C480.815 189.469 484.122 202.684 484.333 209.645C483.988 216.906 481.438 232.345 479.628 240.63C478.594 246.473 477.539 252.574 476.537 258.945C475.96 265.656 475.576 272.715 475.459 280.119C475.893 287.908 476.668 296.09 477.804 304.619C479.482 313.526 481.487 322.758 483.75 332.236C486.374 341.966 489.076 351.817 491.74 361.691C494.389 371.568 496.711 381.272 498.511 390.659C499.841 399.76 500.346 408.351 499.878 416.291C498.544 423.695 496.025 430.313 492.231 436.066C487.44 441.189 481.525 445.339 474.634 448.6C467.013 451.387 458.689 453.434 449.86 454.877C440.767 456.118 431.496 456.95 422.26 457.484C413.216 458.106 404.461 458.59 396.14 459.005C388.328 459.719 381.077 460.445 374.428 461.209C365.686 462.943 351.847 467.05 346.406 469.253C337.714 474.013 325.177 479.784 320.352 480.957C315 482.067 302.159 483.173 294.607 483.27C289.212 483.455 283.433 483.443 277.309 483.248C270.959 483.278 264.294 483.132 257.349 482.832C250.222 482.725 242.866 482.438 235.314 481.956C227.657 481.62 219.858 481.041 211.972 480.169C204.058 479.363 196.298 478.217 188.736 476.722C181.205 475.176 173.92 473.206 166.908 470.805C159.977 468.255 153.347 465.231 147.018 461.712C140.82 458.004 134.935 453.784 129.39 449.081C123.99 444.149 118.917 438.739 114.18 432.89C109.613 426.829 105.388 420.358 101.518 413.532C97.8168 406.551 94.488 399.262 91.5475 391.734C88.8047 384.117 86.4656 376.33 84.5543 368.447C82.873 360.556 81.6487 352.634 80.8939 344.737C80.41 336.917 80.4164 329.182 80.9425 321.598C81.7297 314.144 83.0342 306.864 84.8602 299.807C86.9196 292.885 89.459 286.197 92.4731 279.749C95.6339 273.407 99.191 267.279 103.103 261.376C107.044 255.503 111.243 249.782 115.649 244.239C119.92 238.611 124.299 233.074 128.735 227.633C132.879 222.018 137.006 216.429 141.071 210.883C144.781 205.113 148.328 199.488 151.724 194.027C154.807 188.369 157.789 182.907 160.712 177.669C164.837 169.746 173.384 155.357 178.075 149.047C183.181 143.202 195.208 133.806 202.223 130.292C207.275 128.199 212.675 126.527 218.38 125.273C224.363 124.1 230.634 123.299 237.156 122.846C243.921 122.44 250.904 122.325 258.052 122.493C265.408 122.65 272.894 123.031 280.471 123.624C288.193 124.155 295.983 124.859 303.794 125.719C311.73 126.491 319.653 127.398 327.554 128.432C335.542 129.368 343.471 130.432 351.329 131.628C359.251 132.723 367.076 133.971 374.783 135.368C382.533 136.697 390.143 138.21 397.572 139.916C405.02 141.611 412.262 143.518 419.26 145.662" stroke="url(#paint8_linear_68_15574)" stroke-width="2" stroke-linecap="round" stroke-dasharray="6 10"/>
<path id="Vector_10" opacity="0.34" d="M419.146 159.754C425.529 162.181 431.451 164.765 436.901 167.498C444.751 171.762 457.771 181.149 462.879 186.238C467.277 191.599 473.199 203.036 474.763 209.093C475.725 215.426 475.437 228.874 474.441 236.063C473.339 243.733 470.789 260.556 469.716 269.874C469.381 276.519 469.205 283.505 469.24 290.845C469.703 298.549 470.426 306.607 471.393 314.993C472.759 323.697 474.317 332.68 476.032 341.853C477.964 351.222 479.892 360.663 481.692 370.06C483.421 379.416 484.788 388.557 485.672 397.341C486.124 405.819 485.843 413.758 484.703 421.041C482.833 427.798 479.956 433.763 476 438.885C471.212 443.382 465.495 446.947 458.957 449.621C451.798 451.839 444.033 453.312 435.832 454.179C427.356 454.83 418.705 455.043 410.042 454.936C401.465 454.881 393.099 454.657 385.048 454.343C377.365 454.287 370.118 454.23 363.364 454.212C354.204 454.745 339.014 456.589 332.769 457.802C322.491 461.002 308.326 465.314 303.343 466.264C297.995 467.22 285.693 468.16 278.635 468.166C270.953 468.211 253.75 467.492 244.305 466.76C237.763 466.352 230.995 465.728 224.047 464.86C216.982 464.117 209.789 463.093 202.507 461.768C195.189 460.491 188.014 458.885 181.011 456.945C174.037 454.965 167.29 452.593 160.791 449.832C154.377 446.973 148.247 443.678 142.418 439.958C136.723 436.088 131.335 431.786 126.291 427.067C121.407 422.18 116.862 416.884 112.675 411.219C108.659 405.407 105.012 399.245 101.745 392.804C98.6744 386.247 95.9899 379.452 93.7196 372.466C91.6591 365.448 90.0213 358.295 88.8251 351.081C87.8691 343.895 87.3551 336.7 87.3296 329.565C87.5448 322.509 88.235 315.567 89.4126 308.772C90.8313 302.105 92.7196 295.61 95.0859 289.343C97.6472 283.182 100.637 277.249 104.04 271.546C107.556 265.927 111.424 260.504 115.596 255.293C119.768 250.082 124.163 245.022 128.723 240.11C133.161 235.094 137.677 230.173 142.24 225.325C146.553 220.292 150.841 215.278 155.069 210.294C158.989 205.071 162.743 199.987 166.348 195.041C171.272 187.391 180.469 172.84 184.951 166.094C189.437 159.562 199.251 148.272 204.762 143.637C210.781 139.525 224.559 133.562 232.326 131.681C237.833 130.644 243.598 129.983 249.593 129.665C255.819 129.406 262.252 129.473 268.847 129.808C275.644 130.156 282.574 130.762 289.608 131.581C296.809 132.375 304.074 133.353 311.367 134.512C318.793 135.608 326.226 136.846 333.625 138.232C341.132 139.537 348.59 140.979 355.952 142.549C363.395 144.043 370.74 145.688 377.932 147.456C385.19 149.186 392.277 151.063 399.154 153.107C406.056 155.134 412.736 157.345 419.137 159.748" stroke="url(#paint9_linear_68_15574)" stroke-width="2" stroke-linecap="round" stroke-dasharray="9 3"/>
<path id="Vector_11" opacity="0.31" d="M417.115 172.504C425.557 176.471 440.118 184.99 446.159 189.541C453.643 195.883 459.131 202.642 462.674 209.728C465.878 217.195 467.294 225.097 467.183 233.42C467.139 242.391 466.088 252.08 464.494 262.594C463.728 274.233 463.081 287.09 462.931 301.183C464.06 316.628 465.78 333.245 467.878 350.591C470.451 368.46 472.374 386.104 472.826 402.561C472.516 410.346 471.566 417.588 469.876 424.186C467.578 430.266 464.43 435.584 460.386 440.074C455.65 443.988 450.161 446.997 444 449.16C437.312 450.862 430.115 451.866 422.541 452.249C406.706 452.416 390.58 451.153 375.061 449.159C360.523 447.988 347.446 446.891 336.031 446C326.069 446.504 317.423 447.129 309.732 447.648C302.737 449.232 295.896 450.343 288.831 450.791C281.552 451.937 273.477 452.26 264.487 451.7C254.856 451.737 244.177 450.908 232.579 449.152C226.565 448.473 220.355 447.547 213.996 446.363C207.537 445.265 200.949 443.887 194.293 442.188C187.605 440.527 181.048 438.557 174.656 436.269C168.285 433.959 162.139 431.289 156.229 428.282C144.679 422.011 134.262 414.208 125.174 405.029C116.701 395.389 109.663 384.435 104.179 372.533C99.469 360.37 96.4098 347.563 95.0886 334.581C94.6455 321.756 96.0133 309.132 99.2023 297.099C103.205 285.484 108.898 274.598 116.126 264.624C123.669 254.866 132.285 245.745 141.654 237.252C146.16 232.867 150.742 228.533 155.365 224.273C159.76 219.82 164.141 215.381 168.475 210.967C174.486 204.028 185.416 190.429 190.434 183.854C196.604 174.753 202.847 166.646 209.342 159.724C216.005 152.79 223.45 147.36 231.687 143.498C240.66 139.959 250.617 137.981 261.371 137.442C272.96 137.155 285.263 138.066 297.98 139.973C311.342 141.877 324.964 144.541 338.494 147.822C352.478 150.939 366.222 154.586 379.416 158.725C386.091 160.741 392.6 162.906 398.899 165.194C405.218 167.474 411.302 169.907 417.108 172.497" stroke="url(#paint10_linear_68_15574)" stroke-width="2" stroke-linecap="round" stroke-dasharray="7 6"/>
<path id="Vector_12" opacity="0.6" d="M413.848 184.12C424.205 189.613 432.86 195.411 439.765 201.468C446.402 207.739 451.247 214.339 454.383 221.21C457.283 228.465 458.652 236.152 458.746 244.298C458.959 253.121 458.346 262.715 457.267 273.171C456.864 284.694 456.493 297.383 456.359 311.188C457.148 326.136 458.181 342.051 459.253 358.453C460.506 375.158 460.969 391.439 460.033 406.432C457.742 420.166 453.009 431.52 445.439 439.853C435.649 446.023 423.6 448.969 410.005 449.279C395.467 448.636 380.575 446.526 366.071 443.62C352.161 441.323 339.346 438.995 327.855 436.859C317.437 435.984 308.16 435.304 299.789 434.686C292.022 435.137 284.549 435.344 277.079 435.092C269.489 435.562 261.412 435.372 252.705 434.411C243.501 433.985 233.496 432.718 222.804 430.51C211.635 428.717 199.911 425.876 187.914 421.856C175.798 417.958 164.292 412.838 153.687 406.556C143.377 400.073 134.201 392.306 126.335 383.417C119.054 374.246 113.219 364.042 108.948 353.144C105.417 342.133 103.524 330.71 103.334 319.263C103.938 308.021 106.257 297.059 110.264 286.717C114.933 276.729 121.121 267.433 128.669 258.965C136.415 250.609 145.093 242.816 154.427 235.569C163.269 227.838 172.295 220.233 181.288 212.734C189.309 204.284 196.846 196.24 203.936 188.711C210.411 180.522 216.866 173.197 223.452 166.91C230.108 160.537 237.321 155.509 245.135 151.912C253.51 148.57 262.678 146.705 272.502 146.213C283.043 145.99 294.204 146.949 305.729 148.936C317.869 150.996 330.237 153.866 342.548 157.394C355.275 160.855 367.788 164.863 379.761 169.349C391.932 173.777 403.393 178.7 413.841 184.113" stroke="url(#paint11_linear_68_15574)" stroke-width="2" stroke-linecap="round" stroke-dasharray="5 9"/>
<path id="Vector_13" opacity="0.99" d="M409.92 194.962C419.156 200.582 426.853 206.455 432.996 212.503C438.907 218.743 443.257 225.27 446.131 232.061C448.84 239.225 450.248 246.834 450.591 254.945C451.056 263.722 450.801 273.27 450.126 283.671C449.945 295.037 449.649 307.466 449.403 320.84C449.745 335.135 450.05 350.158 450.134 365.429C450.205 380.806 449.411 395.613 447.317 409.073C444.081 421.288 438.778 431.245 431.153 438.396C421.772 443.55 410.603 445.718 398.188 445.424C384.947 444.165 371.327 441.439 357.922 437.853C344.84 434.664 332.531 431.351 321.235 428.156C310.696 426.027 301.077 424.139 292.285 422.4C283.95 421.659 275.981 420.835 268.169 419.75C260.3 419.371 252.172 418.487 243.685 416.972C234.8 415.943 225.388 414.152 215.526 411.491C205.255 409.152 194.633 405.814 183.88 401.377C173.015 397.026 162.825 391.61 153.529 385.229C144.496 378.721 136.596 371.171 129.973 362.77C123.884 354.204 119.223 344.881 116.091 335.113C113.618 325.335 112.738 315.335 113.474 305.455C114.904 295.801 117.914 286.485 122.474 277.786C127.555 269.375 133.992 261.605 141.611 254.567C149.341 247.563 157.899 241.028 167.031 234.959C175.72 228.375 184.616 221.875 193.515 215.452C201.612 208.109 209.271 201.101 216.515 194.514C223.219 187.257 229.85 180.732 236.503 175.108C243.146 169.321 250.177 164.725 257.626 161.403C265.495 158.282 273.97 156.495 282.954 156.007C292.518 155.767 302.592 156.692 312.966 158.633C323.877 160.699 334.999 163.607 346.051 167.205C357.479 170.804 368.708 174.98 379.454 179.65C390.358 184.287 400.617 189.402 409.92 194.962Z" stroke="url(#paint12_linear_68_15574)" stroke-width="2" stroke-linecap="round" stroke-dasharray="4 8"/>
<path id="Vector_14" opacity="0.08" d="M405.761 205.496C413.919 211.173 420.731 217.065 426.192 223.135C431.48 229.376 435.414 235.886 438.096 242.688C440.647 249.843 442.108 257.468 442.667 265.608C443.302 274.358 443.295 283.865 442.843 294.154C442.737 305.274 442.383 317.302 441.887 330.082C441.729 343.549 441.305 357.508 440.5 371.496C439.538 385.427 437.705 398.665 434.696 410.55C430.743 421.254 425.081 429.843 417.532 435.858C408.629 440.089 398.33 441.597 387.055 440.829C375.077 439.126 362.732 435.977 350.499 431.937C338.373 428.104 326.779 424.027 315.921 419.991C305.549 416.817 295.899 413.846 286.946 411.045C278.302 409.155 270.047 407.281 262.046 405.276C253.991 403.941 245.869 402.256 237.609 400.096C229.03 398.357 220.164 395.981 211.078 392.842C201.665 389.966 192.091 386.205 182.552 381.473C172.911 376.805 164.014 371.266 156.008 364.966C148.234 358.591 141.583 351.429 136.168 343.66C131.219 335.825 127.642 327.478 125.528 318.904C123.971 310.382 123.926 301.81 125.377 293.465C127.391 285.343 130.867 277.599 135.719 270.451C140.955 263.525 147.408 257.166 154.888 251.456C162.417 245.695 170.684 240.339 179.48 235.359C187.874 229.855 196.516 224.413 205.209 219.02C213.233 212.754 220.907 206.756 228.208 201.108C235.045 194.807 241.781 189.113 248.465 184.19C255.086 179.037 261.957 174.916 269.101 171.907C276.523 169.014 284.389 167.342 292.629 166.846C301.31 166.566 310.387 167.393 319.689 169.22C329.437 171.185 339.329 173.996 349.168 177.541C359.316 181.113 369.277 185.295 378.792 189.996C388.45 194.688 397.524 199.865 405.761 205.496Z" stroke="url(#paint13_linear_68_15574)" stroke-width="2" stroke-linecap="round" stroke-dasharray="9 1"/>
<path id="Vector_15" opacity="0.27" d="M401.587 216.179C408.738 221.835 414.736 227.725 419.58 233.825C424.273 240.061 427.828 246.606 430.317 253.459C432.704 260.63 434.157 268.275 434.812 276.435C435.517 285.125 435.604 294.511 435.233 304.582C435.053 315.307 434.52 326.768 433.688 338.773C432.999 351.248 431.914 363.996 430.325 376.598C428.518 388.996 425.872 400.63 422.177 410.932C417.724 420.14 411.89 427.42 404.541 432.369C396.161 435.758 386.721 436.707 376.55 435.586C365.786 433.587 354.699 430.207 343.648 425.905C332.578 421.663 321.84 417.07 311.631 412.427C301.689 408.423 292.29 404.552 283.447 400.852C274.79 397.905 266.493 395.031 258.49 392.131C250.432 389.819 242.439 387.296 234.48 384.427C226.257 381.937 217.955 378.947 209.633 375.346C201.044 371.958 192.476 367.838 184.107 362.915C175.647 358.052 167.972 352.527 161.209 346.459C154.629 340.343 149.138 333.698 144.859 326.674C140.937 319.629 138.321 312.309 137.063 304.942C136.266 297.656 136.843 290.455 138.798 283.58C141.188 276.873 144.893 270.579 149.811 264.851C155.01 259.26 161.267 254.182 168.429 249.656C175.599 245.017 183.442 240.724 191.764 236.739C199.752 232.231 208.011 227.771 216.398 223.359C224.24 218.12 231.803 213.114 239.054 208.397C245.917 203.038 252.666 198.197 259.327 194.002C265.901 189.53 272.606 185.928 279.468 183.29C286.502 180.694 293.845 179.165 301.416 178.707C309.316 178.403 317.489 179.129 325.822 180.805C334.481 182.612 343.243 185.263 351.926 188.649C360.85 192.091 369.602 196.162 377.952 200.786C386.416 205.418 394.356 210.565 401.587 216.179Z" stroke="url(#paint14_linear_68_15574)" stroke-width="2" stroke-linecap="round" stroke-dasharray="4 6"/>
<path id="Vector_16" opacity="0.42" d="M397.427 227.414C403.632 232.986 408.861 238.843 413.107 244.933C417.23 251.15 420.384 257.706 422.641 264.583C424.809 271.73 426.153 279.351 426.8 287.446C427.442 295.98 427.5 305.107 427.049 314.797C426.688 324.974 425.89 335.697 424.687 346.763C423.511 358.1 421.833 369.525 419.612 380.637C417.153 391.469 413.906 401.494 409.755 410.26C405.031 418.03 399.169 424.065 392.134 428.041C384.33 430.67 375.747 431.145 366.613 429.783C357.013 427.617 347.147 424.143 337.271 419.756C327.308 415.315 317.53 410.448 308.128 405.415C298.821 400.834 289.914 396.292 281.439 391.885C273.042 388.065 264.968 384.327 257.186 380.62C249.339 377.409 241.629 374.074 234.079 370.534C226.33 367.314 218.635 363.741 211.088 359.718C203.325 355.862 195.724 351.456 188.473 346.451C181.13 341.486 174.607 336.082 169.004 330.355C163.525 324.604 159.101 318.546 155.802 312.324C152.781 306.107 150.973 299.802 150.401 293.593C150.179 287.474 151.216 281.553 153.457 275.997C156.022 270.568 159.755 265.561 164.539 261.075C169.523 256.66 175.434 252.686 182.148 249.202C188.836 245.548 196.133 242.182 203.878 239.081C211.366 235.482 219.151 231.921 227.112 228.411C234.657 224.159 241.992 220.107 249.079 216.286C255.855 211.871 262.531 207.891 269.09 204.436C275.548 200.682 282.075 197.659 288.651 195.457C295.333 193.219 302.19 191.903 309.174 191.526C316.379 191.254 323.755 191.919 331.196 193.453C338.885 195.101 346.606 197.558 354.223 200.749C362.027 203.985 369.653 207.883 376.913 212.355C384.259 216.836 391.149 221.873 397.427 227.414Z" stroke="url(#paint15_linear_68_15574)" stroke-width="2" stroke-linecap="round" stroke-dasharray="9 1"/>
<path id="Vector_17" opacity="0.86" d="M393.118 239.462C398.448 244.893 402.939 250.655 406.587 256.694C410.144 262.821 412.879 269.316 414.829 276.138C416.703 283.173 417.856 290.65 418.366 298.542C418.841 306.76 418.743 315.472 418.122 324.597C417.507 334.041 416.415 343.854 414.845 353.827C413.233 363.921 411.094 373.931 408.383 383.527C405.46 392.792 401.837 401.26 397.448 408.53C392.625 414.955 386.904 419.836 380.255 422.921C373.07 424.876 365.321 424.964 357.189 423.451C348.693 421.215 339.989 417.771 331.263 413.463C322.415 409.014 313.662 404.066 305.178 398.891C296.688 393.984 288.464 389.029 280.578 384.135C272.687 379.675 265.064 375.265 257.729 370.929C250.307 366.966 243.069 362.949 236.074 358.839C228.9 354.98 221.896 350.896 215.148 346.536C208.241 342.307 201.597 337.698 195.382 332.687C189.099 327.72 183.639 322.528 179.072 317.212C172.845 309.163 165.792 292.929 165.147 285.124C165.993 277.662 173.375 264.591 179.675 259.203C184.31 255.767 189.759 252.742 195.911 250.124C202.023 247.305 208.688 244.744 215.8 242.402C222.698 239.608 229.922 236.87 237.368 234.182C244.506 230.843 251.501 227.671 258.322 224.715C264.887 221.216 271.376 218.074 277.744 215.376C284.021 212.368 290.298 209.969 296.574 208.244C302.888 206.436 309.297 205.412 315.734 205.194C322.313 205.019 328.974 205.669 335.617 207.124C342.424 208.645 349.225 210.922 355.876 213.911C362.656 216.939 369.248 220.62 375.514 224.899C381.83 229.187 387.744 234.053 393.118 239.462Z" stroke="url(#paint16_linear_68_15574)" stroke-width="2" stroke-linecap="round" stroke-dasharray="9 6"/>
<path id="Vector_18" opacity="0.45" d="M388.399 252.384C392.899 257.616 396.67 263.208 399.728 269.088C402.706 275.043 404.978 281.359 406.57 287.995C408.089 294.776 408.971 301.957 409.242 309.473C409.476 317.197 409.14 325.303 408.296 333.673C407.416 342.229 406.024 350.984 404.151 359.744C402.205 368.512 399.727 377.069 396.712 385.158C393.517 392.899 389.721 399.867 385.268 405.759C380.529 410.915 375.07 414.752 368.891 417.046C362.361 418.413 355.438 418.195 348.256 416.597C340.808 414.373 333.21 411.08 325.585 406.971C317.847 402.659 310.148 397.839 302.633 392.721C295.057 387.723 287.672 382.608 280.53 377.484C273.349 372.644 266.391 367.824 259.678 363.058C252.892 358.568 246.294 354.069 239.965 349.54C233.509 345.211 227.275 340.763 221.364 336.179C215.318 331.69 209.619 326.99 204.394 322.073C199.104 317.182 194.619 312.266 190.954 307.385C186.008 300.104 180.911 286.11 180.86 279.678C182.023 273.61 189.184 263.355 194.975 259.27C201.618 255.496 218.056 249.371 227.463 246.74C233.715 244.633 240.31 242.607 247.162 240.663C253.792 238.15 260.348 235.806 266.775 233.652C273.013 231.013 279.203 228.694 285.275 226.732C291.263 224.47 297.235 222.719 303.152 221.515C309.085 220.187 315.03 219.521 320.939 219.533C326.929 219.535 332.931 220.252 338.844 221.68C344.867 223.14 350.824 225.281 356.601 228.093C362.462 230.926 368.127 234.383 373.471 238.448C378.846 242.512 383.858 247.157 388.399 252.384Z" stroke="url(#paint17_linear_68_15574)" stroke-width="2" stroke-linecap="round" stroke-dasharray="6 9"/>
<path id="Vector_19" opacity="0.22" d="M382.909 266.007C390.299 275.961 395.126 287.404 397.57 299.839C399.737 312.696 399.64 326.895 397.527 341.681C395.188 356.787 390.876 371.911 384.692 385.428C377.975 397.602 369.073 406.488 358.043 410.421C346.121 411.449 333.222 407.524 320.222 400.205C306.784 391.986 293.515 382.09 281.053 371.756C268.325 362.048 256.216 352.243 245.256 342.666C233.857 333.592 223.468 324.267 214.92 314.768C206.194 305.334 200.533 296.392 197.977 288.379C195.804 280.384 196.968 273.487 201.213 268.145C205.851 262.754 213.307 258.748 223.018 256.199C232.605 252.777 243.933 250.007 256.444 247.874C268.371 243.829 280.259 240.602 291.671 238.403C302.833 235.098 313.952 233.639 324.654 234.311C335.522 234.773 346.207 237.712 356.104 243.064C366.196 248.407 375.391 256.082 382.909 266.007Z" stroke="url(#paint18_linear_68_15574)" stroke-width="2" stroke-linecap="round" stroke-dasharray="2 4"/>
<path id="Vector_20" opacity="0.67" d="M376.311 279.936C382.261 289.2 385.958 299.805 387.577 311.228C388.963 322.88 388.312 335.484 385.83 348.252C383.118 361.043 378.606 373.477 372.441 384.214C365.927 393.771 357.628 400.459 347.72 403.057C337.294 403.415 326.237 399.688 315.178 393.075C303.814 385.599 292.548 376.446 281.931 366.688C271.048 357.198 260.698 347.481 251.421 338.004C241.797 328.844 233.195 319.66 226.346 310.721C219.36 301.814 215.044 293.82 213.378 287.001C212.598 277.353 224.444 264.611 236.018 261.364C244.286 258.823 254.145 256.976 265.154 255.824C275.813 253.141 286.541 251.275 296.904 250.305C307.101 248.368 317.183 247.948 326.744 249.243C336.391 250.25 345.689 253.312 354.12 258.448C362.648 263.519 370.262 270.686 376.311 279.936Z" stroke="url(#paint19_linear_68_15574)" stroke-width="2" stroke-linecap="round" stroke-dasharray="7 10"/>
<path id="Vector_21" opacity="0.13" d="M368.355 293.586C372.969 301.996 375.633 311.503 376.472 321.558C377.157 331.729 376.049 342.465 373.332 353.025C370.452 363.449 365.983 373.26 360.144 381.429C354.1 388.648 346.641 393.442 337.975 394.917C329.045 394.762 319.738 391.336 310.542 385.532C301.13 378.962 291.821 370.836 283.06 362.023C274.071 353.248 265.574 344.129 258.021 335.212C250.221 326.456 243.369 317.8 238.071 309.612C232.675 301.44 229.525 294.372 228.525 288.578C228.339 280.422 238.664 270.241 248.396 267.905C255.37 266.056 263.745 264.912 273.188 264.548C282.439 262.999 291.842 262.256 300.961 262.329C309.971 261.609 318.838 262.128 327.167 264.011C335.526 265.584 343.443 268.81 350.46 273.731C357.514 278.566 363.662 285.188 368.355 293.586Z" stroke="url(#paint20_linear_68_15574)" stroke-width="2" stroke-linecap="round" stroke-dasharray="3 1"/>
<path id="Vector_22" opacity="0.83" d="M358.931 306.243C362.338 313.616 364.078 321.773 364.289 330.218C364.4 338.672 362.986 347.365 360.241 355.665C357.398 363.764 353.244 371.137 347.991 377.013C342.645 382.185 336.218 385.396 328.892 385.997C321.467 385.493 313.851 382.436 306.387 377.507C298.819 371.975 291.369 365.077 284.408 357.493C277.289 349.822 270.596 341.751 264.728 333.807C258.694 325.917 253.495 318.154 249.597 310.905C244.551 300.617 243.232 285.785 246.779 281.258C251.973 277.506 269.13 274.139 280.416 274.034C288.168 273.374 296.083 273.512 303.783 274.393C311.438 274.656 318.933 275.937 325.902 278.28C332.885 280.33 339.392 283.678 345.034 288.33C350.686 292.88 355.463 298.865 358.931 306.243Z" stroke="url(#paint21_linear_68_15574)" stroke-width="2" stroke-linecap="round" stroke-dasharray="3 8"/>
<path id="Vector_23" opacity="0.62" d="M348.108 317.131C352.76 329.483 351.925 343.562 346.875 355.903C341.621 367.518 332.378 375.63 320.579 376.301C308.736 374.192 296.504 365.009 286.024 352.862C275.205 340.221 265.848 326.161 260.579 313.962C255.14 301.766 255.246 293.392 259.956 289.259C264.862 284.402 274.239 282.599 286.653 284.256C299.034 283.654 311.988 286.302 323.005 291.677C334.066 296.192 343.305 304.773 348.108 317.131Z" stroke="url(#paint22_linear_68_15574)" stroke-width="2" stroke-linecap="round" stroke-dasharray="1 4"/>
<path id="Vector_24" opacity="0.15" d="M336.145 325.514C339.049 335.124 337.82 345.275 333.563 353.559C329.251 361.329 322.082 366.24 313.19 365.857C304.386 363.936 295.486 357.034 288.03 347.932C280.445 338.413 274.108 327.606 270.849 318.068C267.781 305.205 279.102 294.077 291.754 295.143C300.985 295.564 310.565 298.746 318.593 303.902C326.659 308.509 333.151 315.899 336.145 325.514Z" stroke="url(#paint23_linear_68_15574)" stroke-width="2" stroke-linecap="round" stroke-dasharray="5 10"/>
<path id="Vector_25" opacity="0.48" d="M323.47 330.802C326.455 343.981 318.785 355.728 306.892 354.699C295.33 351.041 283.736 335.683 280.423 322.545C276.953 309.377 283.608 303.138 295.505 306.615C307.711 307.722 320.329 317.584 323.47 330.802Z" stroke="url(#paint24_linear_68_15574)" stroke-width="2" stroke-linecap="round" stroke-dasharray="11 4"/>
</g>
<defs>
<linearGradient id="paint0_linear_68_15574" x1="321.17" y1="14.365" x2="321.17" y2="614.356" gradientUnits="userSpaceOnUse">
<stop stop-color="#0593FF"/>
<stop offset="1" stop-color="#FE069B"/>
</linearGradient>
<linearGradient id="paint1_linear_68_15574" x1="340.829" y1="27.3537" x2="300.147" y2="603.361" gradientUnits="userSpaceOnUse">
<stop stop-color="#0593FF"/>
<stop offset="1" stop-color="#FE069B"/>
</linearGradient>
<linearGradient id="paint2_linear_68_15574" x1="358.767" y1="41.6059" x2="280.776" y2="590.971" gradientUnits="userSpaceOnUse">
<stop stop-color="#0593FF"/>
<stop offset="1" stop-color="#FE069B"/>
</linearGradient>
<linearGradient id="paint3_linear_68_15574" x1="374.915" y1="56.9514" x2="263.159" y2="577.361" gradientUnits="userSpaceOnUse">
<stop stop-color="#0593FF"/>
<stop offset="1" stop-color="#FE069B"/>
</linearGradient>
<linearGradient id="paint4_linear_68_15574" x1="389.215" y1="73.2106" x2="247.37" y2="562.716" gradientUnits="userSpaceOnUse">
<stop stop-color="#0593FF"/>
<stop offset="1" stop-color="#FE069B"/>
</linearGradient>
<linearGradient id="paint5_linear_68_15574" x1="401.62" y1="90.1969" x2="233.471" y2="547.211" gradientUnits="userSpaceOnUse">
<stop stop-color="#0593FF"/>
<stop offset="1" stop-color="#FE069B"/>
</linearGradient>
<linearGradient id="paint6_linear_68_15574" x1="412.107" y1="107.735" x2="221.515" y2="531.031" gradientUnits="userSpaceOnUse">
<stop stop-color="#0593FF"/>
<stop offset="1" stop-color="#FE069B"/>
</linearGradient>
<linearGradient id="paint7_linear_68_15574" x1="420.667" y1="125.655" x2="211.532" y2="514.385" gradientUnits="userSpaceOnUse">
<stop stop-color="#0593FF"/>
<stop offset="1" stop-color="#FE069B"/>
</linearGradient>
<linearGradient id="paint8_linear_68_15574" x1="427.311" y1="143.774" x2="203.518" y2="497.506" gradientUnits="userSpaceOnUse">
<stop stop-color="#0593FF"/>
<stop offset="1" stop-color="#FE069B"/>
</linearGradient>
<linearGradient id="paint9_linear_68_15574" x1="431.688" y1="162.39" x2="197.439" y2="480.582" gradientUnits="userSpaceOnUse">
<stop stop-color="#0593FF"/>
<stop offset="1" stop-color="#FE069B"/>
</linearGradient>
<linearGradient id="paint10_linear_68_15574" x1="434.869" y1="179.932" x2="193.37" y2="463.693" gradientUnits="userSpaceOnUse">
<stop stop-color="#0593FF"/>
<stop offset="1" stop-color="#FE069B"/>
</linearGradient>
<linearGradient id="paint11_linear_68_15574" x1="435.857" y1="197.616" x2="191.023" y2="447.284" gradientUnits="userSpaceOnUse">
<stop stop-color="#0593FF"/>
<stop offset="1" stop-color="#FE069B"/>
</linearGradient>
<linearGradient id="paint12_linear_68_15574" x1="435.098" y1="214.808" x2="190.475" y2="431.384" gradientUnits="userSpaceOnUse">
<stop stop-color="#0593FF"/>
<stop offset="1" stop-color="#FE069B"/>
</linearGradient>
<linearGradient id="paint13_linear_68_15574" x1="432.636" y1="231.381" x2="191.638" y2="416.171" gradientUnits="userSpaceOnUse">
<stop stop-color="#0593FF"/>
<stop offset="1" stop-color="#FE069B"/>
</linearGradient>
<linearGradient id="paint14_linear_68_15574" x1="428.575" y1="247.165" x2="194.408" y2="401.805" gradientUnits="userSpaceOnUse">
<stop stop-color="#0593FF"/>
<stop offset="1" stop-color="#FE069B"/>
</linearGradient>
<linearGradient id="paint15_linear_68_15574" x1="422.994" y1="262.036" x2="198.665" y2="388.439" gradientUnits="userSpaceOnUse">
<stop stop-color="#0593FF"/>
<stop offset="1" stop-color="#FE069B"/>
</linearGradient>
<linearGradient id="paint16_linear_68_15574" x1="415.991" y1="275.853" x2="205.325" y2="375.704" gradientUnits="userSpaceOnUse">
<stop stop-color="#0593FF"/>
<stop offset="1" stop-color="#FE069B"/>
</linearGradient>
<linearGradient id="paint17_linear_68_15574" x1="407.753" y1="288.672" x2="212.08" y2="365.04" gradientUnits="userSpaceOnUse">
<stop stop-color="#0593FF"/>
<stop offset="1" stop-color="#FE069B"/>
</linearGradient>
<linearGradient id="paint18_linear_68_15574" x1="398.111" y1="299.782" x2="218.87" y2="355.541" gradientUnits="userSpaceOnUse">
<stop stop-color="#0593FF"/>
<stop offset="1" stop-color="#FE069B"/>
</linearGradient>
<linearGradient id="paint19_linear_68_15574" x1="387.561" y1="309.57" x2="227.547" y2="347.219" gradientUnits="userSpaceOnUse">
<stop stop-color="#0593FF"/>
<stop offset="1" stop-color="#FE069B"/>
</linearGradient>
<linearGradient id="paint20_linear_68_15574" x1="376.101" y1="317.774" x2="236.906" y2="340.318" gradientUnits="userSpaceOnUse">
<stop stop-color="#0593FF"/>
<stop offset="1" stop-color="#FE069B"/>
</linearGradient>
<linearGradient id="paint21_linear_68_15574" x1="363.923" y1="324.546" x2="248.671" y2="334.954" gradientUnits="userSpaceOnUse">
<stop stop-color="#0593FF"/>
<stop offset="1" stop-color="#FE069B"/>
</linearGradient>
<linearGradient id="paint22_linear_68_15574" x1="351.074" y1="328.962" x2="257.091" y2="330.8" gradientUnits="userSpaceOnUse">
<stop stop-color="#0593FF"/>
<stop offset="1" stop-color="#FE069B"/>
</linearGradient>
<linearGradient id="paint23_linear_68_15574" x1="337.978" y1="332.306" x2="269.553" y2="328.815" gradientUnits="userSpaceOnUse">
<stop stop-color="#0593FF"/>
<stop offset="1" stop-color="#FE069B"/>
</linearGradient>
<linearGradient id="paint24_linear_68_15574" x1="324.672" y1="333.351" x2="277.977" y2="327.65" gradientUnits="userSpaceOnUse">
<stop stop-color="#0593FF"/>
<stop offset="1" stop-color="#FE069B"/>
</linearGradient>
</defs>
</svg>
